<?xml version="1.0" standalone="no"?>
<!DOCTYPE svg PUBLIC "-//W3C//DTD SVG 1.1//EN" "http://www.w3.org/Graphics/SVG/1.1/DTD/svg11.dtd" >
<svg>
<metadata>
Created by FontForge 20090914 at Wed Mar 11 05:12:49 2015
 By www-data
Copyright (c) 2010-2012 by Claus Eggers S&#195;&#184;rensen (es@forthehearts.net), with Reserved Font Name 'Playfair'.
</metadata>
<defs>
<font id="PlayfairDisplay-Regular" horiz-adv-x="694" >
  <font-face 
    font-family="Playfair Display"
    font-weight="400"
    font-stretch="normal"
    units-per-em="2048"
    panose-1="0 0 5 0 0 0 0 0 0 0"
    ascent="1638"
    descent="-410"
    x-height="1055"
    cap-height="1450"
    bbox="-547 -494.007 2480 2047"
    underline-thickness="20"
    underline-position="-90"
    unicode-range="U+000D-U+FB02"
  />
<missing-glyph horiz-adv-x="1151" 
d="M123 0v1581h905v-1581h-905zM197 61h757v1459h-757v-1459z" />
    <glyph glyph-name="fi" unicode="fi" horiz-adv-x="1268" 
d="M365 1468c42 40.667 95.0029 73.1689 159.003 97.502s138.667 36.5 224 36.5c56 0 108.167 -5.66699 156.5 -17s87.5 -26.333 117.5 -45c46.667 -29.333 70 -67 70 -113c0 -24 -6 -46.167 -18 -66.5s-28 -36.5 -48 -48.5s-41.667 -18 -65 -18s-45.166 6 -65.499 18
s-36.5 28 -48.5 48s-18 41.667 -18 65c0 24.667 6.16699 47.167 18.5 67.5s28.833 36.166 49.5 47.499c-31.333 20.667 -81 31 -149 31c-136 0 -233 -52.667 -291 -158c-20 -36 -34.333 -80.833 -43 -134.5s-13 -128.834 -13 -225.501h330c85.333 0 152.5 1.66699 201.5 5
s95.167 9.66602 138.5 18.999v-887c0 -38 5.16699 -67.667 15.5 -89s26.666 -36.333 48.999 -45s52.833 -13 91.5 -13v-43c-125.333 5.33301 -208 8 -248 8s-122.667 -2.66699 -248 -8v43c38.667 0 69.167 4.33301 91.5 13s38.666 23.667 48.999 45s15.5 51 15.5 89v641
c0 63.333 -11.5 109.333 -34.5 138s-63.5 43 -121.5 43h-330v-822c0 -55.333 14.667 -93.666 44 -114.999s73.666 -32 132.999 -32v-43c-149.333 5.33301 -239 8 -269 8c-37.333 0 -120 -2.66699 -248 -8v43c38.667 0 69.167 4.33301 91.5 13s38.666 23.667 48.999 45
s15.5 51 15.5 89v822h-164v41h164c0 184.667 49.333 323 148 415z" />
    <glyph glyph-name="fl" unicode="fl" horiz-adv-x="1272" 
d="M1086.5 101c10.333 -21.333 26.6699 -36.332 49.0029 -44.999s52.833 -13 91.5 -13v-43c-125.333 5.33301 -208 8 -248 8s-122.667 -2.66699 -248 -8v43c38.667 0 69.167 4.33301 91.5 13s38.666 23.667 48.999 45s15.5 51 15.5 89v1141c0 42 -4.66699 76.167 -14 102.5
s-23.333 48.833 -42 67.5c-24 24 -54.333 41.667 -91 53s-71.667 17 -105 17c-68 0 -122 -21.333 -162 -64c-28.667 -28.667 -47.834 -64.334 -57.501 -107.001s-14.5 -94.334 -14.5 -155.001v-192h261v-41h-261v-822c0 -55.333 14.667 -93.666 44 -114.999
s73.666 -32 132.999 -32v-43c-149.333 5.33301 -239 8 -269 8c-37.333 0 -120 -2.66699 -248 -8v43c38.667 0 69.167 4.33301 91.5 13s38.666 23.667 48.999 45s15.5 51 15.5 89v822h-164v41h164c0 76.667 3 141.5 9 194.5s18.5 101.5 37.5 145.5s47.167 82 84.5 114
c72.667 63.333 165 95 277 95c26.667 0 57 -2.5 91 -7.5s63.833 -9.16699 89.5 -12.5s52.834 -5 81.501 -5c68.667 0 130 9.66699 184 29v-1416c0 -38 5.16699 -67.667 15.5 -89z" />
    <glyph glyph-name="f_f" unicode="ff" horiz-adv-x="1337" 
d="M309 1386c34.667 41.333 79.1689 73.9961 133.502 97.9961s113.833 36 178.5 36c63.333 0 120.5 -13 171.5 -39s89.167 -63.333 114.5 -112c16 48.667 40 92 72 130c26.667 32 61.334 57.167 104.001 75.5s89 27.5 139 27.5c70 0 129.333 -18.667 178 -56
c42.667 -34.667 64 -77 64 -127c0 -31.333 -10.167 -57.166 -30.5 -77.499s-46.5 -30.5 -78.5 -30.5c-31.333 0 -57.833 10 -79.5 30s-32.5 46.667 -32.5 80c0 28 7.83301 51.167 23.5 69.5s36.5 30.166 62.5 35.499c-4 12.667 -15 23.334 -33 32.001s-40.667 13 -68 13
c-60.667 0 -105 -25.333 -133 -76c-15.333 -27.333 -25.333 -68.166 -30 -122.499s-7 -143.166 -7 -266.499v-53h220v-41h-220v-801c0 -63.333 18 -107.166 54 -131.499s90.333 -36.5 163 -36.5v-43c-168 5.33301 -273 8 -315 8c-33.333 0 -114 -2.66699 -242 -8v43
c38.667 0 69.167 4.33301 91.5 13s38.666 23.667 48.999 45s15.5 51 15.5 89v822h-473v-822c0 -38 5.16699 -67.667 15.5 -89s26.666 -36.333 48.999 -45s52.833 -13 91.5 -13v-43c-125.333 5.33301 -207.333 8 -246 8s-122 -2.66699 -250 -8v43
c38.667 0 69.167 4.33301 91.5 13s38.666 23.667 48.999 45s15.5 51 15.5 89v822h-164v41h164c0 150.667 30.667 261.667 92 333zM894.002 1317c-18.667 49.333 -50.8311 89.333 -96.498 120s-101.834 46 -168.501 46c-78.667 0 -136.334 -25.833 -173.001 -77.5
s-55 -134.5 -55 -248.5v-104h473c0 112.667 6.66699 200.667 20 264z" />
    <glyph glyph-name="f_idieresis.liga" unicode="f&#xef;" horiz-adv-x="1268" 
d="M1086.5 101c10.333 -21.333 26.6699 -36.334 49.0029 -45.001s52.833 -13 91.5 -13v-43c-125.333 5.33301 -208 8 -248 8s-122.667 -2.66699 -248 -8v43c38.667 0 69.167 4.33301 91.5 13s38.666 23.667 48.999 45s15.5 51 15.5 89v641c0 63.333 -11.5 109.333 -34.5 138
s-63.5 43 -121.5 43h-330v-822c0 -55.333 14.667 -93.666 44 -114.999s73.666 -32 132.999 -32v-43c-149.333 5.33301 -239 8 -269 8c-37.333 0 -120 -2.66699 -248 -8v43c38.667 0 69.167 4.33301 91.5 13s38.666 23.667 48.999 45s15.5 51 15.5 89v822h-164v41h164
c0 82.667 3.5 151.334 10.5 206.001s18 100.667 33 138s35.5 71.333 61.5 102c57.333 68.667 144.666 103 261.999 103c48.667 0 92.834 -7.66699 132.501 -23s71.5 -37.666 95.5 -66.999s36.667 -64 38 -104v-5v-1v-1v0c-0.666992 -32.667 -12.667 -60.334 -36 -83.001
s-51 -34 -83 -34c-32.667 0 -60.667 11.667 -84 35s-35 51.333 -35 84c0 20.667 5.33301 40.167 16 58.5s25.167 33 43.5 44s37.833 16.5 58.5 16.5c-35.333 30 -83.333 45 -144 45c-49.333 0 -89 -13.333 -119 -40s-48.333 -65.334 -55 -116.001
c-7.33301 -45.333 -11 -164.666 -11 -357.999h330c85.333 0 152.5 1.66699 201.5 5s95.167 9.66602 138.5 18.999v-887c0 -38 5.16699 -67.667 15.5 -89zM1223.5 1505.5c18.333 -11 33 -25.668 44 -44.001s16.5 -37.833 16.5 -58.5c0 -21.333 -5.5 -41.166 -16.5 -59.499
s-25.5 -32.833 -43.5 -43.5s-37.667 -16 -59 -16c-32.667 0 -60.5 11.667 -83.5 35s-34.5 51.333 -34.5 84c0 20.667 5.33301 40.167 16 58.5s25 33 43 44s37.667 16.5 59 16.5c20.667 0 40.167 -5.5 58.5 -16.5z" />
    <glyph glyph-name="f_igrave.liga" unicode="f&#xec;" horiz-adv-x="1268" 
d="M1086.5 101c10.333 -21.333 26.6719 -36.334 49.0049 -45.001s52.833 -13 91.5 -13v-43c-125.333 5.33301 -208 8 -248 8s-122.667 -2.66699 -248 -8v43c38.667 0 69.167 4.33301 91.5 13s38.666 23.667 48.999 45s15.5 51 15.5 89v641c0 63.333 -11.5 109.333 -34.5 138
s-63.5 43 -121.5 43h-330v-822c0 -55.333 14.667 -93.666 44 -114.999s73.666 -32 132.999 -32v-43c-149.333 5.33301 -239 8 -269 8c-37.333 0 -120 -2.66699 -248 -8v43c38.667 0 69.167 4.33301 91.5 13s38.666 23.667 48.999 45s15.5 51 15.5 89v822h-164v41h164
c0 76 2.5 140.667 7.5 194s15.667 102 32 146s40.166 82 71.499 114c60.667 63.333 139.667 95 237 95c45.333 0 86.333 -9.33301 123 -28c-4.66699 11.333 -7 22.666 -7 33.999c0 22.667 9.33301 41.667 28 57c13.333 10 28 15 44 15c29.333 0 55.666 -15.333 78.999 -46
c19.333 -25.333 41 -61.166 65 -107.499l70.5 -134c23 -43 52.167 -92.167 87.5 -147.5l-23 -18c-37.333 39.333 -71.5 73.5 -102.5 102.5l-91 82.5c-29.667 26 -53.834 48 -72.501 66c-37.333 32.667 -71.166 56.334 -101.499 71.001s-62.833 22 -97.5 22
c-58.667 0 -103 -28.667 -133 -86c-22 -44.667 -33 -124.667 -33 -240v-192h330c85.333 0 152.5 1.66699 201.5 5s95.167 9.66602 138.5 18.999v-887c0 -38 5.16699 -67.667 15.5 -89z" />
    <glyph glyph-name="f_f_b.liga" unicode="ffb" horiz-adv-x="2492" 
d="M1817.5 1026c56.333 38 119.502 57.002 189.502 57.002c76 0 143.167 -20.833 201.5 -62.5s104.166 -104.334 137.5 -188.001c33.333 -83.667 50 -185.834 50 -306.501c0 -118 -20.5 -218.833 -61.5 -302.5s-96.167 -146.667 -165.5 -189s-146 -63.5 -230 -63.5
c-50 0 -98.667 10.167 -146 30.5s-88.333 50.166 -123 89.499l-146 -124l-35 15c9.33301 33.333 14 72.666 14 117.999v1231c0 74.667 -18.333 131.334 -55 170.001c-22.667 23.333 -50.5 40.833 -83.5 52.5s-64.5 17.5 -94.5 17.5c-56 0 -103.333 -19.333 -142 -58
c-28.667 -28.667 -47.334 -65 -56.001 -109s-13 -97 -13 -159v-192h260v-41h-260v-822c0 -55.333 14.5 -93.666 43.5 -114.999s73.167 -32 132.5 -32v-43c-146.667 5.33301 -236 8 -268 8c-40 0 -122.667 -2.66699 -248 -8v43c38.667 0 69 4.33301 91 13
s38.167 23.667 48.5 45s15.5 51 15.5 89v822h-473v-822c0 -38 5.16699 -67.667 15.5 -89s26.666 -36.333 48.999 -45s52.833 -13 91.5 -13v-43c-125.333 5.33301 -207.333 8 -246 8s-122 -2.66699 -250 -8v43c38.667 0 69.167 4.33301 91.5 13s38.666 23.667 48.999 45
s15.5 51 15.5 89v822h-164v41h164c0 144.667 33.333 255.667 100 333c37.333 41.333 83.833 74 139.5 98s117.167 36 184.5 36c122.667 0 218.667 -37.333 288 -112c19.333 38 45 71 77 99c70 63.333 156.667 95 260 95c24.667 0 63 -3.5 115 -10.5s97.667 -10.5 137 -10.5
c70.667 0 127.334 8.33301 170.001 25v-741c30 69.333 73.167 123 129.5 161zM882.002 1235.5c5.33301 50.333 15.333 95.501 30 135.501c-29.333 34.667 -65.333 62 -108 82s-88.667 30 -138 30c-176.667 0 -265 -108.667 -265 -326v-104h473
c0 71.333 2.66699 132.166 8 182.499zM1797.5 43.5029c41 -17 82.833 -25.5 125.5 -25.5c92 0 160.833 41.5 206.5 124.5s68.5 210.833 68.5 383.5c0 166.667 -20.5 291 -61.5 373s-103.833 123 -188.5 123c-36.667 0 -72.167 -9.66699 -106.5 -29s-65 -48 -92 -86
s-47.5 -83.667 -61.5 -137v-651c32 -33.333 68.5 -58.5 109.5 -75.5z" />
    <glyph glyph-name="f_f_h.liga" unicode="ffh" horiz-adv-x="2511" 
d="M2339.5 101c10.333 -21.333 26.668 -36.335 49.002 -45.002c22.333 -8.66699 52.833 -13 91.5 -13v-43c-125.333 5.33301 -207.333 8 -246 8c-38 0 -114.333 -2.66699 -229 -8v43c34 0 60.5 4.33301 79.5 13s33 23.667 42 45s13.5 51 13.5 89v592
c0 49.333 -3.83301 90.666 -11.5 123.999s-23.667 60.333 -48 81s-59.833 31 -106.5 31c-55.333 0 -104.666 -15.833 -147.999 -47.5s-77.166 -75.667 -101.499 -132s-36.5 -120.166 -36.5 -191.499v-457c0 -38 4.33301 -67.667 13 -89s22.667 -36.333 42 -45s46 -13 80 -13
v-43c-114.667 5.33301 -191.334 8 -230.001 8c-38 0 -119.667 -2.66699 -245 -8v43c38.667 0 69 4.33301 91 13s38.167 23.667 48.5 45s15.5 51 15.5 89v1141c0 74.667 -18.333 131.334 -55 170.001c-22.667 23.333 -50.5 40.833 -83.5 52.5s-64.5 17.5 -94.5 17.5
c-56 0 -103.333 -19.333 -142 -58c-28.667 -28.667 -47.334 -65 -56.001 -109s-13 -97 -13 -159v-192h260v-41h-260v-822c0 -55.333 14.5 -93.666 43.5 -114.999s73.167 -32 132.5 -32v-43c-146.667 5.33301 -236 8 -268 8c-40 0 -122.667 -2.66699 -248 -8v43
c38.667 0 69 4.33301 91 13s38.167 23.667 48.5 45s15.5 51 15.5 89v822h-473v-822c0 -38 5.16699 -67.667 15.5 -89s26.666 -36.333 48.999 -45s52.833 -13 91.5 -13v-43c-125.333 5.33301 -207.333 8 -246 8s-122 -2.66699 -250 -8v43c38.667 0 69.167 4.33301 91.5 13
s38.666 23.667 48.999 45s15.5 51 15.5 89v822h-164v41h164c0 144.667 33.333 255.667 100 333c37.333 41.333 83.833 74 139.5 98s117.167 36 184.5 36c122.667 0 218.667 -37.333 288 -112c19.333 38 45 71 77 99c70 63.333 156.667 95 260 95c24.667 0 63 -3.5 115 -10.5
s97.667 -10.5 137 -10.5c70 0 126.667 7.66699 170 23v-766c33.333 86.667 80.5 149.167 141.5 187.5s129.833 57.5 206.5 57.5c95.333 0 167.666 -25.667 217 -77c25.333 -28 43.5 -62.5 54.5 -103.5s16.5 -96.167 16.5 -165.5v-547c0 -38 5.16699 -67.667 15.5 -89z
M882.002 1235.5c5.33301 50.333 15.333 95.501 30 135.501c-29.333 34.667 -65.333 62 -108 82s-88.667 30 -138 30c-176.667 0 -265 -108.667 -265 -326v-104h473c0 71.333 2.66699 132.166 8 182.499z" />
    <glyph glyph-name="f_f_i" unicode="ffi" horiz-adv-x="1925" 
d="M1744.5 101c10.333 -21.333 26.501 -36.332 48.501 -44.999s52.333 -13 91 -13v-43c-125.333 5.33301 -208 8 -248 8c-39.333 0 -121.666 -2.66699 -246.999 -8v43c38.667 0 69 4.33301 91 13s38.167 23.667 48.5 45s15.5 51 15.5 89v641
c0 63.333 -11.5 109.333 -34.5 138s-63.167 43 -120.5 43h-330v-822c0 -55.333 14.5 -93.666 43.5 -114.999s73.167 -32 132.5 -32v-43c-146.667 5.33301 -236 8 -268 8c-40 0 -122.667 -2.66699 -248 -8v43c38.667 0 69 4.33301 91 13s38.167 23.667 48.5 45
s15.5 51 15.5 89v822h-473v-822c0 -38 5.16699 -67.667 15.5 -89s26.666 -36.333 48.999 -45s52.833 -13 91.5 -13v-43c-125.333 5.33301 -207.333 8 -246 8s-122 -2.66699 -250 -8v43c38.667 0 69.167 4.33301 91.5 13s38.666 23.667 48.999 45s15.5 51 15.5 89v822h-164
v41h164c0 144.667 33.333 255.667 100 333c37.333 41.333 83.833 74 139.5 98s117.167 36 184.5 36c136.667 0 240 -46.333 310 -139c20 32 43.667 61 71 87c42.667 40.667 96 73.167 160 97.5s138.333 36.5 223 36.5c56 0 108.167 -5.66699 156.5 -17
s87.5 -26.333 117.5 -45c46.667 -29.333 70 -67 70 -113c0 -24 -5.83301 -46.167 -17.5 -66.5s-27.667 -36.5 -48 -48.5s-42.166 -18 -65.499 -18s-45.166 6 -65.499 18s-36.333 28 -48 48s-17.5 41.667 -17.5 65c0 24.667 6 47.167 18 67.5s28.333 36.166 49 47.499
c-30.667 20.667 -80.334 31 -149.001 31c-69.333 0 -128.333 -13.833 -177 -41.5s-86.667 -66.5 -114 -116.5c-20 -35.333 -34.167 -79.833 -42.5 -133.5s-12.5 -129.167 -12.5 -226.5h330c84.667 0 151.667 1.66699 201 5s95.666 9.66602 138.999 18.999v-887
c0 -38 5.16699 -67.667 15.5 -89zM932.001 1346c-29.333 41.333 -67.168 74.5 -113.501 99.5s-97.166 37.5 -152.499 37.5c-176.667 0 -265 -108.667 -265 -326v-104h473c0 117.333 19.333 215 58 293z" />
    <glyph glyph-name="f_f_j.liga" unicode="ffj" horiz-adv-x="1884" 
d="M1590 1058c49.333 3.33301 95.6689 9.66602 139.002 18.999v-841c0 -110.667 -7.66699 -207.667 -23 -291s-44 -151.666 -86 -204.999c-32 -40.667 -70.167 -71.667 -114.5 -93s-88.833 -32 -133.5 -32c-34 0 -62.667 6.66699 -86 20c-34 20.667 -51 50.334 -51 89.001
c0 28 8.66699 51 26 69s40.666 27 69.999 27c27.333 0 49.5 -8.83301 66.5 -26.5s25.5 -39.5 25.5 -65.5c0 -32 -10.667 -59.333 -32 -82c37.333 4 67.333 14 90 30c21.333 16 37 37.333 47 64c10.667 29.333 16 71.666 16 126.999v964c0 63.333 -11.5 109.333 -34.5 138
s-63.167 43 -120.5 43h-330v-801c0 -63.333 18 -107.166 54 -131.499s90.333 -36.5 163 -36.5v-43c-170.667 5.33301 -275.667 8 -315 8c-36 0 -116.667 -2.66699 -242 -8v43c38.667 0 69 4.33301 91 13s38.167 23.667 48.5 45s15.5 51 15.5 89v822h-473v-822
c0 -38 5.16699 -67.667 15.5 -89s26.666 -36.333 48.999 -45s52.833 -13 91.5 -13v-43c-125.333 5.33301 -207.333 8 -246 8s-122 -2.66699 -250 -8v43c38.667 0 69.167 4.33301 91.5 13s38.666 23.667 48.999 45s15.5 51 15.5 89v822h-164v41h164
c0 144.667 33.333 255.667 100 333c37.333 41.333 83.833 74 139.5 98s117.167 36 184.5 36c136.667 0 240 -46.333 310 -139c20 32 43.667 61 71 87c42.667 40.667 96 73.167 160 97.5s138.333 36.5 223 36.5c56 0 108.167 -5.66699 156.5 -17s87.5 -26.333 117.5 -45
c46.667 -29.333 70 -67 70 -113c0 -24 -5.83301 -46.167 -17.5 -66.5s-27.667 -36.5 -48 -48.5s-42.166 -18 -65.499 -18s-45.166 6 -65.499 18s-36.333 28 -48 48s-17.5 41.667 -17.5 65c0 24.667 6 47.167 18 67.5s28.333 36.166 49 47.499
c-30.667 20.667 -80.334 31 -149.001 31c-69.333 0 -128.333 -13.833 -177 -41.5s-86.667 -66.5 -114 -116.5c-20 -35.333 -34.167 -79.833 -42.5 -133.5s-12.5 -129.167 -12.5 -226.5h330c84.667 0 151.667 1.66699 201 5zM932.003 1346
c-29.333 41.333 -67.168 74.5 -113.501 99.5s-97.166 37.5 -152.499 37.5c-176.667 0 -265 -108.667 -265 -326v-104h473c0 117.333 19.333 215 58 293z" />
    <glyph glyph-name="f_f_k.liga" unicode="ffk" horiz-adv-x="2433" 
d="M2344 73.5c20.667 -16.333 45.6719 -26.501 75.0049 -30.501v-43c-82.667 5.33301 -138 8 -166 8c-37.333 0 -113.333 -2.66699 -228 -8v43c20 0 35.667 3.66699 47 11s17 16.666 17 27.999c0 9.33301 -4 19.666 -12 30.999l-236 344
c-24 34.667 -46.333 57.834 -67 69.501s-49.334 18.5 -86.001 20.5v-357c0 -38 4.33301 -67.667 13 -89s22.667 -36.333 42 -45s46 -13 80 -13v-43c-114.667 5.33301 -191.334 8 -230.001 8c-38 0 -119.667 -2.66699 -245 -8v43c38.667 0 69 4.33301 91 13
s38.167 23.667 48.5 45s15.5 51 15.5 89v1141c0 74.667 -18.333 131.334 -55 170.001c-22.667 23.333 -50.5 40.833 -83.5 52.5s-64.5 17.5 -94.5 17.5c-56 0 -103.333 -19.333 -142 -58c-28.667 -28.667 -47.334 -65 -56.001 -109s-13 -97 -13 -159v-192h260v-41h-260v-822
c0 -55.333 14.5 -93.666 43.5 -114.999s73.167 -32 132.5 -32v-43c-146.667 5.33301 -236 8 -268 8c-40 0 -122.667 -2.66699 -248 -8v43c38.667 0 69 4.33301 91 13s38.167 23.667 48.5 45s15.5 51 15.5 89v822h-473v-822c0 -38 5.16699 -67.667 15.5 -89
s26.666 -36.333 48.999 -45s52.833 -13 91.5 -13v-43c-125.333 5.33301 -207.333 8 -246 8s-122 -2.66699 -250 -8v43c38.667 0 69.167 4.33301 91.5 13s38.666 23.667 48.999 45s15.5 51 15.5 89v822h-164v41h164c0 144.667 33.333 255.667 100 333
c37.333 41.333 83.833 74 139.5 98s117.167 36 184.5 36c122.667 0 218.667 -37.333 288 -112c19.333 38 45 71 77 99c70 63.333 156.667 95 260 95c24.667 0 63 -3.5 115 -10.5s97.667 -10.5 137 -10.5c70 0 126.667 7.66699 170 23v-1015
c39.333 5.33301 72.5 14.5 99.5 27.5s52.5 32.167 76.5 57.5l151 157c43.333 45.333 65 83 65 113c0 24 -13.667 41.667 -41 53s-64 17 -110 17v41c96 -5.33301 173.333 -8 232 -8c64 0 123.333 2.66699 178 8v-41c-66 -6 -127.667 -38 -185 -96l-248 -262l369 -506
c25.333 -34.667 48.333 -60.167 69 -76.5zM882.005 1235.5c5.33301 50.333 15.333 95.501 30 135.501c-29.333 34.667 -65.333 62 -108 82s-88.667 30 -138 30c-176.667 0 -265 -108.667 -265 -326v-104h473c0 71.333 2.66699 132.166 8 182.499z" />
    <glyph glyph-name="f_b.liga" unicode="fb" horiz-adv-x="1835" 
d="M1160 1025.5c56 38.333 119.336 57.5 190.003 57.5c76 0 143.167 -20.833 201.5 -62.5s104.166 -104.334 137.499 -188.001s50 -185.834 50 -306.501c0 -118 -20.5 -218.833 -61.5 -302.5s-96.167 -146.667 -165.5 -189s-146 -63.5 -230 -63.5
c-50 0 -98.667 10.167 -146 30.5s-88.666 50.166 -123.999 89.499l-146 -124l-35 15c10 32.667 15 72 15 118v1231c0 73.333 -18.333 130 -55 170c-23.333 23.333 -51.333 40.833 -84 52.5s-64.334 17.5 -95.001 17.5c-55.333 0 -102.333 -19.333 -141 -58
c-29.333 -29.333 -48.333 -66.166 -57 -110.499s-13 -96.833 -13 -157.5v-192h261v-41h-261v-822c0 -55.333 14.667 -93.666 44 -114.999s73.666 -32 132.999 -32v-43c-149.333 5.33301 -239 8 -269 8c-37.333 0 -120 -2.66699 -248 -8v43c38.667 0 69.167 4.33301 91.5 13
s38.666 23.667 48.999 45s15.5 51 15.5 89v822h-164v41h164c0 77.333 3 142.333 9 195s18.5 100.834 37.5 144.501s47.167 81.834 84.5 114.501c71.333 63.333 158 95 260 95c24.667 0 63.167 -3.5 115.5 -10.5s97.833 -10.5 136.5 -10.5c71.333 0 128 8.33301 170 25v-742
c30.667 69.333 74 123.166 130 161.499zM1139.5 44c41 -17.333 83.168 -26.001 126.501 -26.001c92 0 160.667 41.5 206 124.5s68 210.833 68 383.5c0 166.667 -20.5 291 -61.5 373s-103.833 123 -188.5 123c-36.667 0 -72.334 -9.83301 -107.001 -29.5
s-65.5 -48.667 -92.5 -87s-47.167 -84.5 -60.5 -138.5v-647c32 -33.333 68.5 -58.666 109.5 -75.999z" />
    <glyph glyph-name="f_f_l" unicode="ffl" horiz-adv-x="1929" 
d="M1744.5 101c10.333 -21.333 26.501 -36.335 48.501 -45.002s52.333 -13 91 -13v-43c-125.333 5.33301 -208 8 -248 8c-39.333 0 -121.666 -2.66699 -246.999 -8v43c38.667 0 69 4.33301 91 13s38.167 23.667 48.5 45s15.5 51 15.5 89v1141c0 42 -4.5 76.167 -13.5 102.5
s-22.833 48.833 -41.5 67.5c-24 24 -54.333 41.667 -91 53s-72 17 -106 17c-68 0 -122 -21.333 -162 -64c-28.667 -28.667 -47.667 -64.167 -57 -106.5s-14 -94.166 -14 -155.499v-192h260v-41h-260v-822c0 -55.333 14.5 -93.666 43.5 -114.999s73.167 -32 132.5 -32v-43
c-146.667 5.33301 -236 8 -268 8c-40 0 -122.667 -2.66699 -248 -8v43c38.667 0 69 4.33301 91 13s38.167 23.667 48.5 45s15.5 51 15.5 89v822h-473v-822c0 -38 5.16699 -67.667 15.5 -89s26.666 -36.333 48.999 -45s52.833 -13 91.5 -13v-43
c-125.333 5.33301 -207.333 8 -246 8s-122 -2.66699 -250 -8v43c38.667 0 69.167 4.33301 91.5 13s38.666 23.667 48.999 45s15.5 51 15.5 89v822h-164v41h164c0 144.667 33.333 255.667 100 333c37.333 41.333 83.833 74 139.5 98s117.167 36 184.5 36
c122.667 0 218.667 -37.333 288 -112c19.333 38.667 45 71.667 77 99c36 32 78 55.833 126 71.5s98 23.5 150 23.5c27.333 0 69 -4.16699 125 -12.5s99.667 -12.5 131 -12.5c72 0 135.667 9.66699 191 29v-1416c0 -38 5.16699 -67.667 15.5 -89zM882.001 1234.5
c5.33301 50.333 15.333 95.833 30 136.5c-29.333 34.667 -65.333 62 -108 82s-88.667 30 -138 30c-176.667 0 -265 -108.667 -265 -326v-104h473c0 70.667 2.66699 131.167 8 181.5z" />
    <glyph glyph-name="f_h.liga" unicode="fh" horiz-adv-x="1853" 
d="M1172.5 1025.5c61 38.333 129.505 57.4961 205.505 57.4961c95.333 0 167.666 -25.667 216.999 -77c26 -28 44.5 -62.333 55.5 -103s16.5 -96 16.5 -166v-547c0 -38 5.16699 -67.667 15.5 -89s26.666 -36.333 48.999 -45s52.833 -13 91.5 -13v-43
c-125.333 5.33301 -207.333 8 -246 8c-38 0 -114.333 -2.66699 -229 -8v43c34 0 60.5 4.33301 79.5 13s33 23.667 42 45s13.5 51 13.5 89v592c0 49.333 -4 90.666 -12 123.999s-24.167 60.333 -48.5 81s-59.5 31 -105.5 31c-55.333 0 -104.833 -15.833 -148.5 -47.5
s-77.667 -75.667 -102 -132s-36.5 -120.166 -36.5 -191.499v-457c0 -38 4.5 -67.667 13.5 -89s23 -36.333 42 -45s45.5 -13 79.5 -13v-43c-114.667 5.33301 -191 8 -229 8c-38.667 0 -120.667 -2.66699 -246 -8v43c38.667 0 69.167 4.33301 91.5 13s38.666 23.667 48.999 45
s15.5 51 15.5 89v1141c0 73.333 -18.333 130 -55 170c-23.333 23.333 -51.333 40.833 -84 52.5s-64.334 17.5 -95.001 17.5c-55.333 0 -102.333 -19.333 -141 -58c-29.333 -29.333 -48.333 -66.166 -57 -110.499s-13 -96.833 -13 -157.5v-192h261v-41h-261v-822
c0 -55.333 14.667 -93.666 44 -114.999s73.666 -32 132.999 -32v-43c-149.333 5.33301 -239 8 -269 8c-37.333 0 -120 -2.66699 -248 -8v43c38.667 0 69.167 4.33301 91.5 13s38.666 23.667 48.999 45s15.5 51 15.5 89v822h-164v41h164c0 77.333 3 142.333 9 195
s18.5 100.834 37.5 144.501s47.167 81.834 84.5 114.501c71.333 63.333 158 95 260 95c24.667 0 63.167 -3.5 115.5 -10.5s97.833 -10.5 136.5 -10.5c70.667 0 127.334 7.66699 170.001 23v-766c34 86.667 81.5 149.167 142.5 187.5z" />
    <glyph glyph-name="f_j.liga" unicode="fj" horiz-adv-x="1227" 
d="M365 1468c42 40.667 95.001 73.1689 159.001 97.502s138.667 36.5 224 36.5c56 0 108.167 -5.66699 156.5 -17s87.5 -26.333 117.5 -45c46.667 -29.333 70 -67 70 -113c0 -24 -6 -46.167 -18 -66.5s-28 -36.5 -48 -48.5s-41.667 -18 -65 -18s-45.166 6 -65.499 18
s-36.5 28 -48.5 48s-18 41.667 -18 65c0 24.667 6.16699 47.167 18.5 67.5s28.833 36.166 49.5 47.499c-31.333 20.667 -81 31 -149 31c-136 0 -233 -52.667 -291 -158c-20 -36 -34.333 -80.833 -43 -134.5s-13 -128.834 -13 -225.501h330c85.333 0 152.5 1.66699 201.5 5
s95.167 9.66602 138.5 18.999v-841c0 -111.333 -7.5 -208.5 -22.5 -291.5s-43.5 -151.167 -85.5 -204.5c-32 -40.667 -70.167 -71.667 -114.5 -93s-88.833 -32 -133.5 -32c-34 0 -63.333 6.66699 -88 20c-32.667 19.333 -49 49 -49 89c0 28 8.66699 51 26 69
s40.666 27 69.999 27c27.333 0 49.5 -8.83301 66.5 -26.5s25.5 -39.5 25.5 -65.5c0 -32 -11 -59.333 -33 -82c35.333 4 63.333 12.667 84 26c22.667 14.667 39.667 36 51 64c12.667 32 19 75.667 19 131v964c0 63.333 -11.5 109.333 -34.5 138s-63.5 43 -121.5 43h-330v-801
c0 -63.333 18 -107.166 54 -131.499s90.333 -36.5 163 -36.5v-43c-168 5.33301 -273 8 -315 8c-33.333 0 -114 -2.66699 -242 -8v43c38.667 0 69.167 4.33301 91.5 13s38.666 23.667 48.999 45s15.5 51 15.5 89v822h-164v41h164c0 184.667 49.333 323 148 415z" />
    <glyph glyph-name="f_k.liga" unicode="fk" horiz-adv-x="1776" 
d="M1687 73.5c20.667 -16.333 45.3379 -26.502 74.0049 -30.502v-43c-80 5.33301 -135.333 8 -166 8c-36.667 0 -112.334 -2.66699 -227.001 -8v43c19.333 0 34.666 3.66699 45.999 11s17 16.666 17 27.999c0 9.33301 -4 19.666 -12 30.999l-235 344
c-24 34.667 -46.5 58 -67.5 70s-49.833 18.667 -86.5 20v-357c0 -38 4.5 -67.667 13.5 -89s23 -36.333 42 -45s45.5 -13 79.5 -13v-43c-114.667 5.33301 -191 8 -229 8c-38.667 0 -120.667 -2.66699 -246 -8v43c38.667 0 69.167 4.33301 91.5 13s38.666 23.667 48.999 45
s15.5 51 15.5 89v1141c0 73.333 -18.333 130 -55 170c-23.333 23.333 -51.333 40.833 -84 52.5s-64.334 17.5 -95.001 17.5c-55.333 0 -102.333 -19.333 -141 -58c-29.333 -29.333 -48.333 -66.166 -57 -110.499s-13 -96.833 -13 -157.5v-192h261v-41h-261v-822
c0 -55.333 14.667 -93.666 44 -114.999s73.666 -32 132.999 -32v-43c-149.333 5.33301 -239 8 -269 8c-37.333 0 -120 -2.66699 -248 -8v43c38.667 0 69.167 4.33301 91.5 13s38.666 23.667 48.999 45s15.5 51 15.5 89v822h-164v41h164c0 77.333 3 142.333 9 195
s18.5 100.834 37.5 144.501s47.167 81.834 84.5 114.501c71.333 63.333 158 95 260 95c24.667 0 63.167 -3.5 115.5 -10.5s97.833 -10.5 136.5 -10.5c70.667 0 127.334 7.66699 170.001 23v-1015c40 5.33301 73.333 14.5 100 27.5s52 32.167 76 57.5l152 157
c43.333 45.333 65 83 65 113c0 24 -13.667 41.667 -41 53s-64 17 -110 17v41c94.667 -5.33301 171.667 -8 231 -8c64 0 123.333 2.66699 178 8v-41c-66.667 -6 -128 -38 -184 -96l-249 -262l370 -506c25.333 -34.667 48.333 -60.167 69 -76.5z" />
    <glyph glyph-name=".notdef" horiz-adv-x="1151" 
d="M123 0v1581h905v-1581h-905zM197 61h757v1459h-757v-1459z" />
    <glyph glyph-name="CR" unicode="&#xd;" horiz-adv-x="0" 
 />
    <glyph glyph-name="space" unicode=" " horiz-adv-x="510" 
 />
    <glyph glyph-name="exclam" unicode="!" horiz-adv-x="537" 
d="M237.5 734.5c-8.33301 110.333 -21 248.501 -38 414.501s-25.5 278.667 -25.5 338c0 39.333 8.66699 68.333 26 87s40 28 68 28c27.333 0 49.833 -9.5 67.5 -28.5s26.5 -47.833 26.5 -86.5c0 -59.333 -7.83301 -166.833 -23.5 -322.5s-28.167 -290.834 -37.5 -405.501
s-14 -234 -14 -358h-37c0 112 -4.16699 223.167 -12.5 333.5zM333.5 215.501c20.333 -11.667 36.333 -27.667 48 -48s17.5 -42.166 17.5 -65.499s-5.83301 -45 -17.5 -65s-27.667 -36 -48 -48s-42.166 -18 -65.499 -18s-45.166 6 -65.499 18s-36.333 28 -48 48
s-17.5 41.667 -17.5 65s5.83301 45.166 17.5 65.499s27.667 36.333 48 48s42.166 17.5 65.499 17.5s45.166 -5.83301 65.499 -17.5z" />
    <glyph glyph-name="quotedbl" unicode="&#x22;" horiz-adv-x="610" 
d="M375 1133c-11.333 66.667 -19.334 117.501 -24.001 152.501s-7 72.833 -7 113.5c0 28.667 7 51.5 21 68.5s31.667 26.167 53 27.5c21.333 0 38.833 -8.5 52.5 -25.5s20.5 -39.833 20.5 -68.5c0 -38.667 -2 -74.667 -6 -108s-12 -83.833 -24 -151.5
s-21.667 -128.834 -29 -183.501h-29c-7.33301 50 -16.666 108.333 -27.999 175zM151.999 1133c-11.333 66.667 -19.334 117.501 -24.001 152.501s-7 72.833 -7 113.5c0 28.667 7 51.5 21 68.5s31.667 26.167 53 27.5c21.333 0 38.833 -8.5 52.5 -25.5
s20.5 -39.833 20.5 -68.5c0 -38.667 -2 -74.667 -6 -108s-12 -83.833 -24 -151.5s-21.667 -128.834 -29 -183.501h-29c-7.33301 50 -16.666 108.333 -27.999 175z" />
    <glyph glyph-name="numbersign" unicode="#" horiz-adv-x="1305" 
d="M832 547h301l-9 -41h-300l-58 -299h-41l58 299h-342l-58 -299h-41l58 299h-302l8 41h302l66 342h-300l6 41h302l59 303h41l-59 -303h342l59 303h41l-59 -303h300l-6 -41h-302zM515 889l-66 -342h342l66 342h-342z" />
    <glyph glyph-name="dollar" unicode="$" horiz-adv-x="1071" 
d="M833.5 670.5c47 -39.667 84.333 -84.668 112 -135.001s41.5 -108.833 41.5 -175.5c0 -72.667 -14.5 -135.834 -43.5 -189.501s-69.167 -96.5 -120.5 -128.5s-110 -53.333 -176 -64v-248h-41v243c-17.333 -1.33301 -35 -2 -53 -2c-27.333 0 -53.333 1.33301 -78 4v-245
h-41v251c-54 10.667 -108 32.667 -162 66c-29.333 19.333 -52.333 29 -69 29c-12.667 0 -22.334 -7.16699 -29.001 -21.5s-12 -37.166 -16 -68.499h-47c5.33301 74.667 8 238.334 8 491.001h47c7.33301 -116.667 32.333 -215.167 75 -295.5s107 -132.5 193 -156.5v665
c-66.667 41.333 -122.167 81 -166.5 119s-79.833 82.333 -106.5 133s-40 109.334 -40 176.001c0 68.667 13.833 127.834 41.5 177.501s65 88.834 112 117.501s100.167 47 159.5 55v252h41v-248l31 1c36.667 0 70 -3 100 -9v256h41v-266c30.667 -10 67 -29 109 -57
c29.333 -19.333 52.333 -29 69 -29c12.667 0 22.334 7.16699 29.001 21.5s12 37.166 16 68.499h48c-7.33301 -75.333 -11 -214.666 -11 -417.999h-47c-6 85.333 -26.5 161.666 -61.5 228.999s-85.5 114.666 -151.5 141.999v-608
c77.333 -48.667 139.5 -92.834 186.5 -132.501zM524 1434c-16.667 0 -33 -1.33301 -49 -4v-521c-4.66699 3.33301 39 -23.667 131 -81v596c-26 6.66699 -53.333 10 -82 10zM317.5 1336.5c-29 -39.667 -43.5 -86.5 -43.5 -140.5c0 -55.333 13.5 -103 40.5 -143
s66.833 -78.667 119.5 -116v483c-48.667 -16 -87.5 -43.833 -116.5 -83.5zM539 11.999c23.333 0 45.667 2.33301 67 7v563c-30.667 21.333 -71 47 -121 77l-10 6v-648c20.667 -3.33301 42 -5 64 -5zM761.501 122.499c29 42.333 43.5 96.5 43.5 162.5
c0 54 -13.333 102.167 -40 144.5s-66 83.5 -118 123.5v-522c47.333 18.667 85.5 49.167 114.5 91.5z" />
    <glyph glyph-name="percent" unicode="%" horiz-adv-x="1520" 
d="M153 -86l1198 1774l39 -27l-1198 -1774zM537 1519.5c46 -26.333 81.668 -64.666 107.001 -114.999s38 -110.166 38 -179.499c0 -68 -13.167 -128 -39.5 -180s-62.5 -92.333 -108.5 -121s-98.333 -43 -157 -43c-60.667 0 -114 13.167 -160 39.5
s-81.667 64.666 -107 114.999s-38 109.833 -38 178.5c0 67.333 13.167 127.166 39.5 179.499s62.666 93 108.999 122s98.5 43.5 156.5 43.5c60.667 0 114 -13.167 160 -39.5zM215.001 1217c0 -97.333 14.667 -171.5 44 -222.5s70 -76.5 122 -76.5c104 0 156 101 156 303
c0 98.667 -14.333 173.5 -43 224.5s-69 76.5 -121 76.5c-105.333 0 -158 -101.667 -158 -305zM1299 609.5c46 -26.333 81.667 -64.667 107 -115s38 -110.166 38 -179.499c0 -67.333 -13.167 -127.166 -39.5 -179.499s-62.666 -92.833 -108.999 -121.5s-98.5 -43 -156.5 -43
c-61.333 0 -114.833 13.167 -160.5 39.5s-81.167 64.666 -106.5 114.999s-38 110.166 -38 179.499c0 67.333 13.167 127 39.5 179s62.666 92.5 108.999 121.5s98.5 43.5 156.5 43.5c60.667 0 114 -13.167 160 -39.5zM977.001 306.999c0 -97.333 14.5 -171.5 43.5 -222.5
s69.833 -76.5 122.5 -76.5c103.333 0 155 101 155 303c0 98.667 -14.167 173.5 -42.5 224.5s-68.5 76.5 -120.5 76.5c-105.333 0 -158 -101.667 -158 -305z" />
    <glyph glyph-name="ampersand" unicode="&#x26;" horiz-adv-x="1714" 
d="M1527 1445.5c45.333 -22.333 81.001 -54.332 107.001 -95.999s39 -90.834 39 -147.501c0 -65.333 -17.667 -122.166 -53 -170.499s-82.333 -87.166 -141 -116.499c-48 -22.667 -149.333 -58.334 -304 -107.001c76.667 -32 133.167 -78.167 169.5 -138.5
s54.5 -129.833 54.5 -208.5c0 -84.667 -25.167 -164.5 -75.5 -239.5s-122.833 -135.5 -217.5 -181.5s-205.334 -69 -332.001 -69c-119.333 0 -229.5 20.833 -330.5 62.5s-181.667 101.167 -242 178.5s-90.5 167 -90.5 269c0 90 22.333 166 67 228s95.5 109.167 152.5 141.5
s109.833 54.833 158.5 67.5c-66.667 28.667 -117.667 66.667 -153 114s-53 97.333 -53 150c0 45.333 13.333 87.5 40 126.5s66 70.333 118 94s114.667 35.5 188 35.5c91.333 0 162.333 -20.667 213 -62c25.333 -20.667 44.333 -43.5 57 -68.5s19 -49.167 19 -72.5
c0 -32.667 -11.667 -59 -35 -79s-50 -30 -80 -30c-29.333 0 -54.5 9.33301 -75.5 28s-31.5 43.667 -31.5 75c0 29.333 10.167 54.666 30.5 75.999s46.5 33.333 78.5 36c-6 18 -23.333 33.5 -52 46.5s-63.334 19.5 -104.001 19.5c-71.333 0 -128.666 -21.333 -171.999 -64
s-65 -102.667 -65 -180c0 -91.333 34.667 -169 104 -233c47.333 8 89.666 12 126.999 12c25.333 0 45.333 -4 60 -12s22 -19.667 22 -35c0 -12 -5.16699 -21.5 -15.5 -28.5s-24.166 -10.5 -41.499 -10.5c-20 0 -41.333 3.66699 -64 11s-41.667 14.5 -57 21.5
s-25 11.167 -29 12.5c-177.333 -52.667 -266 -164.667 -266 -336c0 -91.333 24 -170.333 72 -237s113.667 -117.5 197 -152.5s176.666 -52.5 279.999 -52.5c97.333 0 187 15.167 269 45.5s147.333 74 196 131s73 123.167 73 198.5c0 53.333 -14.5 108.166 -43.5 164.499
s-83.167 100.5 -162.5 132.5c-121.333 -38 -200 -64 -236 -78c-57.333 -22 -101.666 -47 -132.999 -75s-47 -62.333 -47 -103c0 -33.333 9.83301 -62.5 29.5 -87.5s44.167 -44 73.5 -57s57.666 -19.5 84.999 -19.5c23.333 0 48.833 4 76.5 12s43.167 19 46.5 33
c-26 4.66699 -48.5 15.334 -67.5 32.001s-28.5 40.667 -28.5 72c0 32 10.667 57.833 32 77.5s48 29.5 80 29.5c32.667 0 59 -10.167 79 -30.5s30 -47.166 30 -80.499c0 -36.667 -12.333 -68.334 -37 -95.001s-55.834 -46.834 -93.501 -60.501s-75.5 -20.5 -113.5 -20.5
c-41.333 0 -81.5 8.66699 -120.5 26s-71 44 -96 80s-37.5 80.667 -37.5 134c0 69.333 23.5 128.333 70.5 177s117.833 89.334 212.5 122.001c26.667 8.66699 78.167 23.834 154.5 45.501s141.833 41.167 196.5 58.5s104.334 36.333 149.001 57
c64.667 30.667 110.167 61.834 136.5 93.501s39.5 66.167 39.5 103.5c0 38 -11 72.833 -33 104.5s-51.167 56.667 -87.5 75s-75.5 27.5 -117.5 27.5c-34.667 0 -55 -6 -61 -18c18 -9.33301 32 -22.833 42 -40.5s15 -35.834 15 -54.501c0 -28 -11.333 -51.667 -34 -71
s-49.667 -29 -81 -29c-29.333 0 -54.666 8.83301 -75.999 26.5s-32 42.834 -32 75.501c0 33.333 11.333 60.666 34 81.999s51.167 36.666 85.5 45.999s69.5 14 105.5 14c56.667 0 107.667 -11.167 153 -33.5z" />
    <glyph glyph-name="quotesingle" unicode="'" horiz-adv-x="387" 
d="M152 1133c-11.333 66.667 -19.334 117.501 -24.001 152.501s-7 72.833 -7 113.5c0 28.667 7 51.5 21 68.5s31.667 26.167 53 27.5c21.333 0 38.833 -8.5 52.5 -25.5s20.5 -39.833 20.5 -68.5c0 -38.667 -2 -74.667 -6 -108s-12 -83.833 -24 -151.5
s-21.667 -128.834 -29 -183.501h-29c-7.33301 50 -16.666 108.333 -27.999 175z" />
    <glyph glyph-name="parenleft" unicode="(" horiz-adv-x="602" 
d="M207.5 1201c-78.333 -169.333 -117.5 -356.668 -117.5 -562.001s39.167 -392.666 117.5 -561.999s189.5 -319.333 333.5 -450l28 27c-111.333 130 -190.333 273.5 -237 430.5s-70 341.833 -70 554.5s23.333 397.5 70 554.5s125.667 300.5 237 430.5l-28 27
c-144 -130.667 -255.167 -280.667 -333.5 -450z" />
    <glyph glyph-name="parenright" unicode=")" horiz-adv-x="602" 
d="M394.5 1201c78.333 -169.333 117.5 -356.668 117.5 -562.001s-39.167 -392.666 -117.5 -561.999s-189.5 -319.333 -333.5 -450l-28 27c111.333 130 190.333 273.5 237 430.5s70 341.833 70 554.5s-23.333 397.5 -70 554.5s-125.667 300.5 -237 430.5l28 27
c144 -130.667 255.167 -280.667 333.5 -450z" />
    <glyph glyph-name="asterisk" unicode="*" horiz-adv-x="1008" 
d="M887 879c0 -12 -3.33301 -23.6709 -10 -35.0039c-12 -21.333 -31 -32 -57 -32c-22 0 -47 8 -75 24c-20.667 12 -41.5 27.333 -62.5 46s-49.667 46.334 -86 83.001l-86.5 86l32.5 -122c13.667 -50.667 23.5 -89.5 29.5 -116.5s9.33301 -51.5 10 -73.5
c-0.666992 -38 -8.66699 -65.833 -24 -83.5s-34 -26.5 -56 -26.5c-20 0 -37 8.66699 -51 26s-21 45.333 -21 84c0 23.333 2.83301 48.5 8.5 75.5s15.334 65.5 29.001 115.5l32.5 121l-89.5 -88.5c-37 -37.667 -65.833 -65.667 -86.5 -84s-40.667 -33.166 -60 -44.499
c-26.667 -15.333 -51 -23 -73 -23c-28.667 0 -49.334 11.667 -62.001 35c-6 10.667 -9 21 -9 31c0 31.333 22.667 60.666 68 87.999c20 11.333 42.667 21.166 68 29.499s63.166 19 113.499 32s91.166 24.167 122.499 33.5c-29.333 8.66699 -69.5 19.667 -120.5 33
s-89.667 24.333 -116 33s-49.5 18.334 -69.5 29.001c-43.333 26 -65 55.333 -65 88c0 12 3.33301 23.667 10 35c10.667 21.333 29.334 32 56.001 32c22 0 47 -8 75 -24c20.667 -12 41.334 -27.333 62.001 -46s49.167 -46.5 85.5 -83.5l88.5 -87.5
c-6.66699 28.667 -17 68.5 -31 119.5s-24 90.333 -30 118s-9 52.834 -9 75.501c0 38 7.33301 66 22 84s32.667 27 54 27c20.667 0 38.167 -9 52.5 -27s21.5 -46 21.5 -84c0 -23.333 -2.83301 -48.5 -8.5 -75.5s-15.334 -65.333 -29.001 -115l-32.5 -120.5l89.5 88
c37 37.333 65.667 65.333 86 84s40.166 33.667 59.499 45c28 15.333 52.333 23 73 23c29.333 0 50.333 -11.667 63 -35c6 -10.667 9 -21 9 -31c0 -32.667 -23 -62 -69 -88c-20 -11.333 -42.667 -21.166 -68 -29.499s-63.166 -19 -113.499 -32
s-91.166 -24.167 -122.499 -33.5l121.5 -33.5c51 -13.667 89.5 -24.667 115.5 -33s49 -17.833 69 -28.5c44 -25.333 66 -54.666 66 -87.999z" />
    <glyph glyph-name="plus" unicode="+" horiz-adv-x="1202" 
d="M1114 758v-62h-475v-481h-74v481h-477v62h477v483h74v-483h475z" />
    <glyph glyph-name="comma" unicode="," horiz-adv-x="535" 
d="M294 -161.5c30.667 38.333 45.998 77.166 45.998 116.499c0 16.667 -2 31 -6 43c-23.333 -18 -48.666 -27 -75.999 -27c-37.333 0 -68.5 11.833 -93.5 35.5s-37.5 55.5 -37.5 95.5c0 37.333 12.667 68.5 38 93.5s56.333 37.5 93 37.5c52.667 0 93 -21.667 121 -65
c23.333 -36 35 -81 35 -135c0 -68.667 -17.5 -130.167 -52.5 -184.5s-87.833 -98.166 -158.5 -131.499l-19 37c42.667 18 79.334 46.167 110.001 84.5z" />
    <glyph glyph-name="hyphen" unicode="-" horiz-adv-x="1022" 
d="M141 492v118h740v-118h-740z" />
    <glyph glyph-name="period" unicode="." horiz-adv-x="516" 
d="M323.5 215.5c20.333 -11.667 36.333 -27.667 48 -48s17.5 -42.166 17.5 -65.499s-5.83301 -45 -17.5 -65s-27.667 -36 -48 -48s-42.166 -18 -65.499 -18s-45.166 6 -65.499 18s-36.333 28 -48 48s-17.5 41.667 -17.5 65s5.83301 45.166 17.5 65.499s27.667 36.333 48 48
s42.166 17.5 65.499 17.5s45.166 -5.83301 65.499 -17.5z" />
    <glyph glyph-name="slash" unicode="/" horiz-adv-x="762" 
d="M70 -29l557 1508h67l-557 -1508h-67z" />
    <glyph glyph-name="zero" unicode="0" horiz-adv-x="1229" 
d="M880.5 1016c75 -44.667 133.665 -107.669 175.998 -189.002s63.5 -175.333 63.5 -282c0 -108.667 -21.833 -206.667 -65.5 -294s-104.667 -155.833 -183 -205.5s-168.166 -74.5 -269.499 -74.5c-94.667 0 -179.667 22.333 -255 67s-134.333 107.834 -177 189.501
s-64 176.5 -64 284.5s21.5 205.333 64.5 292s103.833 154.834 182.5 204.501s169.334 74.5 272.001 74.5c95.333 0 180.5 -22.333 255.5 -67zM449.498 983.998c-45.667 -42 -81.167 -102.834 -106.5 -182.501s-38 -174.167 -38 -283.5c0 -117.333 14 -214.166 42 -290.499
s65.833 -132 113.5 -167s101.167 -52.5 160.5 -52.5c58.667 0 110.834 21.167 156.501 63.5s81.167 103.5 106.5 183.5s38 174.667 38 284c0 116.667 -14 213 -42 289s-65.833 131.5 -113.5 166.5s-101.167 52.5 -160.5 52.5c-58.667 0 -110.834 -21 -156.501 -63z" />
    <glyph glyph-name="one" unicode="1" horiz-adv-x="758" 
d="M537.5 109c13 -24 33.666 -40.999 61.999 -50.999s66.833 -15 115.5 -15v-43c-149.333 5.33301 -243.666 8 -282.999 8c-42 0 -147 -2.66699 -315 -8v43c72.667 0 127 12.167 163 36.5s54 68.166 54 131.499v496c0 66 -6.83301 114.333 -20.5 145s-36.667 51 -69 61
s-81.833 15 -148.5 15v45c100 2 182.5 10.833 247.5 26.5s123.167 41.5 174.5 77.5v-866c0 -44 6.5 -78 19.5 -102z" />
    <glyph glyph-name="two" unicode="2" horiz-adv-x="981" 
d="M249 1011c66 48 149.667 72.001 251 72.001c95.333 0 170.333 -22.5 225 -67.5s82 -108.5 82 -190.5c0 -80.667 -26.667 -155 -80 -223s-130.666 -147.833 -231.999 -239.5s-168.666 -159.834 -201.999 -204.501h416c37.333 0 65 3.16699 83 9.5s30.667 16.5 38 30.5
s12.666 35.333 15.999 64h35c0 -125.333 2.66699 -216 8 -272c-30.667 6.66699 -132.334 10 -305.001 10h-480v35c22.667 24.667 83.667 83.5 183 176.5s177.666 185.5 234.999 277.5s86 189 86 291c0 147.333 -68.333 221 -205 221c-111.333 0 -202.666 -64 -273.999 -192
l-33 18c36 74.667 87 136 153 184z" />
    <glyph glyph-name="three" unicode="3" horiz-adv-x="924" 
d="M465 1083c56.667 0 107.333 -9.33691 152 -28.0039s79.667 -45.667 105 -81s38 -76.666 38 -123.999c0 -50.667 -14.167 -98.334 -42.5 -143.001s-65.666 -83.5 -111.999 -116.5s-96.5 -59.167 -150.5 -78.5c66.667 -1.33301 128.667 -13.666 186 -36.999
s103.833 -58 139.5 -104s53.5 -102.667 53.5 -170c0 -99.333 -37.667 -187.833 -113 -265.5s-171.833 -137.834 -289.5 -180.501s-236.167 -64 -355.5 -64v37c96.667 2 188 21.833 274 59.5s155.667 91.834 209 162.501s80 154.334 80 251.001
c0 52.667 -8.83301 100.167 -26.5 142.5s-43 76 -76 101s-71.167 39.167 -114.5 42.5c-6 -2.66699 -16.667 -7 -32 -13s-28 -10.333 -38 -13s-18.667 -4 -26 -4c-22 0 -33 8.66699 -33 26c0 12 5 21.5 15 28.5s22.667 10.5 38 10.5c8.66699 0 20 -1.16699 34 -3.5
s26.667 -3.83301 38 -4.5c53.333 40.667 92.833 86.334 118.5 137.001s38.5 103.334 38.5 158.001c0 62.667 -15.5 109 -46.5 139s-74.833 45 -131.5 45c-57.333 0 -109.333 -15.167 -156 -45.5s-85.334 -75.833 -116.001 -136.5l-35 16c78.667 170.667 203.667 256 375 256
z" />
    <glyph glyph-name="four" unicode="4" horiz-adv-x="1012" 
d="M938 100c-23.333 6 -91.666 9.33301 -204.999 10v-399h-164v400h-534v43l665 929h33v-835h25c37.333 0 65 3.16699 83 9.5s30.667 16.5 38 30.5s12.666 35.333 15.999 64h35c0 -114.667 2.66699 -198.667 8 -252zM569 832l-413 -584h413v584z" />
    <glyph glyph-name="five" unicode="5" horiz-adv-x="850" 
d="M692 858c-29.333 6.66699 -123.997 10 -283.997 10h-218l-24 -395c37.333 19.333 74 34.5 110 45.5s79.333 16.5 130 16.5c80 0 147 -13.5 201 -40.5s94.333 -64.333 121 -112s40 -102.167 40 -163.5c0 -101.333 -33.167 -191.666 -99.5 -270.999
s-151.833 -141 -256.5 -185s-211.334 -66 -320.001 -66v37c83.333 0.666992 161.666 18.667 234.999 54s132.666 88 177.999 158s68 154.333 68 253c0 86.667 -22.333 154 -67 202s-108.334 72 -191.001 72c-33.333 0 -61.666 -2.66699 -84.999 -8s-51 -14.333 -83 -27
l-20 13l39 610c27.333 -5.33301 64 -8 110 -8h232c37.333 0 65 3.16699 83 9.5s30.5 16.5 37.5 30.5s12.5 35.333 16.5 64h39c0 -138.667 2.66699 -238.334 8 -299.001z" />
    <glyph glyph-name="six" unicode="6" horiz-adv-x="1059" 
d="M590.5 1329.5c-66.333 -47 -124.837 -119.169 -175.504 -216.502s-83 -225.333 -97 -384c30.667 58 73.667 100.5 129 127.5s110.333 40.5 165 40.5c65.333 0 126.166 -17.667 182.499 -53s101.5 -86.666 135.5 -153.999s51 -147 51 -239
c0 -99.333 -20.167 -185.333 -60.5 -258s-94.666 -127.834 -162.999 -165.501s-144.166 -56.5 -227.499 -56.5c-86.667 0 -161.167 22.833 -223.5 68.5s-110.166 112.167 -143.499 199.5s-50 192 -50 314c0 191.333 36.333 353.333 109 486s161.834 234.334 267.501 305.001
s211.5 116.334 317.5 137.001l8 -41c-83.333 -26.667 -158.166 -63.5 -224.499 -110.5zM666.996 55.998c34.667 29.333 62.499 75.666 83.499 138.999s31.5 143.666 31.5 240.999c0 138.667 -20.333 240.334 -61 305.001s-94 97 -160 97c-48 0 -95.5 -14.167 -142.5 -42.5
s-81.833 -73.166 -104.5 -134.499c-2 -33.333 -3 -68 -3 -104c0 -135.333 11.5 -243.5 34.5 -324.5s52.5 -138 88.5 -171s75 -49.5 117 -49.5c42.667 0 81.334 14.667 116.001 44z" />
    <glyph glyph-name="seven" unicode="7" horiz-adv-x="831" 
d="M679.5 737c-70.333 -134.667 -124.667 -262.167 -163 -382.5s-56.833 -250.833 -55.5 -391.5c0 -24 1.33301 -53.833 4 -89.5s4 -59.834 4 -72.501c0 -30.667 -8.83301 -55.667 -26.5 -75s-40.834 -29 -69.501 -29c-30 0 -52.833 11 -68.5 33s-23.5 49.333 -23.5 82
c0 150 29.167 292 87.5 426s126.666 265.667 204.999 395s127.5 212 147.5 248h-485c-37.333 0 -65.166 -3.16699 -83.499 -9.5s-31 -16.5 -38 -30.5s-12.5 -35.667 -16.5 -65h-35c0 134.667 -2.66699 230.334 -8 287.001c30.667 -6.66699 132.334 -10 305.001 -10h455v-43
c-20 -47.333 -65.167 -138.333 -135.5 -273z" />
    <glyph glyph-name="eight" unicode="8" horiz-adv-x="1065" 
d="M804.5 681c43 -38 79.834 -83.6689 110.501 -137.002s46 -114 46 -182c0 -76.667 -19 -144.667 -57 -204s-90.667 -105.333 -158 -138s-143.333 -49 -228 -49c-74.667 0 -143.167 13 -205.5 39s-112.333 64.833 -150 116.5s-56.5 114.5 -56.5 188.5
c0 94.667 30 179 90 253s139.667 135.333 239 184c-54.667 44 -100.334 85 -137.001 123s-66.5 80.667 -89.5 128s-34.5 99.333 -34.5 156c0 62.667 16.5 118.167 49.5 166.5s78 86 135 113s120.5 40.5 190.5 40.5c62.667 0 119.667 -10.833 171 -32.5s92 -53.667 122 -96
s45 -93.166 45 -152.499c0 -73.333 -22.5 -140.666 -67.5 -201.999s-109.167 -120 -192.5 -176c75.333 -54.667 134.5 -101 177.5 -139zM428.001 1415c-29.333 -18 -52.333 -43.5 -69 -76.5s-25 -71.5 -25 -115.5c0 -54 11.5 -103 34.5 -147s52.833 -83.5 89.5 -118.5
s82.667 -73.167 138 -114.5c84.667 80.667 127 190 127 328c0 82.667 -17.167 148.5 -51.5 197.5s-82.833 73.5 -145.5 73.5c-36 0 -68.667 -9 -98 -27zM658.501 39.498c39 21 70 51.665 93 91.998s34.5 88.5 34.5 144.5c0 63.333 -14.667 121 -44 173
s-64.166 96.833 -104.499 134.5s-97.5 85.834 -171.5 144.501c-119.333 -87.333 -179 -214.666 -179 -381.999c0 -96.667 19.667 -177.167 59 -241.5s100.666 -96.5 183.999 -96.5c46.667 0 89.5 10.5 128.5 31.5z" />
    <glyph glyph-name="nine" unicode="9" horiz-adv-x="1042" 
d="M453.5 -171.5c63 38.333 119.668 96.335 170.001 174.002s85.5 179.167 105.5 304.5c-32.667 -51.333 -75.334 -89 -128.001 -113s-105 -36 -157 -36c-64.667 0 -125.167 17.667 -181.5 53s-101.5 86.666 -135.5 153.999s-51 147 -51 239
c0 99.333 20.167 185.166 60.5 257.499s94.666 127.333 162.999 165s143.833 56.5 226.5 56.5c86.667 0 161.334 -21.167 224.001 -63.5s110.667 -104 144 -185s50 -178.167 50 -291.5c0 -174 -36.5 -321.667 -109.5 -443s-162.5 -214.5 -268.5 -279.5
s-211.333 -106.167 -316 -123.5l-8 41c78 22 148.5 52.167 211.5 90.5zM633.001 255.502c45.333 25.667 80 66.4971 104 122.497c5.33301 50.667 8 104.334 8 161.001c0 124.667 -11.5 224.5 -34.5 299.5s-52.333 127.667 -88 158s-74.5 45.5 -116.5 45.5
c-42.667 0 -81.5 -14.667 -116.5 -44s-63 -75.666 -84 -138.999s-31.5 -143.666 -31.5 -240.999c0 -138.667 20.5 -240.167 61.5 -304.5s94.5 -96.5 160.5 -96.5c46 0 91.667 12.833 137 38.5z" />
    <glyph glyph-name="colon" unicode=":" horiz-adv-x="545" 
d="M337.5 215.5c20.333 -11.667 36.333 -27.667 48 -48s17.5 -42.166 17.5 -65.499s-5.83301 -45 -17.5 -65s-27.667 -36 -48 -48s-42.166 -18 -65.499 -18s-45.166 6 -65.499 18s-36.333 28 -48 48s-17.5 41.667 -17.5 65s5.83301 45.166 17.5 65.499s27.667 36.333 48 48
s42.166 17.5 65.499 17.5s45.166 -5.83301 65.499 -17.5zM337.5 1063.5c20.333 -11.667 36.333 -27.667 48 -48s17.5 -42.166 17.5 -65.499s-5.83301 -45 -17.5 -65s-27.667 -36 -48 -48s-42.166 -18 -65.499 -18s-45.166 6 -65.499 18s-36.333 28 -48 48
s-17.5 41.667 -17.5 65s5.83301 45.166 17.5 65.499s27.667 36.333 48 48s42.166 17.5 65.499 17.5s45.166 -5.83301 65.499 -17.5z" />
    <glyph glyph-name="semicolon" unicode=";" horiz-adv-x="584" 
d="M317 -161.5c30.667 38.333 45.998 77.166 45.998 116.499c0 16.667 -2 31 -6 43c-23.333 -18 -48.666 -27 -75.999 -27c-37.333 0 -68.5 11.833 -93.5 35.5s-37.5 55.5 -37.5 95.5c0 37.333 12.667 68.5 38 93.5s56.333 37.5 93 37.5c52.667 0 93 -21.667 121 -65
c23.333 -36 35 -81 35 -135c0 -68.667 -17.5 -130.167 -52.5 -184.5s-87.833 -98.166 -158.5 -131.499l-19 37c42.667 18 79.334 46.167 110.001 84.5zM360.498 1063.5c20.333 -11.667 36.333 -27.667 48 -48s17.5 -42.166 17.5 -65.499s-5.83301 -45 -17.5 -65
s-27.667 -36 -48 -48s-42.166 -18 -65.499 -18s-45.166 6 -65.499 18s-36.333 28 -48 48s-17.5 41.667 -17.5 65s5.83301 45.166 17.5 65.499s27.667 36.333 48 48s42.166 17.5 65.499 17.5s45.166 -5.83301 65.499 -17.5z" />
    <glyph glyph-name="less" unicode="&#x3c;" horiz-adv-x="1245" 
d="M256 727l838 -391l-35 -74l-998 465l998 465l35 -74z" />
    <glyph glyph-name="equal" unicode="=" horiz-adv-x="1325" 
d="M150 840v61h1026v-61h-1026zM150 553v61h1026v-61h-1026z" />
    <glyph glyph-name="greater" unicode="&#x3e;" horiz-adv-x="1245" 
d="M989 727l-838 -391l35 -74l998 465l-998 465l-35 -74z" />
    <glyph glyph-name="question" unicode="?" horiz-adv-x="940" 
d="M569 905.5c46.667 40.333 78.1631 83.6699 94.4961 130.003s24.5 99.166 24.5 158.499c0 124 -25.5 216.167 -76.5 276.5s-121.167 90.5 -210.5 90.5c-39.333 0 -77.166 -5.66699 -113.499 -17s-65.166 -30.333 -86.499 -57c26 -5.33301 46.833 -17.166 62.5 -35.499
s23.5 -41.5 23.5 -69.5c0 -33.333 -10.833 -60 -32.5 -80s-48.5 -30 -80.5 -30c-31.333 0 -57.166 10.167 -77.499 30.5s-30.5 46.166 -30.5 77.499c0 55.333 32 104.666 96 147.999c72 49.333 164.667 74 278 74c85.333 0 160.333 -14.833 225 -44.5
s115 -72.334 151 -128.001s54 -121.167 54 -196.5c0 -112 -41 -206.667 -123 -284s-194.333 -134.333 -337 -171v-299h-41v318c86.667 32 153.334 68.167 200.001 108.5zM456.496 215.504c20.333 -11.667 36.333 -27.667 48 -48s17.5 -42.166 17.5 -65.499
s-5.83301 -45 -17.5 -65s-27.667 -36 -48 -48s-42.166 -18 -65.499 -18s-45.166 6 -65.499 18s-36.333 28 -48 48s-17.5 41.667 -17.5 65s5.83301 45.166 17.5 65.499s27.667 36.333 48 48s42.166 17.5 65.499 17.5s45.166 -5.83301 65.499 -17.5z" />
    <glyph glyph-name="at" unicode="@" horiz-adv-x="1798" 
d="M999.5 -297.5c-75.667 -21.667 -157.499 -32.502 -245.499 -32.502c-130.667 0 -244.834 22.167 -342.501 66.5s-174 113 -229 206s-82.5 209.833 -82.5 350.5c0 182 44.5 356 133.5 522s209.333 299.667 361 401s316.834 152 495.501 152
c123.333 0 232.833 -19.833 328.5 -59.5s171.334 -101.5 227.001 -185.5s83.5 -190 83.5 -318c0 -146 -30.333 -276.167 -91 -390.5s-137.334 -203.166 -230.001 -266.499s-183.667 -95 -273 -95c-98.667 0 -148 44.333 -148 133c0 22 2.33301 44 7 66s9.5 40.833 14.5 56.5
s8.16699 26.167 9.5 31.5v2c-38.667 -99.333 -83.334 -172.333 -134.001 -219s-111.334 -70 -182.001 -70c-73.333 0 -126.666 22.5 -159.999 67.5s-50 105.167 -50 180.5c0 101.333 24.333 205 73 311s111 193.667 187 263s151.667 104 227 104
c83.333 0 132.666 -36.333 147.999 -109l16 80c78 0 139.333 9.66699 184 29l-172 -752c-8.66699 -28 -13 -51.333 -13 -70c0 -19.333 4.83301 -33 14.5 -41s24.834 -12 45.501 -12c58 0 125.667 28.833 203 86.5s143.833 139.834 199.5 246.501s83.5 230 83.5 370
c0 121.333 -26.5 221 -79.5 299s-124.167 135 -213.5 171s-190.333 54 -303 54c-164.667 0 -320.167 -47.5 -466.5 -142.5s-263.666 -222 -351.999 -381s-132.5 -329.167 -132.5 -510.5c0 -136 26 -248 78 -336s124 -152.333 216 -193s199 -61 321 -61
c157.333 0 298 37 422 111l14 -27c-52.667 -37.333 -116.834 -66.833 -192.501 -88.5zM1077.5 901.998c-21 20 -51.168 30 -90.501 30c-56.667 0 -109.667 -31 -159 -93s-88.666 -141.167 -117.999 -237.5s-44 -192.5 -44 -288.5c0 -132 35.333 -198 106 -198
c34.667 0 70 17.667 106 53s70.167 86.333 102.5 153s59.5 145 81.5 235l51 249c-2.66699 44.667 -14.5 77 -35.5 97z" />
    <glyph glyph-name="A" unicode="A" horiz-adv-x="1290" 
d="M1303 41l0.000976562 -40.998c-56 4 -129.333 6 -220 6c-116.667 0 -204 -2 -262 -6v41c52 2 89.167 8.33301 111.5 19s33.5 29.667 33.5 57c0 23.333 -8 55.333 -24 96l-126 336h-494l-84 -217c-27.333 -69.333 -41 -125.333 -41 -168c0 -43.333 14.5 -74.333 43.5 -93
s73.833 -28.667 134.5 -30v-41c-78 4 -156.667 6 -236 6c-61.333 0 -112.333 -2 -153 -6v41c68 15.333 121.667 74.666 161 177.999l482 1241h33l499 -1288c33.333 -84.667 80.666 -128.334 141.999 -131.001zM572.001 1201l-235 -611h464z" />
    <glyph glyph-name="B" unicode="B" horiz-adv-x="1276" 
d="M1088 636.5c64 -66.333 96 -146.164 96 -239.497c0 -77.333 -19.833 -146 -59.5 -206s-96.5 -106.833 -170.5 -140.5s-161.333 -50.5 -262 -50.5c-27.333 0 -75.333 1 -144 3s-138 3 -208 3c-112 0 -196.667 -2 -254 -6v41c49.333 2 85.166 7.33301 107.499 16
s37.666 24.667 45.999 48s12.5 60.666 12.5 111.999v1016c0 51.333 -4.16699 88.666 -12.5 111.999s-23.666 39.333 -45.999 48s-58.166 14 -107.499 16v41c56.667 -4 140 -6 250 -6c53.333 0 112.166 0.666992 176.499 2s108.5 2 132.5 2c93.333 0 172.333 -13.5 237 -40.5
s113.334 -64.667 146.001 -113s49 -104.5 49 -168.5c0 -78.667 -24.833 -149.334 -74.5 -212.001s-128.5 -110.667 -236.5 -144v-4c150.667 -20 258 -63.167 322 -129.5zM814 861.002c44.667 60.667 67 141.669 67 243.002c0 102.667 -22.667 179.167 -68 229.5
s-118.333 75.5 -219 75.5c-42.667 0 -74.667 -4.83301 -96 -14.5s-36 -26.834 -44 -51.501s-12 -61.334 -12 -110.001v-463h138c111.333 0 189.333 30.333 234 91zM454 108.004c8 -23.333 22.667 -39.334 44 -48.001s54 -13 98 -13c255.333 0 383 119.667 383 359
c0 107.333 -29.167 189 -87.5 245s-150.833 84 -277.5 84h-172v-518c0 -49.333 4 -85.666 12 -108.999z" />
    <glyph glyph-name="C" unicode="C" horiz-adv-x="1409" 
d="M1212.5 92.5c-7.66699 19 -18.835 28.501 -33.502 28.501c-10.667 0 -24.667 -5.66699 -42 -17c-40.667 -28.667 -78.167 -52.167 -112.5 -70.5s-73.5 -33.333 -117.5 -45s-93.667 -17.5 -149 -17.5c-130 0 -243.833 29.333 -341.5 88s-173.334 143.834 -227.001 255.501
s-80.5 244.5 -80.5 398.5c0 150.667 27.667 284 83 400s132.333 206 231 270s211 96 337 96c81.333 0 150.833 -11.667 208.5 -35s113.834 -56 168.501 -98c14.667 -12 28 -18 40 -18c28 0 45.333 40.667 52 122h47c-5.33301 -88.667 -8 -245.667 -8 -471h-47
c-10 61.333 -19.167 109 -27.5 143s-18.166 62.833 -29.499 86.5s-26.666 48.167 -45.999 73.5c-41.333 53.333 -93.666 93.333 -156.999 120s-131.666 40 -204.999 40c-88.667 0 -166.334 -29.333 -233.001 -88s-118.334 -142.334 -155.001 -251.001s-55 -236 -55 -382
c0 -148.667 20 -276.334 60 -383.001s95 -187.667 165 -243s149.333 -83 238 -83c68 0 134.333 13 199 39s115 65 151 117c28 37.333 48 77.833 60 121.5s23.667 111.167 35 202.5h47c0 -235.333 2.66699 -399.333 8 -492h-47c-3.33301 42.667 -8.83301 73.5 -16.5 92.5z
" />
    <glyph glyph-name="D" unicode="D" horiz-adv-x="1481" 
d="M286 1443l50 1.00293c188 4 291 6 309 6c241.333 0 422.166 -60.333 542.499 -181s180.5 -296.667 180.5 -528c0 -148.667 -29.167 -278.834 -87.5 -390.501s-143.166 -198 -254.499 -259s-244.333 -91.5 -399 -91.5c-18.667 0 -63.167 1 -133.5 3s-121.5 3 -153.5 3
c-112 0 -196.667 -2 -254 -6v41c49.333 2 85.166 7.33301 107.499 16s37.666 24.667 45.999 48s12.5 60.666 12.5 111.999v1016c0 51.333 -4.16699 88.666 -12.5 111.999s-23.666 39.333 -45.999 48s-58.166 14 -107.499 16v41c73.333 -4.66699 140 -7 200 -7zM454 102.503
c8 -24.333 22.832 -41.332 44.499 -50.999s54.167 -14.5 97.5 -14.5c145.333 0 259.333 26.333 342 79s140.834 129.5 174.501 230.5s50.5 229.833 50.5 386.5c0 157.333 -18.333 285.5 -55 384.5s-96.5 173 -179.5 222s-194.5 73.5 -334.5 73.5
c-42.667 0 -74.667 -4.83301 -96 -14.5s-36 -26.834 -44 -51.501s-12 -61.334 -12 -110.001v-1024c0 -49.333 4 -86.166 12 -110.499z" />
    <glyph glyph-name="E" unicode="E" horiz-adv-x="1247" 
d="M1135 262c0 -77.333 4.66406 -164.668 13.9971 -262.001c-92.667 4 -249 6 -469 6c-262 0 -460 -2 -594 -6v41c49.333 2 85.166 7.33301 107.499 16s37.666 24.667 45.999 48s12.5 60.666 12.5 111.999v1016c0 51.333 -4.16699 88.666 -12.5 111.999
s-23.666 39.333 -45.999 48s-58.166 14 -107.499 16v41c134 -4 332 -6 594 -6c200.667 0 343.334 2 428.001 6c-9.33301 -89.333 -14 -170 -14 -242c0 -53.333 2 -95.666 6 -126.999h-47c-10 88.667 -22.5 154.667 -37.5 198s-40.333 74.833 -76 94.5
s-89.5 29.5 -161.5 29.5h-170c-49.333 0 -85.166 -4 -107.499 -12s-37.666 -23.5 -45.999 -46.5s-12.5 -60.167 -12.5 -111.5v-483h136c68.667 0 114.334 20.5 137.001 61.5s36.667 82.833 42 125.5s9 70.334 11 83.001h47c-4.66699 -67.333 -7 -131.666 -7 -192.999l1 -98
c0 -69.333 4 -166.333 12 -291h-47c-1.33301 9.33301 -5.16602 42.333 -11.499 99s-24.833 99.5 -55.5 128.5s-73.667 43.5 -129 43.5h-136v-492c0 -51.333 4.16699 -88.5 12.5 -111.5s23.666 -38.5 45.999 -46.5s58.166 -12 107.499 -12h150
c85.333 0 150.166 11.333 194.499 34s76.333 59 96 109s34.834 123.333 45.501 220h47c-4 -36.667 -6 -86 -6 -148z" />
    <glyph glyph-name="F" unicode="F" horiz-adv-x="1165" 
d="M680 1444c200.667 0 343.329 1.99805 427.996 5.99805c-9.33301 -97.333 -14 -184.666 -14 -261.999c0 -68.667 2 -124.667 6 -168h-47c-10.667 106 -24.334 184.5 -41.001 235.5s-45.5 88.333 -86.5 112s-103.833 35.5 -188.5 35.5h-129
c-49.333 0 -85.166 -4 -107.499 -12s-37.666 -23.5 -45.999 -46.5s-12.5 -60.167 -12.5 -111.5v-504h150c68.667 0 114.334 20.5 137.001 61.5s36.667 82.833 42 125.5s9 70.334 11 83.001h47c-4.66699 -66.667 -7 -131 -7 -193l1 -97c0 -72 4.33301 -169 13 -291h-48
c-1.33301 9.33301 -5.16602 42.333 -11.499 99s-24.833 99.334 -55.5 128.001s-73.667 43 -129 43h-150v-471c0 -51.333 5.33301 -88.666 16 -111.999s30 -39.333 58 -48s72.333 -14 133 -16v-41c-70.667 4 -171 6 -301 6c-117.333 0 -204.666 -2 -261.999 -6v41
c49.333 2 85.166 7.33301 107.499 16s37.666 24.667 45.999 48s12.5 60.666 12.5 111.999v1016c0 51.333 -4.16699 88.666 -12.5 111.999s-23.666 39.333 -45.999 48s-58.166 14 -107.499 16v41c134 -4 332 -6 594 -6z" />
    <glyph glyph-name="G" unicode="G" horiz-adv-x="1440" 
d="M1208 79.5c-10 25 -23 37.5 -39 37.5c-8.66699 0 -17 -2.16699 -25 -6.5s-22 -13.833 -42 -28.5c-48 -36.667 -97.5 -64.334 -148.5 -83.001s-108.167 -28 -171.5 -28c-140 0 -260.333 29 -361 87s-177.5 141.667 -230.5 251s-79.5 239.666 -79.5 390.999
c0 156.667 28.167 293.834 84.5 411.501s134.5 208.334 234.5 272.001s213.333 95.5 340 95.5c55.333 0 104.5 -5.83301 147.5 -17.5s80.333 -26.5 112 -44.5s68.167 -41.667 109.5 -71c17.333 -14 31 -21 41 -21c26 0 43 41.667 51 125h47
c-5.33301 -88.667 -8 -245.667 -8 -471h-47c-12 73.333 -25 133.5 -39 180.5s-35.333 87.833 -64 122.5c-40 49.333 -91.667 88.333 -155 117s-129.666 43 -198.999 43c-90 0 -169 -29.333 -237 -88s-120.667 -142.167 -158 -250.5s-56 -235.166 -56 -380.499
c0 -164 17.5 -298.333 52.5 -403s88.333 -182.167 160 -232.5s163.5 -75.5 275.5 -75.5c82 0 153 21.333 213 64c24.667 16.667 40.667 32.667 48 48s11 36.666 11 63.999v197c0 56.667 -5.33301 98.167 -16 124.5s-30 44.333 -58 54s-72.333 15.834 -133 18.501v41
c67.333 -4.66699 163.666 -7 288.999 -7c96 0 167 2.33301 213 7v-41c-32 -2.66699 -54.833 -8.16699 -68.5 -16.5s-23 -23.833 -28 -46.5s-7.5 -60.334 -7.5 -113.001v-406h-41c-1.33301 28 -7 54.5 -17 79.5z" />
    <glyph glyph-name="H" unicode="H" horiz-adv-x="1550" 
d="M1356.5 1393c-22.333 -8.66699 -37.666 -24.667 -45.999 -48s-12.5 -60.666 -12.5 -111.999v-1016c0 -51.333 4.16699 -88.666 12.5 -111.999s23.666 -39.333 45.999 -48s58.166 -14 107.499 -16v-41c-56.667 4 -144 6 -262 6c-109.333 0 -196 -2 -260 -6v41
c49.333 2 85.166 7.33301 107.499 16s37.666 24.667 45.999 48s12.5 60.666 12.5 111.999v492h-666v-492c0 -51.333 4.16699 -88.666 12.5 -111.999s23.666 -39.333 45.999 -48s58.166 -14 107.499 -16v-41c-62.667 4 -149.334 6 -260.001 6
c-117.333 0 -204.666 -2 -261.999 -6v41c49.333 2 85.166 7.33301 107.499 16s37.666 24.667 45.999 48s12.5 60.666 12.5 111.999v1016c0 51.333 -4.16699 88.666 -12.5 111.999s-23.666 39.333 -45.999 48s-58.166 14 -107.499 16v41c56.667 -4 144 -6 262 -6
c110.667 0 197.334 2 260.001 6v-41c-49.333 -2 -85.166 -7.33301 -107.499 -16s-37.666 -24.667 -45.999 -48s-12.5 -60.666 -12.5 -111.999v-483h666v483c0 51.333 -4.16699 88.666 -12.5 111.999s-23.666 39.333 -45.999 48s-58.166 14 -107.499 16v41
c64 -4 150.667 -6 260 -6c117.333 0 204.666 2 261.999 6v-41c-49.333 -2 -85.166 -7.33301 -107.499 -16z" />
    <glyph glyph-name="I" unicode="I" 
d="M500.5 1393c-22.333 -8.66699 -37.667 -24.667 -46 -48s-12.5 -60.666 -12.5 -111.999v-1016c0 -51.333 4.16699 -88.666 12.5 -111.999s23.666 -39.333 45.999 -48s58.166 -14 107.499 -16v-41c-62.667 4 -149.334 6 -260.001 6c-117.333 0 -204.666 -2 -261.999 -6v41
c49.333 2 85.166 7.33301 107.499 16s37.666 24.667 45.999 48s12.5 60.666 12.5 111.999v1016c0 51.333 -4.16699 88.666 -12.5 111.999s-23.666 39.333 -45.999 48s-58.166 14 -107.499 16v41c56.667 -4 144 -6 262 -6c110.667 0 197.334 2 260.001 6v-41
c-49.333 -2 -85.166 -7.33301 -107.499 -16z" />
    <glyph glyph-name="J" unicode="J" horiz-adv-x="668" 
d="M488.5 1393c-22.333 -8.66699 -37.668 -24.668 -46.001 -48.001s-12.5 -60.666 -12.5 -111.999v-750c0 -116 -2.16699 -218.833 -6.5 -308.5s-13.833 -164.834 -28.5 -225.501c-15.333 -64 -42.333 -121.167 -81 -171.5s-87.834 -90 -147.501 -119
s-127.5 -43.5 -203.5 -43.5c-66.667 0 -124 12.333 -172 37c-65.333 34 -98 81 -98 141c0 32 10.167 58.167 30.5 78.5s46.166 30.5 77.499 30.5c32.667 0 59.667 -10 81 -30s32 -47 32 -81c0 -28.667 -7.66699 -51.834 -23 -69.501s-36.333 -29.167 -63 -34.5
c12 -12 30.833 -20.5 56.5 -25.5s50.5 -7.5 74.5 -7.5c59.333 0 110.5 15.333 153.5 46s73.833 73.334 92.5 128.001c14 42.667 23.333 95.834 28 159.501s7 166.834 7 309.501v936c0 51.333 -4.16699 88.666 -12.5 111.999s-23.666 39.333 -45.999 48
s-58.166 14 -107.499 16v41c56.667 -4 144 -6 262 -6c109.333 0 196 2 260 6v-41c-49.333 -2 -85.166 -7.33301 -107.499 -16z" />
    <glyph glyph-name="K" unicode="K" horiz-adv-x="1341" 
d="M1235 85c28 -19.333 62.668 -33.999 104.001 -43.999v-41c-64.667 4 -146.334 6 -245.001 6c-74 0 -144.333 -2 -211 -6v41c32 1.33301 55.667 5.33301 71 12s23 17 23 31c0 12.667 -7 29 -21 49l-299 451c-27.333 42 -51 73 -71 93s-40.5 33.833 -61.5 41.5
s-48.5 12.5 -82.5 14.5v-516c0 -51.333 4.16699 -88.666 12.5 -111.999s23.666 -39.333 45.999 -48s58.166 -14 107.499 -16v-41c-62.667 4 -149.334 6 -260.001 6c-117.333 0 -204.666 -2 -261.999 -6v41c49.333 2 85.166 7.33301 107.499 16s37.666 24.667 45.999 48
s12.5 60.666 12.5 111.999v1016c0 51.333 -4.16699 88.666 -12.5 111.999s-23.666 39.333 -45.999 48s-58.166 14 -107.499 16v41c56.667 -4 144 -6 262 -6c110.667 0 197.334 2 260.001 6v-41c-49.333 -2 -85.166 -7.33301 -107.499 -16s-37.666 -24.667 -45.999 -48
s-12.5 -60.666 -12.5 -111.999v-459c99.333 4 177.333 42.333 234 115l196 250c70 88.667 105 154 105 196c0 47.333 -42.333 72 -127 74v41c78 -4 156.333 -6 235 -6c76 0 134.333 2 175 6v-41c-45.333 -6.66699 -87.833 -21.334 -127.5 -44.001
s-77.834 -57.667 -114.501 -105l-334 -428l475 -666c22.667 -34.667 48 -61.667 76 -81z" />
    <glyph glyph-name="L" unicode="L" horiz-adv-x="1204" 
d="M500.5 1393c-22.333 -8.66699 -37.667 -24.667 -46 -48s-12.5 -60.666 -12.5 -111.999v-1016c0 -51.333 4.16699 -88.5 12.5 -111.5s23.666 -38.5 45.999 -46.5s58.166 -12 107.499 -12h150c85.333 0 150.166 12 194.499 36s76.333 62.333 96 115s34.834 130 45.501 232
h47c-4 -42.667 -6 -98.667 -6 -168c0 -77.333 4.66699 -164.666 14 -261.999c-92.667 4 -249 6 -469 6c-262 0 -460 -2 -594 -6v41c49.333 2 85.166 7.33301 107.499 16s37.666 24.667 45.999 48s12.5 60.666 12.5 111.999v1016c0 51.333 -4.16699 88.666 -12.5 111.999
s-23.666 39.333 -45.999 48s-58.166 14 -107.499 16v41c56.667 -4 144 -6 262 -6c110.667 0 197.334 2 260.001 6v-41c-49.333 -2 -85.166 -7.33301 -107.499 -16z" />
    <glyph glyph-name="M" unicode="M" horiz-adv-x="1784" 
d="M1590.5 1393c-22.333 -8.66699 -37.6689 -24.667 -46.002 -48s-12.5 -60.666 -12.5 -111.999v-1016c0 -51.333 4.16699 -88.666 12.5 -111.999s23.666 -39.333 45.999 -48s58.166 -14 107.499 -16v-41c-64 4 -150.667 6 -260 6c-117.333 0 -204.666 -2 -261.999 -6v41
c49.333 2 85 7.33301 107 16s37.167 24.667 45.5 48s12.5 60.666 12.5 111.999v1096l-493 -1323h-33l-516 1329v-1081c0 -52.667 4.66699 -92.334 14 -119.001s26.833 -45.834 52.5 -57.501s65.5 -18.5 119.5 -20.5v-41c-48.667 4 -118.334 6 -209.001 6
c-81.333 0 -144.666 -2 -189.999 -6v41c47.333 2 82.5 8.83301 105.5 20.5s38.833 30.834 47.5 57.501s13 66.334 13 119.001v995c0 51.333 -4.16699 88.666 -12.5 111.999s-23.666 39.333 -45.999 48s-58.166 14 -107.499 16v41c44.667 -4 108 -6 190 -6
c72 0 130.333 2 175 6l450 -1188l440 1182h97c109.333 0 196 2 260 6v-41c-49.333 -2 -85.166 -7.33301 -107.499 -16z" />
    <glyph glyph-name="N" unicode="N" horiz-adv-x="1446" 
d="M1266.5 1388.5c-23 -11.667 -38.834 -30.833 -47.501 -57.5s-13 -66.334 -13 -119.001v-1222h-47l-860 1329v-1081c0 -52.667 4.66699 -92.334 14 -119.001s26.833 -45.834 52.5 -57.501s65.5 -18.5 119.5 -20.5v-41c-48.667 4 -118.334 6 -209.001 6
c-81.333 0 -144.666 -2 -189.999 -6v41c47.333 2 82.5 8.83301 105.5 20.5s38.833 30.834 47.5 57.501s13 66.334 13 119.001v995c0 51.333 -4.16699 88.666 -12.5 111.999s-23.666 39.333 -45.999 48s-58.166 14 -107.499 16v41c44.667 -4 108 -6 190 -6
c61.333 0 114.666 2 159.999 6l723 -1114v876c0 52.667 -4.5 92.334 -13.5 119.001s-26.5 45.834 -52.5 57.501s-66 18.5 -120 20.5v41c48.667 -4 118.334 -6 209.001 -6c81.333 0 144.666 2 189.999 6v-41c-47.333 -2 -82.5 -8.83301 -105.5 -20.5z" />
    <glyph glyph-name="O" unicode="O" horiz-adv-x="1518" 
d="M1101.5 1391c97.667 -58.667 173.334 -143.834 227.001 -255.501s80.5 -244.5 80.5 -398.5c0 -150.667 -27.667 -284 -83 -400s-132.333 -206 -231 -270s-211 -96 -337 -96c-130 0 -243.833 29.333 -341.5 88s-173.334 143.834 -227.001 255.501s-80.5 244.5 -80.5 398.5
c0 150.667 27.667 284 83 400s132.333 206 231 270s211 96 337 96c130 0 243.833 -29.333 341.5 -88zM521 1350.5c-66.667 -61 -117.999 -146 -153.999 -255s-54 -233.833 -54 -374.5c0 -142 20 -267 60 -375s94.5 -191.333 163.5 -250s145.5 -88 229.5 -88
c87.333 0 164.166 30.5 230.499 91.5s117.5 146 153.5 255s54 233.833 54 374.5c0 142 -20 267 -60 375s-94.333 191.333 -163 250s-145 88 -229 88c-87.333 0 -164.333 -30.5 -231 -91.5z" />
    <glyph glyph-name="P" unicode="P" horiz-adv-x="1198" 
d="M442 217c0 -51.333 5.33203 -88.6631 15.999 -111.996s30 -39.333 58 -48s72.333 -14 133 -16v-41c-70.667 4 -171 6 -301 6c-117.333 0 -204.666 -2 -261.999 -6v41c49.333 2 85.166 7.33301 107.499 16s37.666 24.667 45.999 48s12.5 60.666 12.5 111.999v1016
c0 51.333 -4.16699 88.666 -12.5 111.999s-23.666 39.333 -45.999 48s-58.166 14 -107.499 16v41c56.667 -4 140 -6 250 -6c53.333 0 112.166 0.666992 176.499 2s108.5 2 132.5 2c107.333 0 198 -16.833 272 -50.5s129.5 -80.834 166.5 -141.501
s55.5 -131.334 55.5 -212.001c0 -74.667 -16.667 -146.667 -50 -216s-90.166 -127 -170.499 -173s-186.5 -69 -318.5 -69h-158v-369zM856.999 734.003c51.333 71.333 77.002 167.335 77.002 288.002c0 88 -11.333 160.333 -34 217s-58.834 99.167 -108.501 127.5
s-115.5 42.5 -197.5 42.5c-42.667 0 -74.667 -4.83301 -96 -14.5s-36 -26.834 -44 -51.501s-12 -61.334 -12 -110.001v-606h138c133.333 0 225.666 35.667 276.999 107z" />
    <glyph glyph-name="Q" unicode="Q" horiz-adv-x="1518" 
d="M1434 -293c-68 -61.333 -160.332 -92.001 -276.999 -92.001c-63.333 0 -124.5 9.5 -183.5 28.5s-137.833 50.167 -236.5 93.5s-178.334 75 -239.001 95l-26.5 7.5l-22.5 6.5c-60 -20 -116.667 -30 -170 -30c-63.333 0 -95 13.667 -95 41c0 28.667 37 43 111 43
c49.333 0 100.666 -5.66699 153.999 -17c26 6.66699 49.667 14.334 71 23.001s48.5 20.5 81.5 35.5s59.167 26.167 78.5 33.5c-115.333 11.333 -216 47.833 -302 109.5s-152.333 146 -199 253s-70 232.167 -70 375.5c0 150.667 27.667 284 83 400s132.333 206 231 270
s211 96 337 96c130 0 243.833 -29.333 341.5 -88s173.334 -143.834 227.001 -255.501s80.5 -244.5 80.5 -398.5c0 -142 -24.667 -268.667 -74 -380s-118.333 -200.333 -207 -267s-190.334 -105.334 -305.001 -116.001v-1c-33.333 -4 -62.666 -10.167 -87.999 -18.5
s-59.5 -21.666 -102.5 -39.999s-80.5 -32.166 -112.5 -41.499c150 -30 278.167 -53.833 384.5 -71.5s194.5 -26.5 264.5 -26.5c97.333 0 174.333 14.167 231 42.5s100.667 73.5 132 135.5l31 -12c-30.667 -104.667 -73.667 -182.667 -129 -234zM373.001 345.999
c40 -108 94.501 -191.333 163.501 -250s145.5 -88 229.5 -88c87.333 0 164.166 30.5 230.499 91.5s117.5 146 153.5 255s54 233.833 54 374.5c0 142 -20 267 -60 375s-94.333 191.333 -163 250s-145 88 -229 88c-87.333 0 -164.333 -30.5 -231 -91.5s-118 -146 -154 -255
s-54 -233.833 -54 -374.5c0 -142 20 -267 60 -375z" />
    <glyph glyph-name="R" unicode="R" horiz-adv-x="1327" 
d="M1257 2c-31.333 -20.667 -72.666 -31.002 -123.999 -31.002c-56 0 -102 16.333 -138 49s-63.333 90.334 -82 173.001l-45 204c-16 71.333 -31.167 126.166 -45.5 164.499s-36 69 -65 92s-69.167 34.5 -120.5 34.5h-195v-471c0 -51.333 4.16699 -88.666 12.5 -111.999
s23.666 -39.333 45.999 -48s58.166 -14 107.499 -16v-41c-62.667 4 -149.334 6 -260.001 6c-117.333 0 -204.666 -2 -261.999 -6v41c49.333 2 85.166 7.33301 107.499 16s37.666 24.667 45.999 48s12.5 60.666 12.5 111.999v1016c0 51.333 -4.16699 88.666 -12.5 111.999
s-23.666 39.333 -45.999 48s-58.166 14 -107.499 16v41c57.333 -4 140.666 -6 249.999 -6c53.333 0 112.166 0.666992 176.499 2s108.5 2 132.5 2c106.667 0 197 -15.5 271 -46.5s129.667 -73.333 167 -127s56 -114.5 56 -182.5c0 -53.333 -12.5 -107.166 -37.5 -161.499
s-67.333 -103 -127 -146s-137.5 -71.833 -233.5 -86.5l25 -4c61.333 -10 110.333 -25.167 147 -45.5s65.834 -48.166 87.501 -83.499s39.167 -82.333 52.5 -141l51 -209c8.66699 -42 17.5 -74.833 26.5 -98.5s19.667 -41.167 32 -52.5s27.833 -17 46.5 -17
c22.667 0 41.334 5.83301 56.001 17.5s33.334 31.834 56.001 60.501l31 -23c-32 -46 -63.667 -79.333 -95 -100zM796 772.998c52 29.333 88 68.6699 108 118.003s30 108.666 30 177.999c0 112 -26.667 196.667 -80 254s-140 86 -260 86
c-42.667 0 -74.667 -4.83301 -96 -14.5s-36 -26.834 -44 -51.501s-12 -61.334 -12 -110.001v-504h138c92 0 164 14.667 216 44z" />
    <glyph glyph-name="S" unicode="S" horiz-adv-x="1106" 
d="M286 140.5c58.667 -85.667 148.999 -128.506 270.999 -128.506c46.667 0 90.167 9.66699 130.5 29s73 49.5 98 90.5s37.5 92.167 37.5 153.5c0 52.667 -12.833 99.834 -38.5 141.501s-60.5 79.834 -104.5 114.501s-102.667 74 -176 118
c-81.333 48.667 -146.666 92.334 -195.999 131.001s-89.833 84.834 -121.5 138.501s-47.5 116.834 -47.5 189.501c0 77.333 17.5 142.666 52.5 195.999s81.667 93.166 140 119.499s122.5 39.5 192.5 39.5c42 0 78.167 -3.5 108.5 -10.5s55.5 -15.667 75.5 -26
s42 -23.5 66 -39.5c30.667 -19.333 54 -29 70 -29c12.667 0 22.334 7.16699 29.001 21.5s12 37.166 16 68.499h47c-6.66699 -80 -10 -219.333 -10 -418h-47c-5.33301 70 -20.5 134.667 -45.5 194s-61.667 107.5 -110 144.5s-108.5 55.5 -180.5 55.5c-48 0 -91 -10 -129 -30
s-67.667 -48 -89 -84s-32 -77.333 -32 -124c0 -74 22.333 -133.667 67 -179s96.834 -86.166 156.501 -122.499l120.5 -73.5c86 -54 154 -100.833 204 -140.5s90 -85.667 120 -138s45 -113.166 45 -182.499c0 -84 -19.333 -155.167 -58 -213.5
s-90.834 -102.166 -156.501 -131.499s-139.167 -44 -220.5 -44c-65.333 0 -119 6.83301 -161 20.5s-81.667 32.167 -119 55.5c-30.667 19.333 -54 29 -70 29c-12.667 0 -22.334 -7.16699 -29.001 -21.5s-12 -37.166 -16 -68.499h-47c5.33301 74.667 8 238.334 8 491.001h47
c9.33301 -138.667 43.333 -250.834 102 -336.501z" />
    <glyph glyph-name="T" unicode="T" horiz-adv-x="1272" 
d="M74 1188c0 80 -5 167.332 -15 261.999c113.333 -4 306 -6 578 -6c270 0 461.667 2 575 6c-9.33301 -97.333 -14 -184.666 -14 -261.999c0 -68.667 2 -124.667 6 -168h-47c-10.667 106 -24.167 184.5 -40.5 235.5s-45 88.333 -86 112s-103.833 35.5 -188.5 35.5h-111
v-1165c0 -56.667 5.33301 -98.167 16 -124.5s30 -44.5 58 -54.5s72.333 -16 133 -18v-41c-72 4 -172.333 6 -301 6c-136.667 0 -237.667 -2 -303 -6v41c60.667 2 105 8 133 18s47.333 28.167 58 54.5s16 67.833 16 124.5v1165h-111c-84.667 0 -147.5 -11.833 -188.5 -35.5
s-69.667 -61 -86 -112s-29.833 -129.5 -40.5 -235.5h-47c4 43.333 6 99.333 6 168z" />
    <glyph glyph-name="U" unicode="U" horiz-adv-x="1397" 
d="M1235.5 1388.5c-23 -11.667 -38.6699 -30.832 -47.0029 -57.499s-12.5 -66.334 -12.5 -119.001v-616c0 -98 -6.5 -182.167 -19.5 -252.5s-34.5 -130.833 -64.5 -181.5c-34.667 -58.667 -85.167 -105.167 -151.5 -139.5s-140.833 -51.5 -223.5 -51.5
c-150 0 -264.667 37 -344 111c-40.667 38 -71.834 78.167 -93.501 120.5s-36.834 93.5 -45.501 153.5s-13 138 -13 234v643c0 51.333 -4.16699 88.666 -12.5 111.999s-23.666 39.333 -45.999 48s-58.166 14 -107.499 16v41c58 -4 145.333 -6 262 -6c110 0 197 2 261 6v-41
c-49.333 -2 -85.166 -7.33301 -107.499 -16s-37.666 -24.667 -45.999 -48s-12.5 -60.666 -12.5 -111.999v-678c0 -109.333 7.33301 -200 22 -272s45.5 -130 92.5 -174s116.5 -66 208.5 -66c144.667 0 246.334 46.333 305.001 139s88 223 88 391v639
c0 50.667 -5.83301 89.667 -17.5 117s-30.667 47 -57 59s-63.5 19 -111.5 21v41c49.333 -4 119 -6 209 -6c82 0 145.333 2 190 6v-41c-47.333 -2 -82.5 -8.83301 -105.5 -20.5z" />
    <glyph glyph-name="V" unicode="V" horiz-adv-x="1290" 
d="M1151 1444c61.333 0 112.668 1.99707 154.001 5.99707v-41c-68.667 -15.333 -122.667 -74.666 -162 -177.999l-481 -1241h-17h-16l-500 1288c-33.333 84.667 -80.333 128.334 -141 131.001v41c55.333 -4 128.333 -6 219 -6c117.333 0 204.666 2 261.999 6v-41
c-52 -2 -89.167 -8.33301 -111.5 -19s-33.5 -29.667 -33.5 -57c0 -22.667 8 -54.667 24 -96l371 -984l334 865c27.333 70.667 41 126.334 41 167.001c0 43.333 -14.667 74.5 -44 93.5s-74.333 29.167 -135 30.5v41c78 -4 156.667 -6 236 -6z" />
    <glyph glyph-name="W" unicode="W" horiz-adv-x="1853" 
d="M1704 1444c61.333 0 112.668 2 154.001 6v-41c-76 -16.667 -130 -76 -162 -178l-387 -1241h-17h-16l-356 1055l-326 -1055h-16h-17l-434 1288c-29.333 84 -76.333 127.667 -141 131v41c54.667 -4 127.667 -6 219 -6c98 0 171.667 2 221 6v-41
c-36 -2.66699 -61.667 -9.33398 -77 -20.001s-23 -27.667 -23 -51c0 -22 7.33301 -55.667 22 -101l300 -913l248 793l-54 161c-28 84.667 -68.333 128.334 -121 131.001v41c49.333 -4 115.666 -6 198.999 -6c116.667 0 204 2 262 6v-41
c-35.333 -1.33301 -62.333 -3.83301 -81 -7.5s-33.167 -10.5 -43.5 -20.5s-15.5 -25 -15.5 -45c0 -22.667 7 -55.667 21 -99l294 -911l253 792c22 69.333 33 124.333 33 165c0 45.333 -13.833 77.333 -41.5 96s-72.167 28.667 -133.5 30v41c78 -4 156.667 -6 236 -6z" />
    <glyph glyph-name="X" unicode="X" horiz-adv-x="1298" 
d="M1192 83.5c12.667 -13.667 26 -23.5 40 -29.5s31.333 -9.66699 52 -11v-43c-93.333 5.33301 -152 8 -176 8c-46 0 -142.333 -2.66699 -289 -8v43c53.333 0 91 2.33301 113 7s33 13.334 33 26.001c0 10 -5 22.333 -15 37l-350 536l-221 -330
c-52 -77.333 -78 -137.333 -78 -180c0 -34.667 15.5 -59.334 46.5 -74.001s76.167 -22.667 135.5 -24v-41c-77.333 4 -169.333 6 -276 6c-75.333 0 -133.333 -2 -174 -6v41c40.667 6 79.5 24.333 116.5 55s75.167 75 114.5 133l309 461l-401 615
c-17.333 27.333 -32.333 47.833 -45 61.5s-26 23.5 -40 29.5s-31.333 9.66699 -52 11v43c93.333 -5.33301 152 -8 176 -8c91.333 0 187.666 2.66699 288.999 8v-43c-91.333 0 -137 -15 -137 -45c0 -10.667 6 -25.667 18 -45l319 -488l201 301
c59.333 88.667 89 154.334 89 197.001c0 28.667 -13.167 49.167 -39.5 61.5s-66.166 19.166 -119.499 20.499v41c78 -4 156.667 -6 236 -6c74.667 0 132.667 2 174 6v-41c-41.333 -6 -80.5 -24.5 -117.5 -55.5s-74.833 -75.167 -113.5 -132.5l-287 -428l424 -648
c17.333 -27.333 32.333 -47.833 45 -61.5z" />
    <glyph glyph-name="Y" unicode="Y" horiz-adv-x="1210" 
d="M1051 1444c61.333 0 112.334 2.00098 153.001 6.00098v-41c-27.333 -6 -54 -23.167 -80 -51.5s-54 -71.833 -84 -130.5l-321 -637v-373c0 -51.333 4.16699 -88.666 12.5 -111.999s23.666 -39.333 45.999 -48s58.166 -14 107.499 -16v-41c-64 4 -150.667 6 -260 6
c-117.333 0 -205 -2 -263 -6v41c49.333 2 85.166 7.33301 107.499 16s37.666 24.667 45.999 48s12.5 60.666 12.5 111.999v309l-415 766c-25.333 46 -47.166 76.667 -65.499 92s-36.166 23 -53.499 23v43c53.333 -4 113.333 -6 180 -6c132.667 0 228.334 2 287.001 6v-43
c-96 0 -144 -26.333 -144 -79c0 -20 7 -43.667 21 -71l341 -653l261 520c37.333 75.333 56 134 56 176c0 38.667 -15 66.167 -45 82.5s-75.333 25.166 -136 26.499v41c78 -4 156.667 -6 236 -6z" />
    <glyph glyph-name="Z" unicode="Z" horiz-adv-x="1217" 
d="M279 47l432 0.000976562c85.333 0 150.166 12 194.499 36s76.333 62.333 96 115s34.834 130 45.501 232h47c-4.66699 -50 -7 -106 -7 -168c0 -70.667 5 -158 15 -262c-101.333 4 -271.333 6 -510 6c-233.333 0 -402 -2 -506 -6v41l854 1362h-430
c-85.333 0 -150.166 -12 -194.499 -36s-76.333 -62.333 -96 -115s-34.834 -130 -45.501 -232h-47c4 43.333 6 99.333 6 168c0 77.333 -4.66699 164.666 -14 261.999c100.667 -4 270.667 -6 510 -6c232 0 397.667 2 497 6v-41z" />
    <glyph glyph-name="bracketleft" unicode="[" horiz-adv-x="606" 
d="M373 1542v-1874h166v-39h-351v1952h351v-39h-166z" />
    <glyph glyph-name="backslash" unicode="\" horiz-adv-x="762" 
d="M692 -29l-557 1508h-67l557 -1508h67z" />
    <glyph glyph-name="bracketright" unicode="]" horiz-adv-x="606" 
d="M233 1542v-1874h-166v-39h351v1952h-351v-39h166z" />
    <glyph glyph-name="asciicircum" unicode="^" horiz-adv-x="1098" 
d="M718 857c68 -70.667 145.333 -127 232 -169l-16 -29c-82.667 30 -162.667 67.333 -240 112s-139.333 89.334 -186 134.001c-38.667 -44.667 -89.167 -89.334 -151.5 -134.001s-126.5 -82 -192.5 -112l-17 29c87.333 42 165 98.333 233 169s118 145.334 150 224.001h37
c32.667 -78.667 83 -153.334 151 -224.001z" />
    <glyph glyph-name="underscore" unicode="_" horiz-adv-x="1210" 
d="M141 -317v82h928v-82h-928z" />
    <glyph glyph-name="grave" unicode="`" horiz-adv-x="457" 
d="M290.5 1329.5l-118.5 107c-48 42.333 -82 76.166 -102 101.499c-18.667 24.667 -28 48 -28 70c0 22.667 9.33301 41.667 28 57c12.667 10 27.334 15 44.001 15c29.333 0 55.666 -15.333 78.999 -46c19.333 -25.333 41 -61.166 65 -107.499l70.5 -134
c23 -43 52.167 -92.167 87.5 -147.5l-23 -18c-37.333 39.333 -71.5 73.5 -102.5 102.5z" />
    <glyph glyph-name="a" unicode="a" horiz-adv-x="1020" 
d="M605.5 998.5c-33 29 -79.8311 43.5029 -140.498 43.5029c-96.667 0 -164.334 -24.333 -203.001 -73c27.333 -6.66699 50.166 -21.167 68.499 -43.5s27.5 -49.5 27.5 -81.5c0 -34.667 -10.833 -61.834 -32.5 -81.501s-50.834 -29.5 -87.501 -29.5
c-34.667 0 -61.834 11.667 -81.501 35s-29.5 54 -29.5 92c0 53.333 32 102 96 146c33.333 22 74.5 40.333 123.5 55s103.5 22 163.5 22c56 0 105.333 -6.83301 148 -20.5s76 -32.5 100 -56.5c31.333 -32 52.833 -69.167 64.5 -111.5s17.5 -100.833 17.5 -175.5v-569
c0 -34 4.83301 -58.667 14.5 -74s25.834 -23 48.501 -23c16.667 0 32 3.66699 46 11s29.333 18 46 32l23 -35c-24 -18 -44 -32 -60 -42s-34.333 -18 -55 -24s-44.667 -9 -72 -9c-66 0 -111.833 16.5 -137.5 49.5s-38.5 77.167 -38.5 132.5c-40 -66 -88 -112.833 -144 -140.5
s-113 -41.5 -171 -41.5c-47.333 0 -90.666 8.16699 -129.999 24.5s-70.833 41.666 -94.5 75.999s-35.5 77.166 -35.5 128.499c0 52 12.667 96.333 38 133s61 68.834 107 96.501s107.667 57.834 185 90.501l98 40c52 21.333 89.5 42.666 112.5 63.999
s34.5 44.666 34.5 69.999v127c0 79.333 -16.5 133.5 -49.5 162.5zM605.002 582.003c-23.333 -13.333 -72.002 -38.001 -146.002 -74.001c-39.333 -18.667 -72.666 -37.834 -99.999 -57.501s-50.666 -46.167 -69.999 -79.5s-29 -74.333 -29 -123
c0 -59.333 15 -104.166 45 -134.499s69.667 -45.5 119 -45.5c90.667 0 167.667 51.667 231 155v402c-10 -15.333 -26.667 -29.666 -50 -42.999z" />
    <glyph glyph-name="b" unicode="b" horiz-adv-x="1153" 
d="M478 1025.5c56 38.333 119.334 57.5059 190.001 57.5059c76 0 143.167 -20.833 201.5 -62.5s104.166 -104.334 137.499 -188.001s50 -185.834 50 -306.501c0 -118 -20.5 -218.833 -61.5 -302.5s-96.167 -146.667 -165.5 -189s-146 -63.5 -230 -63.5
c-50 0 -98.667 10.167 -146 30.5s-88.666 50.166 -123.999 89.499l-146 -124l-34 15c9.33301 33.333 14 72.666 14 117.999v1258c0 63.333 -11.5 109.166 -34.5 137.499s-63.5 42.5 -121.5 42.5v43c43.333 -4 85.666 -6 126.999 -6c88 0 159 9.66699 213 29v-740
c30.667 69.333 74 123.166 130 161.499zM457.501 44.0059c41 -17.333 83.168 -26.001 126.501 -26.001c92 0 160.667 41.5 206 124.5s68 210.833 68 383.5c0 166.667 -20.5 291 -61.5 373s-103.833 123 -188.5 123c-36.667 0 -72.334 -9.83301 -107.001 -29.5
s-65.5 -48.667 -92.5 -87s-47.167 -84.5 -60.5 -138.5v-647c32 -33.333 68.5 -58.666 109.5 -75.999z" />
    <glyph glyph-name="c" unicode="c" horiz-adv-x="995" 
d="M853 118.5c-32 -43 -73.833 -78.334 -125.5 -106.001s-111.834 -41.5 -180.501 -41.5c-85.333 0 -162.333 22 -231 66s-122.834 107 -162.501 189s-59.5 178 -59.5 288c0 110.667 20.167 209.167 60.5 295.5s96.833 153.5 169.5 201.5s155 72 247 72
s171.333 -21.667 238 -65c64 -43.333 96 -96 96 -158c0 -36 -10.167 -64.167 -30.5 -84.5s-46.166 -30.5 -77.499 -30.5c-32 0 -58.833 9.16699 -80.5 27.5s-32.5 43.5 -32.5 75.5c0 29.333 8.16699 53.833 24.5 73.5s36.833 32.834 61.5 39.501
c-13.333 24.667 -37.666 45.167 -72.999 61.5s-72.333 24.5 -111 24.5c-50 0 -97 -16 -141 -48s-80.333 -85.333 -109 -160s-43 -172.667 -43 -294c0 -170 27.333 -293.5 82 -370.5s125.667 -115.5 213 -115.5c58 0 113.5 17 166.5 51s96.5 87.333 130.5 160l39 -14
c-15.333 -48.667 -39 -94.5 -71 -137.5z" />
    <glyph glyph-name="d" unicode="d" horiz-adv-x="1190" 
d="M1025.5 85.5c23 -28.333 63.501 -42.5 121.501 -42.5v-43c-43.333 4 -85.666 6 -126.999 6c-88 0 -159 -9.66699 -213 -29v182c-25.333 -61.333 -62.5 -108 -111.5 -140s-108.833 -48 -179.5 -48c-86.667 0 -161.334 20.667 -224.001 62s-110.834 103.333 -144.501 186
s-50.167 185 -49.5 307c-0.666992 119.333 20 221 62 305s98.167 147 168.5 189s147.833 63 232.5 63c52 0 99.833 -9.83301 143.5 -29.5s77.834 -50.167 102.501 -91.5v398c0 63.333 -11.5 109.166 -34.5 137.499s-63.5 42.5 -121.5 42.5v43
c43.333 -4 85.666 -6 126.999 -6c88 0 159 9.66699 213 29v-1383c0 -63.333 11.5 -109.166 34.5 -137.499zM578.001 1036c-55.333 0 -104.165 -18.833 -146.498 -56.5s-75.5 -94.667 -99.5 -171s-35.667 -170.5 -35 -282.5c-0.666992 -164 22.5 -287.167 69.5 -369.5
s116.5 -123.5 208.5 -123.5c35.333 0 68.666 9 99.999 27s58.666 44.833 81.999 80.5s40 78.5 50 128.5v609c-38 105.333 -114.333 158 -229 158z" />
    <glyph glyph-name="e" unicode="e" horiz-adv-x="1036" 
d="M871.5 111.5c-35 -41.667 -78.666 -75.5 -130.999 -101.5s-110.833 -39 -175.5 -39c-97.333 0 -181.5 22.167 -252.5 66.5s-125.167 106.666 -162.5 186.999s-56 172.833 -56 277.5c0 118.667 19 221.667 57 309s91.833 154.5 161.5 201.5s151.167 70.5 244.5 70.5
c122.667 0 217.167 -37.167 283.5 -111.5s99.5 -187.166 99.5 -338.499h-640c-4.66699 -35.333 -7 -79 -7 -131c0 -90 14.833 -168.667 44.5 -236s68.5 -119 116.5 -155s98.667 -54 152 -54c137.333 0 237.666 68.333 300.999 205l41 -16
c-16 -48 -41.5 -92.833 -76.5 -134.5zM726.001 859c-14 56.667 -36.001 101.668 -66.001 135.001s-67 50 -111 50c-42 0 -80.667 -13.5 -116 -40.5s-65.166 -68.333 -89.499 -124s-39.833 -124.834 -46.5 -207.501h446c2.66699 68 -3 130.333 -17 187z" />
    <glyph glyph-name="f" unicode="f" horiz-adv-x="680" 
d="M227 1256.5c6.66699 54.333 17.5 100.497 32.5 138.497s35.833 72.667 62.5 104c26.667 32 61.334 57.167 104.001 75.5s89 27.5 139 27.5c70 0 129.333 -18.667 178 -56c42.667 -34.667 64 -77 64 -127c0 -31.333 -10.167 -57.166 -30.5 -77.499
s-46.5 -30.5 -78.5 -30.5c-31.333 0 -57.833 10 -79.5 30s-32.5 46.667 -32.5 80c0 28 7.83301 51.167 23.5 69.5s36.5 30.166 62.5 35.499c-4 12.667 -15 23.334 -33 32.001s-40.667 13 -68 13c-60.667 0 -105 -25.333 -133 -76
c-15.333 -27.333 -25.333 -68.166 -30 -122.499s-7 -143.166 -7 -266.499v-53h220v-41h-220v-801c0 -63.333 18 -107.166 54 -131.499s90.333 -36.5 163 -36.5v-43c-168 5.33301 -273 8 -315 8c-33.333 0 -114 -2.66699 -242 -8v43c38.667 0 69.167 4.33301 91.5 13
s38.666 23.667 48.999 45s15.5 51 15.5 89v822h-164v41h164c0 81.333 3.33301 149.166 10 203.499z" />
    <glyph glyph-name="g" unicode="g" horiz-adv-x="1061" 
d="M957.5 180c44.333 -30 66.499 -78.334 66.499 -145.001c0 -65.333 -21.167 -130.333 -63.5 -195s-106.666 -118.334 -192.999 -161.001s-191.833 -64 -316.5 -64c-71.333 0 -138.5 7.16699 -201.5 21.5s-113.833 35.666 -152.5 63.999s-58 62.5 -58 102.5
c0 46.667 24.5 91.834 73.5 135.501s110.167 81.834 183.5 114.501h-7c-52 0 -99.167 11 -141.5 33s-63.5 63 -63.5 123c0 46.667 19.333 91 58 133s104.667 84 198 126c-60 23.333 -106.667 59.333 -140 108s-50 110 -50 184c0 108 34.5 188.833 103.5 242.5
s160.5 80.5 274.5 80.5c53.333 0 101.666 -6 144.999 -18c13.333 76 37.333 136.667 72 182c36.667 45.333 83.334 68 140.001 68c34 0 60.5 -10 79.5 -30s28.5 -45.667 28.5 -77c0 -28 -9.33301 -51.333 -28 -70s-42 -28 -70 -28c-34.667 0 -59.667 10.5 -75 31.5
s-26.666 53.5 -33.999 97.5c-20 -18 -38.333 -51.333 -55 -100c-10 -30 -17 -58.333 -21 -85c62 -22.667 110.333 -58.5 145 -107.5s52 -111.167 52 -186.5c0 -72.667 -16.333 -133.167 -49 -181.5s-77.334 -84.166 -134.001 -107.499s-122 -35 -196 -35
c-55.333 0 -105.666 6.33301 -150.999 19c-55.333 -29.333 -97.833 -56.5 -127.5 -81.5s-44.5 -51.833 -44.5 -80.5c0 -22.667 7.66699 -39.667 23 -51s40.333 -17 75 -17h481c71.333 0 129.166 -15 173.499 -45zM389.499 981.499
c-31.667 -43.667 -47.5 -117.5 -47.5 -221.5s15.833 -177.833 47.5 -221.5s77.834 -65.5 138.501 -65.5c61.333 0 107.833 21.667 139.5 65s47.5 117.333 47.5 222s-15.833 178.667 -47.5 222s-78.167 65 -139.5 65c-60.667 0 -106.834 -21.833 -138.501 -65.5z
M243.499 -38.001c-24.333 -38 -36.499 -76.667 -36.499 -116c0 -44 14.667 -80.667 44 -110s67 -51 113 -65s93.333 -21 142 -21c60.667 0 120 10.833 178 32.5s105.667 54.334 143 98.001s56 96.5 56 158.5c0 26.667 -4.5 48.167 -13.5 64.5s-24.833 28.666 -47.5 36.999
s-54.334 12.5 -95.001 12.5h-381c-44 -22.667 -78.167 -53 -102.5 -91z" />
    <glyph glyph-name="h" unicode="h" horiz-adv-x="1204" 
d="M523.5 1025.5c61 38.333 129.505 57.501 205.505 57.501c95.333 0 167.666 -25.667 216.999 -77c26 -28 44.5 -62.5 55.5 -103.5s16.5 -96.167 16.5 -165.5v-547c0 -38 5.16699 -67.667 15.5 -89s26.666 -36.333 48.999 -45s52.833 -13 91.5 -13v-43
c-128 5.33301 -210 8 -246 8c-38.667 0 -115.334 -2.66699 -230.001 -8v43c34 0 60.667 4.33301 80 13s33.5 23.667 42.5 45s13.5 51 13.5 89v592c0 49.333 -4 90.666 -12 123.999s-24.167 60.333 -48.5 81s-59.5 31 -105.5 31c-55.333 0 -104.833 -15.833 -148.5 -47.5
s-77.667 -75.667 -102 -132s-36.5 -120.166 -36.5 -191.499v-457c0 -38 4.5 -67.667 13.5 -89s23 -36.333 42 -45s45.5 -13 79.5 -13v-43c-114.667 5.33301 -191 8 -229 8c-38.667 0 -120.667 -2.66699 -246 -8v43c38.667 0 69.167 4.33301 91.5 13s38.666 23.667 48.999 45
s15.5 51 15.5 89v1168c0 63.333 -11.5 109.166 -34.5 137.499s-63.5 42.5 -121.5 42.5v43c43.333 -4 85.666 -6 126.999 -6c88 0 159 9.66699 213 29v-766c34 86.667 81.5 149.167 142.5 187.5z" />
    <glyph glyph-name="i" unicode="i" horiz-adv-x="600" 
d="M358 1549c20 -12 36 -28 48 -48s18 -41.667 18 -65s-6 -45.166 -18 -65.499s-28 -36.333 -48 -48s-41.667 -17.5 -65 -17.5s-45.166 5.83301 -65.499 17.5s-36.333 27.667 -48 48s-17.5 42.166 -17.5 65.499s5.83301 45 17.5 65s27.667 36 48 48s42.166 18 65.499 18
s45 -6 65 -18zM414.5 101c10.333 -21.333 26.668 -36.333 49.001 -45s52.833 -13 91.5 -13v-43c-125.333 5.33301 -208 8 -248 8s-122.667 -2.66699 -248 -8v43c38.667 0 69.167 4.33301 91.5 13s38.666 23.667 48.999 45s15.5 51 15.5 89v641
c0 63.333 -11.5 109.333 -34.5 138s-63.5 43 -121.5 43v43c42.667 -4 85 -6 127 -6c86.667 0 157.667 9.33301 213 28v-887c0 -38 5.16699 -67.667 15.5 -89z" />
    <glyph glyph-name="j" unicode="j" horiz-adv-x="547" 
d="M337.5 1538.5c20.333 -11.667 36.333 -27.667 48 -48s17.5 -42.166 17.5 -65.499s-5.83301 -45 -17.5 -65s-27.667 -36 -48 -48s-42.166 -18 -65.499 -18s-45 6 -65 18s-36 28 -48 48s-18 41.667 -18 65s6 45.166 18 65.499s28 36.333 48 48s41.667 17.5 65 17.5
s45.166 -5.83301 65.499 -17.5zM362.5 -55.5c-15 -83 -43.833 -151.166 -86.5 -204.499c-31.333 -40.667 -69.166 -71.667 -113.499 -93s-88.833 -32 -133.5 -32c-48 0 -86.333 10.333 -115 31c-30 22.667 -45 54 -45 94c0 31.333 9.83301 56.833 29.5 76.5
s45.167 29.5 76.5 29.5c32.667 0 58.667 -8.33301 78 -25s29 -41.667 29 -75c0 -46.667 -26 -79.334 -78 -98.001c8 -1.33301 19.667 -2 35 -2c47.333 0 85.666 15.667 114.999 47c31.333 39.333 47 97.333 47 174v964c0 63.333 -11.5 109.333 -34.5 138s-63.5 43 -121.5 43
v43c42.667 -4 85 -6 127 -6c86.667 0 157.667 9.33301 213 28v-841c0 -111.333 -7.5 -208.5 -22.5 -291.5z" />
    <glyph glyph-name="k" unicode="k" horiz-adv-x="1126" 
d="M1038 73.5c20.667 -16.333 45.3398 -26.4971 74.0068 -30.4971v-43c-82.667 5.33301 -138 8 -166 8c-36.667 0 -112.334 -2.66699 -227.001 -8v43c19.333 0 34.666 3.66699 45.999 11s17 16.666 17 27.999c0 9.33301 -4 19.666 -12 30.999l-235 344
c-24.667 34.667 -47.334 58 -68.001 70s-49.334 18.667 -86.001 20v-357c0 -38 4.5 -67.667 13.5 -89s23 -36.333 42 -45s45.5 -13 79.5 -13v-43c-114.667 5.33301 -190.334 8 -227.001 8c-40 0 -122.667 -2.66699 -248 -8v43c38.667 0 69.167 4.33301 91.5 13
s38.666 23.667 48.999 45s15.5 51 15.5 89v1170c0 63.333 -11.5 109.166 -34.5 137.499s-63.5 42.5 -121.5 42.5v43c43.333 -4 85.666 -6 126.999 -6c88 0 159 9.66699 213 29v-1017c40 5.33301 73.333 14.5 100 27.5s52 32.167 76 57.5l152 157c43.333 45.333 65 83 65 113
c0 24 -13.667 41.667 -41 53s-64 17 -110 17v41c94.667 -5.33301 171.667 -8 231 -8c64 0 123.333 2.66699 178 8v-41c-66.667 -6 -128 -38 -184 -96l-249 -262l370 -506c25.333 -34.667 48.333 -60.167 69 -76.5z" />
    <glyph glyph-name="l" unicode="l" horiz-adv-x="586" 
d="M400.5 101c10.333 -21.333 26.668 -36.332 49.001 -44.999s52.833 -13 91.5 -13v-43c-125.333 5.33301 -208 8 -248 8s-122.667 -2.66699 -248 -8v43c38.667 0 69.167 4.33301 91.5 13s38.666 23.667 48.999 45s15.5 51 15.5 89v1170
c0 63.333 -11.5 109.166 -34.5 137.499s-63.5 42.5 -121.5 42.5v43c42.667 -4 85 -6 127 -6c88 0 159 9.66699 213 29v-1416c0 -38 5.16699 -67.667 15.5 -89z" />
    <glyph glyph-name="m" unicode="m" horiz-adv-x="1819" 
d="M1647.5 101c10.333 -21.333 26.6709 -36.3311 49.0039 -44.998s52.833 -13 91.5 -13v-43c-125.333 5.33301 -207.333 8 -246 8c-38 0 -114.333 -2.66699 -229 -8v43c34 0 60.5 4.33301 79.5 13s33 23.667 42 45s13.5 51 13.5 89v592c0 52 -3 94.167 -9 126.5
s-20.333 58.666 -43 78.999s-57.334 30.5 -104.001 30.5c-52 0 -99 -16.333 -141 -49s-75 -77.334 -99 -134.001s-36 -119.334 -36 -188.001v-457c0 -38 5.16699 -67.667 15.5 -89s26.5 -36.333 48.5 -45s52.333 -13 91 -13v-43c-125.333 5.33301 -207 8 -245 8
c-38.667 0 -115.334 -2.66699 -230.001 -8v43c34 0 60.667 4.33301 80 13s33.333 23.667 42 45s13 51 13 89v592c0 52 -3 94.167 -9 126.5s-20.333 58.666 -43 78.999s-57 30.5 -103 30.5c-52.667 0 -100 -16.5 -142 -49.5s-75 -78 -99 -135s-36 -119.833 -36 -188.5v-455
c0 -38 4.5 -67.667 13.5 -89s23.167 -36.333 42.5 -45s46 -13 80 -13v-43c-114.667 5.33301 -191.334 8 -230.001 8s-120.667 -2.66699 -246 -8v43c38.667 0 69.167 4.33301 91.5 13s38.666 23.667 48.999 45s15.5 51 15.5 89v641c0 63.333 -11.5 109.333 -34.5 138
s-63.5 43 -121.5 43v43c42.667 -4 85 -6 127 -6c86.667 0 157.667 9.33301 213 28v-241c33.333 84 80 146.167 140 186.5s125.333 60.5 196 60.5c92.667 0 163.667 -25.667 213 -77c34 -37.333 55 -92.333 63 -165c34 86 81 147.833 141 185.5s126.667 56.5 200 56.5
c92.667 0 163.667 -25.667 213 -77c24.667 -27.333 42 -62.166 52 -104.499s15 -97.166 15 -164.499v-547c0 -38 5.16699 -67.667 15.5 -89z" />
    <glyph glyph-name="n" unicode="n" horiz-adv-x="1223" 
d="M541.5 1024.5c61 39 129.837 58.501 206.504 58.501c95.333 0 167.666 -25.667 216.999 -77c25.333 -28 43.5 -62.5 54.5 -103.5s16.5 -96.167 16.5 -165.5v-547c0 -38 5.16699 -67.667 15.5 -89s26.666 -36.333 48.999 -45s52.833 -13 91.5 -13v-43
c-125.333 5.33301 -207.333 8 -246 8c-38 0 -114.333 -2.66699 -229 -8v43c34 0 60.5 4.33301 79.5 13s33 23.667 42 45s13.5 51 13.5 89v592c0 49.333 -3.83301 90.666 -11.5 123.999s-23.667 60.333 -48 81s-59.833 31 -106.5 31c-56 0 -105.833 -16.333 -149.5 -49
s-77.5 -77.5 -101.5 -134.5s-36 -120.167 -36 -189.5v-455c0 -38 4.5 -67.667 13.5 -89s23.167 -36.333 42.5 -45s46 -13 80 -13v-43c-114.667 5.33301 -191.334 8 -230.001 8s-120.667 -2.66699 -246 -8v43c38.667 0 69.167 4.33301 91.5 13s38.666 23.667 48.999 45
s15.5 51 15.5 89v641c0 63.333 -11.5 109.333 -34.5 138s-63.5 43 -121.5 43v43c42.667 -4 85 -6 127 -6c86.667 0 157.667 9.33301 213 28v-241c34 86.667 81.5 149.5 142.5 188.5z" />
    <glyph glyph-name="o" unicode="o" horiz-adv-x="1122" 
d="M800.5 1024c69.667 -39.333 124.667 -100.5 165 -183.5s60.5 -187.833 60.5 -314.5s-20.167 -231.334 -60.5 -314.001s-95.333 -143.5 -165 -182.5s-149.5 -58.5 -239.5 -58.5s-169.833 19.5 -239.5 58.5s-124.667 99.833 -165 182.5s-60.5 187.334 -60.5 314.001
s20.167 231.5 60.5 314.5s95.333 144.167 165 183.5s149.5 59 239.5 59s169.833 -19.667 239.5 -59zM366.5 916c-47.667 -84 -71.5 -214 -71.5 -390c0 -175.333 23.833 -304.833 71.5 -388.5s112.5 -125.5 194.5 -125.5s146.833 41.833 194.5 125.5s71.5 213.167 71.5 388.5
c0 176 -23.833 306 -71.5 390s-112.5 126 -194.5 126s-146.833 -42 -194.5 -126z" />
    <glyph glyph-name="p" unicode="p" horiz-adv-x="1190" 
d="M517 1025c57.333 38.667 122.662 58.001 195.995 58.001c72.667 0 137.834 -19.667 195.501 -59s103 -97.333 136 -174s49.5 -168.334 49.5 -275.001c0 -104.667 -16.667 -202.834 -50 -294.501s-85.166 -166.167 -155.499 -223.5s-158.166 -86 -263.499 -86
c-52 0 -99.167 10.167 -141.5 30.5s-75.166 47.166 -98.499 80.499v-262c0 -55.333 16.333 -93.833 49 -115.5s82 -32.5 148 -32.5v-43c-17.333 0.666992 -56.166 2.33398 -116.499 5.00098s-119.833 4 -178.5 4c-43.333 0 -88 -1.33301 -134 -4l-87 -5v43
c50 0 85 9.16699 105 27.5s30 51.5 30 99.5v1032c0 63.333 -11.5 109.333 -34.5 138s-63.5 43 -121.5 43v43c42.667 -4 85 -6 127 -6c86.667 0 157.667 9.33301 213 28v-216c30.667 70.667 74.667 125.334 132 164.001zM469.996 53.501
c36.667 -23.667 80.667 -35.499 132 -35.499c195.333 0 293 176.333 293 529c0 316.667 -79.333 475 -238 475c-62 0 -117.5 -22.167 -166.5 -66.5s-84.167 -108.5 -105.5 -192.5v-613c20 -40.667 48.333 -72.834 85 -96.501z" />
    <glyph glyph-name="q" unicode="q" horiz-adv-x="1153" 
d="M1019 -300.5c20 -18.333 54.9971 -27.5 104.997 -27.5v-43l-87 5c-46 2.66699 -90.667 4 -134 4c-58.667 0 -118.167 -1.33301 -178.5 -4s-99.166 -4.33398 -116.499 -5.00098v43c66 0 115.333 10.833 148 32.5s49 60.167 49 115.5v353
c-27.333 -64.667 -66.166 -114.5 -116.499 -149.5s-107.166 -52.5 -170.499 -52.5c-80 0 -151.833 20.667 -215.5 62s-114 103.666 -151 186.999s-55.5 185.333 -55.5 306s19.167 222.834 57.5 306.501s90.5 146.334 156.5 188.001s141 62.5 225 62.5
c69.333 0 127.333 -11.833 174 -35.5s84.667 -61.5 114 -113.5l146 153l35 -14c-10 -33.333 -15 -73 -15 -119v-1155c0 -48 10 -81.167 30 -99.5zM550.997 1036c-82.667 0 -146.001 -42.5 -190.001 -127.5s-66 -212.5 -66 -382.5c0 -163.333 24.167 -286.333 72.5 -369
s118.5 -124 210.5 -124c50.667 0 96.834 20.5 138.501 61.5s71.167 99.5 88.5 175.5v629c-52 91.333 -136.667 137 -254 137z" />
    <glyph glyph-name="r" unicode="r" horiz-adv-x="911" 
d="M465.5 945c29 40 63.499 73 103.499 99s82.333 39 127 39c36 0 68.167 -7.16699 96.5 -21.5s50.5 -33.833 66.5 -58.5s24 -51.667 24 -81c0 -36 -10.667 -66.5 -32 -91.5s-49.666 -37.5 -84.999 -37.5c-30 0 -55.667 9.5 -77 28.5s-32 44.833 -32 77.5
c0 44.667 23.333 81.667 70 111c-9.33301 13.333 -23.666 20 -42.999 20c-54 0 -102.667 -20.667 -146 -62s-77.333 -92.333 -102 -153s-37 -117.334 -37 -170.001v-434c0 -63.333 18 -107.166 54 -131.499s90.333 -36.5 163 -36.5v-43c-168 5.33301 -273 8 -315 8
c-36 0 -116.667 -2.66699 -242 -8v43c38.667 0 69.167 4.33301 91.5 13s38.666 23.667 48.999 45s15.5 51 15.5 89v641c0 63.333 -11.5 109.333 -34.5 138s-63.5 43 -121.5 43v43c42.667 -4 85 -6 127 -6c86.667 0 157.667 9.33301 213 28v-256
c15.333 42.667 37.5 84 66.5 124z" />
    <glyph glyph-name="s" unicode="s" horiz-adv-x="913" 
d="M211 186c18.667 -54.667 47.3311 -97.3301 85.998 -127.997s90.667 -46 156 -46c30 0 58.833 6.5 86.5 19.5s50.5 34 68.5 63s27 66.5 27 112.5c0 37.333 -9.5 70.833 -28.5 100.5s-43.833 56.334 -74.5 80.001s-73.667 52.834 -129 87.501
c-67.333 42.667 -118.833 77.667 -154.5 105s-65.834 60.666 -90.501 99.999s-37 85.666 -37 138.999c0 58 13.667 106.833 41 146.5s63.833 69.167 109.5 88.5s96.5 29 152.5 29c48 0 91.167 -7.66699 129.5 -23s69.5 -32.666 93.5 -51.999
c14.667 -11.333 26.667 -17 36 -17c24 0 39.333 30 46 90h47c-5.33301 -66.667 -8 -182.667 -8 -348h-47c-14.667 90 -43.667 164.333 -87 223s-107.333 88 -192 88c-49.333 0 -89.666 -13.833 -120.999 -41.5s-47 -66.167 -47 -115.5c0 -47.333 16.167 -86.833 48.5 -118.5
s71.333 -61.834 117 -90.501l97.5 -62c62.667 -40.667 113.167 -76.834 151.5 -108.501s69.333 -68 93 -109s35.5 -87.833 35.5 -140.5c0 -60.667 -15.833 -112.5 -47.5 -155.5s-74.167 -75.667 -127.5 -98s-111.666 -33.5 -174.999 -33.5
c-60.667 0 -114.667 9.66699 -162 29c-26.667 13.333 -54.667 31.666 -84 54.999c-5.33301 5.33301 -11.666 8 -18.999 8c-20 0 -34 -25.667 -42 -77h-47c5.33301 78 8 214.333 8 409h47c10 -84.667 24.333 -154.334 43 -209.001z" />
    <glyph glyph-name="t" unicode="t" horiz-adv-x="725" 
d="M692 1053v-41h-303v-793c0 -62 11 -106.5 33 -133.5s54.667 -40.5 98 -40.5c42.667 0 79 17 109 51s55.333 90 76 168l40 -10c-33.333 -188.667 -122 -283 -266 -283c-46 0 -84 5.5 -114 16.5s-56.667 28.167 -80 51.5c-29.333 30 -50 66.833 -62 110.5
s-18 102.5 -18 176.5v686h-197v41h197v313c76.667 2 138 11.667 184 29v-342h303z" />
    <glyph glyph-name="u" unicode="u" horiz-adv-x="1190" 
d="M1023.5 83.5c23 -28.333 63.5 -42.5049 121.5 -42.5049v-43c-42.667 4 -85 6 -127 6c-88 0 -159 -9.66699 -213 -29v242c-33.333 -84 -79.833 -146 -139.5 -186s-125.167 -60 -196.5 -60c-92 0 -163 26 -213 78c-24.667 26.667 -42.167 61.334 -52.5 104.001
s-15.5 97.334 -15.5 164.001v514c0 63.333 -11.333 109.333 -34 138s-63 43 -121 43v43c42.667 -4 85 -6 127 -6c86 0 157 9.33301 213 28v-805c0 -52 3 -94 9 -126s20.333 -58.167 43 -78.5s57 -30.5 103 -30.5c52.667 0 100 16.333 142 49s75 77.334 99 134.001
s36 119.334 36 188.001v423c0 63.333 -11.5 109.333 -34.5 138s-63.5 43 -121.5 43v43c42.667 -4 85 -6 127 -6c86.667 0 157.667 9.33301 213 28v-856c0 -63.333 11.5 -109.166 34.5 -137.499z" />
    <glyph glyph-name="v" unicode="v" horiz-adv-x="1001" 
d="M840 1049c60 0 111.665 2.00098 154.998 6.00098v-41c-27.333 -3.33301 -51.666 -15.666 -72.999 -36.999s-41.333 -57 -60 -107l-336 -880h-34l-377 907c-20 47.333 -39.833 78.333 -59.5 93s-39.5 22 -59.5 22v43c70.667 -5.33301 130.667 -8 180 -8
c104.667 0 193.334 2.66699 266.001 8v-43c-34 0 -60.5 -1.16699 -79.5 -3.5s-34.667 -8.5 -47 -18.5s-18.5 -26 -18.5 -48c0 -22.667 7.33301 -52.667 22 -90l252 -623l226 592c14.667 37.333 22 69 22 95c0 31.333 -12 54.666 -36 69.999s-62.333 24.666 -115 27.999v41
c70.667 -4 128 -6 172 -6z" />
    <glyph glyph-name="w" unicode="w" horiz-adv-x="1577" 
d="M1415 1049c60.667 0 112.667 2.00098 156 6.00098v-41c-28.667 -3.33301 -54 -15.666 -76 -36.999s-41 -57 -57 -107l-297 -880h-35l-325 824l-292 -824h-34l-336 907c-18.667 48 -38 79.167 -58 93.5s-40.333 21.5 -61 21.5v43c57.333 -8.66699 117.333 -13 180 -13
c60.667 0 149.334 4.33301 266.001 13v-43c-44.667 0 -77.834 -2.66699 -99.501 -8s-35.667 -20.333 -42 -45s0.166992 -64.334 19.5 -119.001l205 -589l294 812h47l314 -829l192 587c12.667 40 19 71 19 93c0 32.667 -11.833 56.667 -35.5 72s-62.5 24.666 -116.5 27.999
v41c72 -4 129.333 -6 172 -6z" />
    <glyph glyph-name="x" unicode="x" horiz-adv-x="1063" 
d="M971 71.5c17.333 -14.333 39.0029 -23.8301 65.0029 -28.4971v-43c-69.333 5.33301 -117.666 8 -144.999 8c-46.667 0 -127.334 -2.66699 -242.001 -8v43c22 0 41 4.33301 57 13s24 19.667 24 33c0 6.66699 -3 14.667 -9 24l-233 340l-150 -195
c-38 -48.667 -57 -89.667 -57 -123c0 -56 50.333 -87.333 151 -94v-41c-72 4 -149.667 6 -233 6c-60.667 0 -112.667 -2 -156 -6v41c26.667 3.33301 54 15.666 82 36.999s60.667 56.666 98 105.999l236 311l-285 414c-18.667 27.333 -34.334 47.833 -47.001 61.5
s-24.834 23.5 -36.501 29.5s-26.167 10 -43.5 12v43c72 -5.33301 120.667 -8 146 -8c46 0 126.333 2.66699 241 8v-43c-22 0 -40.833 -4.16699 -56.5 -12.5s-23.5 -19.5 -23.5 -33.5c0 -8 2.66699 -16 8 -24l219 -319l142 198c41.333 58 62 101 62 129
c0 19.333 -9.33301 34.166 -28 44.499s-48.334 16.833 -89.001 19.5v41c70.667 -4 128 -6 172 -6c60 0 111.667 2 155 6v-41c-55.333 -6.66699 -115.333 -54.667 -180 -144l-207 -286l301 -439c24 -34.667 44.667 -59.167 62 -73.5z" />
    <glyph glyph-name="y" unicode="y" horiz-adv-x="1032" 
d="M856 1049c60.667 0 112.664 2 155.997 6v-41c-27.333 -3.33301 -51.666 -15.666 -72.999 -36.999s-41.333 -57 -60 -107l-336 -880l-70 -178c-26 -67.333 -55.333 -115.333 -88 -144c-38.667 -35.333 -92 -53 -160 -53c-40.667 0 -74 10.833 -100 32.5
s-39 51.834 -39 90.501c0 32.667 9.66699 58.834 29 78.501s46 29.5 80 29.5c30 0 54.833 -8.33301 74.5 -25s29.5 -40.334 29.5 -71.001c0 -40.667 -18.333 -71.334 -55 -92.001c2.66699 -1.33301 6.66699 -2 12 -2c75.333 0 133.333 53.333 174 160l73 187l-372 894
c-23.333 47.333 -46.5 78.333 -69.5 93s-46.167 22 -69.5 22v43c64 -8.66699 131 -13 201 -13c58.667 0 147.334 4.33301 266.001 13v-43c-33.333 0 -59.333 -1.16699 -78 -3.5s-34.167 -8.66602 -46.5 -18.999s-18.5 -26.5 -18.5 -48.5
c0 -24.667 8.66699 -58.334 26 -101.001l247 -612l226 593c14.667 40 22 71.333 22 94c0 32 -12.167 55.667 -36.5 71s-63.166 24.666 -116.499 27.999v41c72 -4 129.333 -6 172 -6z" />
    <glyph glyph-name="z" unicode="z" horiz-adv-x="975" 
d="M532 31c84 0 150.332 26.166 198.999 78.499s77.334 135.833 86.001 250.5h47c0 -178 2.66699 -300.667 8 -368c-106.667 5.33301 -233.334 8 -380.001 8c-130.667 0 -268.667 -3.33301 -414 -10l592 1034h-226c-61.333 0 -111.666 -11 -150.999 -33
s-69.833 -57.167 -91.5 -105.5s-35.5 -112.166 -41.5 -191.499h-47c0 180.667 -3 303.667 -9 369c107.333 -5.33301 234.333 -8 381 -8c130.667 0 268.667 3.33301 414 10l-592 -1034h225z" />
    <glyph glyph-name="braceleft" unicode="{" horiz-adv-x="623" 
d="M464.5 1532c-21.667 -19.333 -36.8359 -58.5 -45.5029 -117.5s-13 -154.5 -13 -286.5c0 -116 -13.167 -209.333 -39.5 -280s-60.666 -123.334 -102.999 -158.001s-92.5 -60.667 -150.5 -78c58 -17.333 108.167 -43.333 150.5 -78s76.666 -87.5 102.999 -158.5
s39.5 -164.167 39.5 -279.5c0 -136.667 4.33301 -235 13 -295s23.834 -99.333 45.501 -118s56.5 -28.334 104.5 -29.001v-39c-89.333 0 -158.666 14.167 -207.999 42.5s-85 76.833 -107 145.5s-33 166.334 -33 293.001c0 131.333 -4.33301 231.5 -13 300.5
s-24 118.333 -46 148s-54 46.167 -96 49.5h-11v37h11c42 2.66699 74 18.667 96 48s37.333 78.5 46 147.5s13 169.5 13 301.5c0 122 11 217 33 285s57.833 116.5 107.5 145.5s118.834 43.5 207.501 43.5v-39c-48 -1.33301 -82.833 -11.666 -104.5 -30.999z" />
    <glyph glyph-name="bar" unicode="|" horiz-adv-x="455" 
d="M186 -399v2156h82v-2156h-82z" />
    <glyph glyph-name="braceright" unicode="}" horiz-adv-x="623" 
d="M158.5 1532c21.667 -19.333 36.8359 -58.5 45.5029 -117.5s13 -154.5 13 -286.5c0 -116 13.167 -209.333 39.5 -280s60.666 -123.334 102.999 -158.001s92.5 -60.667 150.5 -78c-58 -17.333 -108.167 -43.333 -150.5 -78s-76.666 -87.5 -102.999 -158.5
s-39.5 -164.167 -39.5 -279.5c0 -136.667 -4.33301 -235 -13 -295s-23.834 -99.333 -45.501 -118s-56.5 -28.334 -104.5 -29.001v-39c89.333 0 158.666 14.167 207.999 42.5s85 76.833 107 145.5s33 166.334 33 293.001c0 131.333 4.33301 231.5 13 300.5s24 118.333 46 148
s54 46.167 96 49.5h11v37h-11c-42 2.66699 -74 18.667 -96 48s-37.333 78.5 -46 147.5s-13 169.5 -13 301.5c0 122 -11 217 -33 285s-57.833 116.5 -107.5 145.5s-118.834 43.5 -207.501 43.5v-39c48 -1.33301 82.833 -11.666 104.5 -30.999z" />
    <glyph glyph-name="asciitilde" unicode="~" horiz-adv-x="1329" 
d="M200.5 645.5c27 33 61.5 58.334 103.5 76.001s87.333 26.5 136 26.5c45.333 0 87.666 -6.83301 126.999 -20.5s99.333 -40 180 -79s152 -58.5 214 -58.5c89.333 0 150.666 39.667 183.999 119l35 -11c-5.33301 -44 -21.666 -82.333 -48.999 -115
s-62 -57.834 -104 -75.501s-87.333 -26.5 -136 -26.5c-45.333 0 -87.666 6.83301 -126.999 20.5s-99.333 40 -180 79s-151.667 58.5 -213 58.5c-90 0 -151.667 -39.667 -185 -119l-34 10c5.33301 44 21.5 82.5 48.5 115.5z" />
    <glyph glyph-name="nonbreakingspace" unicode="&#xa0;" horiz-adv-x="510" 
 />
    <glyph glyph-name="exclamdown" unicode="&#xa1;" horiz-adv-x="510" 
d="M321.5 1065.5c20.333 -11.667 36.333 -27.667 48 -48s17.5 -42.166 17.5 -65.499s-5.83301 -45 -17.5 -65s-27.667 -36 -48 -48s-42.166 -18 -65.499 -18s-45.166 6 -65.499 18s-36.333 28 -48 48s-17.5 41.667 -17.5 65s5.83301 45.166 17.5 65.499s27.667 36.333 48 48
s42.166 17.5 65.499 17.5s45.166 -5.83301 65.499 -17.5zM284.5 369c8.33301 -93.333 21 -210.667 38 -352s25.5 -237 25.5 -287c0 -39.333 -8.66699 -68.333 -26 -87s-40 -28 -68 -28c-27.333 0 -49.833 9.5 -67.5 28.5s-26.5 47.833 -26.5 86.5c0 50 8 141.167 24 273.5
s28.667 247 38 344s14 198.167 14 303.5h36c0 -94.667 4.16699 -188.667 12.5 -282z" />
    <glyph glyph-name="cent" unicode="&#xa2;" horiz-adv-x="971" 
d="M831.5 123c-30.333 -42 -69.834 -77.002 -118.501 -105.002s-105.334 -43.667 -170.001 -47v-342h-45v343c-81.333 4 -154.5 28.5 -219.5 73.5s-116.167 107.667 -153.5 188s-56 173.833 -56 280.5c0 104 18 197.5 54 280.5s86.5 149.333 151.5 199
s139.5 78.834 223.5 87.501v369h45v-367h3c92 0 171.333 -21.667 238 -65c64 -43.333 96 -96 96 -158c0 -36 -10.167 -64.167 -30.5 -84.5s-46.166 -30.5 -77.499 -30.5c-32 0 -58.833 9.16699 -80.5 27.5s-32.5 43.5 -32.5 75.5c0 29.333 8.16699 53.833 24.5 73.5
s36.833 32.834 61.5 39.501c-13.333 24.667 -37.666 45.167 -72.999 61.5s-72.333 24.5 -111 24.5l-18 -1v-986l20 -1c58 0 113.5 17 166.5 51s96.5 87.333 130.5 160l39 -14c-14.667 -46.667 -37.167 -91 -67.5 -133zM332.999 890.998
c-43.333 -79.333 -65 -194.668 -65 -346.001c0 -147.333 20.833 -259.666 62.5 -336.999s97.5 -124.333 167.5 -141v971c-66.667 -18.667 -121.667 -67.667 -165 -147z" />
    <glyph glyph-name="sterling" unicode="&#xa3;" horiz-adv-x="1233" 
d="M1033.5 411c39.667 -22 71.8291 -50.998 96.4961 -86.998s37 -77.667 37 -125c0 -39.333 -8.5 -76.5 -25.5 -111.5s-42.333 -63.167 -76 -84.5s-74.167 -32 -121.5 -32c-44 0 -85.5 8.33301 -124.5 25s-88.5 43.167 -148.5 79.5s-107 60.166 -141 71.499
c-28.667 11.333 -62 17 -100 17c-38.667 0 -76.334 -7 -113.001 -21c-31.333 -54 -65.666 -96.167 -102.999 -126.5s-74 -45.5 -110 -45.5c-10.667 0 -18.667 1.33301 -24 4s-8 8.33398 -8 17.001c0 12.667 9.16699 29.5 27.5 50.5s41.833 41.5 70.5 61.5
s57.334 35.333 86.001 46c9.33301 44 15.5 92.167 18.5 144.5s4.5 130.166 4.5 233.499v80h-158v41h158v164h-158v41h158v45c0 405.333 151.333 608 454 608c80.667 0 145 -18.333 193 -55c40.667 -32.667 61 -70.334 61 -113.001c0 -28.667 -9.5 -52.5 -28.5 -71.5
s-41.5 -28.5 -67.5 -28.5c-24.667 0 -46.5 8.66699 -65.5 26s-28.5 39.333 -28.5 66c0 22.667 5.83301 42.334 17.5 59.001s28.167 29 49.5 37c-2.66699 13.333 -17.167 25 -43.5 35s-54.166 15 -83.499 15c-81.333 0 -141.5 -23.667 -180.5 -71s-63.333 -106.333 -73 -177
s-14.5 -163 -14.5 -277v-98h297v-41h-297v-164h297v-41h-298c-2.66699 -81.333 -14.5 -153.833 -35.5 -217.5s-53.167 -133.834 -96.5 -210.501c58 27.333 116.667 41 176 41c46 0 98.833 -10.167 158.5 -30.5s107.334 -35.666 143.001 -45.999s75.167 -15.5 118.5 -15.5
c46 0 80.667 11.167 104 33.5s35 50.166 35 83.499c0 46 -15.667 84.167 -47 114.5s-73.666 50.833 -126.999 61.5l8 33c46 -7.33301 88.833 -22 128.5 -44z" />
    <glyph glyph-name="currency" unicode="&#xa4;" horiz-adv-x="1096" 
d="M850 858c57.333 -72.667 86 -154 86 -244c0 -92 -28.667 -173 -86 -243l90 -88l-57 -60l-90 90c-73.333 -57.333 -154.666 -86 -243.999 -86c-92.667 0 -174 28 -244 84l-88 -88l-59 60l88 88c-57.333 70 -86 151 -86 243c0 92.667 29.333 174.667 88 246l-90 90l57 58
l90 -90c71.333 57.333 152.666 86 243.999 86c90.667 0 172 -29.667 244 -89l92 93l57 -58zM396.5 885c-47 -28.667 -84.168 -67 -111.501 -115s-41 -100 -41 -156s13.833 -107.833 41.5 -155.5s64.834 -85.5 111.501 -113.5s97.334 -42 152.001 -42s105.167 14 151.5 42
s83.166 65.833 110.499 113.5s41 99.5 41 155.5c0 55.333 -13.667 107 -41 155s-64.333 86.5 -111 115.5s-97 43.5 -151 43.5c-54.667 0 -105.5 -14.333 -152.5 -43z" />
    <glyph glyph-name="yen" unicode="&#xa5;" horiz-adv-x="1325" 
d="M1112 1444c60.667 0 111.668 2.00098 153.001 6.00098v-41c-27.333 -6 -54 -23.167 -80 -51.5s-54 -71.833 -84 -130.5l-313 -621h279v-41h-287v-164h287v-41h-287v-143c0 -51.333 4.16699 -88.666 12.5 -111.999s23.666 -39.333 45.999 -48s58.166 -14 107.499 -16v-41
c-64 4 -150.667 6 -260 6c-117.333 0 -205 -2 -263 -6v41c49.333 2 85.166 7.33301 107.499 16s37.666 24.667 45.999 48s12.5 60.666 12.5 111.999v143h-286v41h286v125l-21 39h-265v41h243l-372 686c-25.333 46 -47.166 76.667 -65.499 92s-36.166 23 -53.499 23v43
c52.667 -4 112.667 -6 180 -6c132.667 0 228.334 2 287.001 6v-43c-96 0 -144 -26.333 -144 -79c0 -20 7 -43.667 21 -71l340 -651h2l260 518c37.333 75.333 56 134 56 176c0 38.667 -15 66.167 -45 82.5s-75.333 25.166 -136 26.499v41c78 -4 156.667 -6 236 -6z" />
    <glyph glyph-name="brokenbar" unicode="&#xa6;" horiz-adv-x="459" 
d="M188 786v971h82v-971h-82zM188 -399v1067h82v-1067h-82z" />
    <glyph glyph-name="section" unicode="&#xa7;" horiz-adv-x="1040" 
d="M830 92.5c25.333 -46.333 38 -98.166 38 -155.499c0 -63.333 -14.833 -119.333 -44.5 -168s-71.667 -86.5 -126 -113.5s-117.5 -40.5 -189.5 -40.5c-65.333 0 -126 11.667 -182 35c-49.333 20.667 -88 47.5 -116 80.5s-42 67.5 -42 103.5
c0 31.333 9.66699 57.666 29 78.999s45.666 32 78.999 32c32 0 58.833 -10.167 80.5 -30.5s32.5 -46.5 32.5 -78.5c0 -25.333 -7.16699 -47.833 -21.5 -67.5s-36.5 -33.167 -66.5 -40.5c11.333 -26 37.333 -44.833 78 -56.5s81.667 -17.5 123 -17.5c52 0 94.667 10 128 30
s57.5 45.333 72.5 76s22.5 63 22.5 97c0 50 -15.833 96.5 -47.5 139.5s-66.834 79.5 -105.501 109.5s-101 74.667 -187 134c-72.667 50 -130 93.833 -172 131.5s-74 78 -96 121s-33 91.833 -33 146.5c0 149.333 78.333 267.333 235 354
c-47.333 43.333 -83.333 87.833 -108 133.5s-37 96.834 -37 153.501c0 62.667 14.833 118.5 44.5 167.5s71.834 87 126.501 114s118 40.5 190 40.5c61.333 0 122 -11.667 182 -35c48.667 -20.667 87 -47.667 115 -81s42 -68 42 -104c0 -31.333 -9.66699 -57.5 -29 -78.5
s-45.666 -31.5 -78.999 -31.5c-31.333 0 -58 10 -80 30s-33 46 -33 78c0 25.333 7.16699 48 21.5 68s36.5 33.667 66.5 41c-12.667 26 -39 44.833 -79 56.5s-79.667 17.5 -119 17.5c-53.333 0 -96.833 -10 -130.5 -30s-58 -45.333 -73 -76s-22.5 -63 -22.5 -97
c0 -50 15.833 -96.667 47.5 -140s66.834 -79.833 105.501 -109.5s101 -74.167 187 -133.5c72.667 -50 130 -93.833 172 -131.5s74 -78 96 -121s33 -91.833 33 -146.5c0 -146.667 -80 -263.334 -240 -350.001c49.333 -44 86.666 -89.167 111.999 -135.5zM696 247
c51.333 28.667 89.498 62.8311 114.498 102.498s37.5 81.5 37.5 125.5c0 42.667 -12.833 83.167 -38.5 121.5s-58.667 74 -99 107s-92.833 71.5 -157.5 115.5c-101.333 69.333 -170.666 119.666 -207.999 150.999c-50 -27.333 -87.5 -61.166 -112.5 -101.499
s-37.5 -82.833 -37.5 -127.5c0 -42.667 12.833 -83.167 38.5 -121.5s58.334 -73.666 98.001 -105.999s92.167 -71.166 157.5 -116.499c100 -68 169 -118 207 -150z" />
    <glyph glyph-name="dieresis" unicode="&#xa8;" horiz-adv-x="799" 
d="M240.5 1505.5c18.333 -11 33.001 -25.668 44.001 -44.001s16.5 -37.833 16.5 -58.5c0 -21.333 -5.5 -41.166 -16.5 -59.499s-25.5 -32.833 -43.5 -43.5s-37.667 -16 -59 -16c-32.667 0 -60.667 11.667 -84 35s-35 51.333 -35 84c0 20.667 5.33301 40.167 16 58.5
s25.167 33 43.5 44s38.166 16.5 59.499 16.5c20.667 0 40.167 -5.5 58.5 -16.5zM674.501 1505.5c18.333 -11 33 -25.668 44 -44.001s16.5 -37.833 16.5 -58.5c0 -21.333 -5.5 -41.166 -16.5 -59.499s-25.5 -32.833 -43.5 -43.5s-37.667 -16 -59 -16
c-32.667 0 -60.5 11.667 -83.5 35s-34.5 51.333 -34.5 84c0 20.667 5.33301 40.167 16 58.5s25 33 43 44s37.667 16.5 59 16.5c20.667 0 40.167 -5.5 58.5 -16.5z" />
    <glyph glyph-name="copyright" unicode="&#xa9;" horiz-adv-x="1831" 
d="M1324.5 1492.5c125 -73 224 -172 297 -297s109.5 -261.5 109.5 -409.5c0 -147.333 -36.5 -283.5 -109.5 -408.5s-172 -224 -297 -297s-261.5 -109.5 -409.5 -109.5c-147.333 0 -283.5 36.5 -408.5 109.5s-224 172 -297 297s-109.5 261.167 -109.5 408.5
c0 148 36.5 284.5 109.5 409.5s172 224 297 297s261.167 109.5 408.5 109.5c148 0 284.5 -36.5 409.5 -109.5zM547.5 1435c-112.333 -67.333 -201.333 -158.333 -267 -273s-98.5 -240 -98.5 -376c0 -135.333 32.833 -260.333 98.5 -375s154.667 -205.667 267 -273
s234.833 -101 367.5 -101c133.333 0 256.166 33.667 368.499 101s201.333 158.333 267 273s98.5 239.667 98.5 375c0 136 -32.833 261.333 -98.5 376s-154.667 205.667 -267 273s-235.166 101 -368.499 101c-132.667 0 -255.167 -33.667 -367.5 -101zM1230 378.5
c-32 -43 -73.6689 -78.335 -125.002 -106.002s-111 -41.5 -179 -41.5c-86 0 -163.5 22 -232.5 66s-123.333 107 -163 189s-59.5 178 -59.5 288c0 110.667 20.167 209.167 60.5 295.5s96.833 153.5 169.5 201.5s155.667 72 249 72c46.667 0 91.667 -6 135 -18
s80.333 -29.667 111 -53c57.333 -40 86 -90.667 86 -152c0 -35.333 -10.167 -63.166 -30.5 -83.499s-46.166 -30.5 -77.499 -30.5c-32 0 -58.833 10 -80.5 30s-32.5 46.667 -32.5 80c0 28 7.66699 51 23 69s36.333 30 63 36c-13.333 24.667 -37.666 45.167 -72.999 61.5
s-72.333 24.5 -111 24.5c-67.333 0 -126.333 -26.667 -177 -80c-77.333 -85.333 -116 -228 -116 -428c0 -112.667 13.167 -204.667 39.5 -276s61.333 -123.166 105 -155.499s93.167 -48.5 148.5 -48.5c59.333 0 115.5 17 168.5 51s96.5 87.333 130.5 160l38 -14
c-14.667 -48.667 -38 -94.5 -70 -137.5z" />
    <glyph glyph-name="ordfeminine" unicode="&#xaa;" horiz-adv-x="948" 
d="M512 1400.5c-23.333 26.333 -57.999 39.501 -103.999 39.501c-56.667 0 -107.334 -14.333 -152.001 -43c20 -6 36.667 -17.5 50 -34.5s20 -37.833 20 -62.5c0 -26 -9 -47.5 -27 -64.5s-39 -25.5 -63 -25.5c-30 0 -54 8.5 -72 25.5s-27 39.5 -27 67.5c0 54 33 97 99 129
c66 31.333 141 47 225 47c88 0 151.667 -20.5 191 -61.5s59 -107.167 59 -198.5v-334c0 -28.667 3.83301 -48.5 11.5 -59.5s20.834 -16.5 39.501 -16.5c32.667 0 60.667 11.667 84 35l22 -31c-53.333 -50.667 -114.666 -76 -183.999 -76
c-48.667 0 -83.167 8.16699 -103.5 24.5s-31.5 40.5 -33.5 72.5c-66.667 -64.667 -146.667 -97 -240 -97c-32.667 0 -63.334 5.83301 -92.001 17.5s-52.167 29.5 -70.5 53.5s-27.5 53.667 -27.5 89c0 37.333 10.833 69 32.5 95s50.667 48.167 87 66.5
s85.166 38.833 146.499 61.5c53.333 20 94 38.333 122 55s42 36.667 42 60v37c0 59.333 -11.667 102.166 -35 128.499zM515.501 1138.5c-15.667 -10.333 -43.501 -24.501 -83.501 -42.501c-51.333 -23.333 -88.666 -47.333 -111.999 -72s-35 -54.667 -35 -90
c0 -37.333 10.333 -67.5 31 -90.5s47.667 -34.5 81 -34.5c51.333 0 101.333 21.667 150 65v297c-5.33301 -11.333 -15.833 -22.166 -31.5 -32.499z" />
    <glyph glyph-name="guillemotleft" unicode="&#xab;" horiz-adv-x="1028" 
d="M416 755.5c-56 -81.667 -121.666 -155.169 -196.999 -220.502c73.333 -64 138.166 -139.167 194.499 -225.5s108.833 -194.166 157.5 -323.499l-34 -15c-58.667 130.667 -125.5 241.334 -200.5 332.001s-165.167 165 -270.5 223v2
c105.333 58.667 195.5 133.167 270.5 223.5s141.833 200.833 200.5 331.5l34 -14c-47.333 -127.333 -99 -231.833 -155 -313.5zM774.501 755.498c-55.667 -81.667 -121.166 -155.168 -196.499 -220.501c73.333 -64 138.166 -139 194.499 -225s108.833 -194 157.5 -324
l-35 -15c-58.667 130.667 -125.5 241.334 -200.5 332.001s-165.167 165 -270.5 223v2c105.333 58.667 195.5 133.167 270.5 223.5s141.833 200.833 200.5 331.5l35 -14c-48 -127.333 -99.833 -231.833 -155.5 -313.5z" />
    <glyph glyph-name="logicalnot" unicode="&#xac;" horiz-adv-x="1343" 
d="M1120 338v358h-952v62h1026v-420h-74z" />
    <glyph glyph-name="softhyphen" unicode="&#xad;" horiz-adv-x="1022" 
 />
    <glyph glyph-name="registered" unicode="&#xae;" horiz-adv-x="1389" 
d="M980.5 1525c87.667 -51.333 157.167 -120.833 208.5 -208.5s77 -183.167 77 -286.5s-25.667 -198.666 -77 -285.999s-120.833 -156.666 -208.5 -207.999s-183.167 -77 -286.5 -77s-198.666 25.667 -285.999 77s-156.666 120.666 -207.999 207.999
s-77 182.666 -77 285.999s25.667 198.833 77 286.5s120.666 157.167 207.999 208.5s182.666 77 285.999 77s198.833 -25.667 286.5 -77zM938.5 592.5c74.333 45.667 133.167 107.334 176.5 185.001s65 161.834 65 252.501c0 91.333 -21.667 175.666 -65 252.999
s-102.166 138.833 -176.499 184.5s-155.833 68.5 -244.5 68.5s-170 -22.833 -244 -68.5s-132.667 -107.167 -176 -184.5s-65 -161.666 -65 -252.999c0 -90.667 21.667 -174.834 65 -252.501s102.166 -139.334 176.499 -185.001s155.5 -68.5 243.5 -68.5
c88.667 0 170.167 22.833 244.5 68.5zM944.001 784.5c2.66699 -13.667 6.50098 -23.666 11.501 -29.999s11.5 -9.5 19.5 -9.5c10 0 18 5.66699 24 17l21 -14c-8 -16 -19.167 -27.167 -33.5 -33.5s-33.166 -9.5 -56.499 -9.5c-34.667 0 -60.334 6.5 -77.001 19.5
s-28.667 34.167 -36 63.5l-35 152c-6 26.667 -13.667 46.167 -23 58.5s-25.5 21.166 -48.5 26.499s-59.167 8.33301 -108.5 9v-207c0 -21.333 1.16699 -37 3.5 -47s6.66602 -16.833 12.999 -20.5s16.5 -6.16699 30.5 -7.5v-31c-13.333 0 -28.833 0.333008 -46.5 1
s-36.834 1 -57.501 1c-23.333 0 -44 -0.333008 -62 -1s-33 -1 -45 -1v31c14 1.33301 24.167 3.83301 30.5 7.5s10.666 10.5 12.999 20.5s3.5 25.667 3.5 47v449c0 22 -1.16699 38.167 -3.5 48.5s-6.66602 17.5 -12.999 21.5s-16.5 6.66699 -30.5 8v30
c16.667 -1.33301 49.667 -2 99 -2c44.667 0 81.667 0.333008 111 1s51 1 65 1c76.667 0 135.334 -14 176.001 -42s61 -67.667 61 -119c0 -92.667 -66 -150.667 -198 -174c54 -6 92.5 -18.333 115.5 -37s38.167 -46 45.5 -82l25 -117
c1.33301 -5.33301 3.33301 -14.833 6 -28.5zM787.502 1102c23.667 23.333 35.501 56.666 35.501 99.999c0 52.667 -10.833 91.167 -32.5 115.5s-58.5 36.5 -110.5 36.5c-22.667 0 -39.334 -1.83301 -50.001 -5.5s-18 -10.167 -22 -19.5s-6 -23.666 -6 -42.999v-219h49
c67.333 0 112.833 11.667 136.5 35z" />
    <glyph glyph-name="macron" unicode="&#xaf;" horiz-adv-x="741" 
d="M51 1407v51h639v-51h-639z" />
    <glyph glyph-name="degree" unicode="&#xb0;" horiz-adv-x="682" 
d="M464.5 1649c38.333 -20 68.833 -48.668 91.5 -86.001s34 -80.333 34 -129c0 -50 -11.333 -93.667 -34 -131s-53.167 -66.166 -91.5 -86.499s-79.833 -30.5 -124.5 -30.5c-44 0 -85 10.167 -123 30.5s-68.333 49.333 -91 87s-34 81.167 -34 130.5
c0 48.667 11.333 91.667 34 129s53 66 91 86s79 30 123 30c44.667 0 86.167 -10 124.5 -30zM246.5 1620c-30.333 -16.667 -55.166 -41.167 -74.499 -73.5s-29 -70.5 -29 -114.5c0 -45.333 9.66699 -84 29 -116s44 -55.833 74 -71.5s61.333 -23.5 94 -23.5
s64.167 7.83301 94.5 23.5s55.333 39.5 75 71.5s29.5 70.667 29.5 116c0 44 -9.83301 82.167 -29.5 114.5s-44.834 56.833 -75.501 73.5s-62 25 -94 25s-63.167 -8.33301 -93.5 -25z" />
    <glyph glyph-name="plusminus" unicode="&#xb1;" horiz-adv-x="1313" 
d="M150 0v62h1026v-62h-1026zM1155 758v-62h-475v-481h-74v481h-477v62h477v483h74v-483h475z" />
    <glyph glyph-name="twosuperior" unicode="&#xb2;" horiz-adv-x="692" 
d="M183.5 1499.5c47.667 31 105.167 46.5 172.5 46.5c62 0 111.667 -13 149 -39s56 -64 56 -114c0 -52 -17.667 -98 -53 -138s-85.166 -84.667 -149.499 -134s-107.5 -85.666 -129.5 -108.999h271c20.667 0 37 2.5 49 7.5s21 12.167 27 21.5s12.667 22.666 20 39.999l35 -6
c-18.667 -69.333 -29 -130.666 -31 -183.999c-16.667 4 -42.667 6 -78 6h-450v41c15.333 13.333 58.666 46.666 129.999 99.999s127.5 106.833 168.5 160.5s61.5 109.5 61.5 167.5c0 74 -44.333 111 -133 111c-82.667 0 -147.667 -37 -195 -111l-30 16
c25.333 47.333 61.833 86.5 109.5 117.5z" />
    <glyph glyph-name="threesuperior" unicode="&#xb3;" horiz-adv-x="664" 
d="M167 1501.5c48 31 107.001 46.498 177.001 46.498c62.667 0 112.834 -13 150.501 -39s56.5 -62.667 56.5 -110c0 -45.333 -17.5 -84.833 -52.5 -118.5s-81.167 -58.5 -138.5 -74.5c42.667 -0.666992 82.167 -8.16699 118.5 -22.5s65.333 -35.333 87 -63
s32.5 -60.5 32.5 -98.5c0 -60.667 -26.333 -114.5 -79 -161.5s-120.167 -83.333 -202.5 -109s-165.833 -38.5 -250.5 -38.5v35c70 2 136.333 15.5 199 40.5s113 58 151 99s57 85.833 57 134.5c0 46.667 -13.5 84.834 -40.5 114.501s-63.167 45.5 -108.5 47.5l-26 -13
c-10.667 -5.33301 -19.667 -9.33301 -27 -12s-14.333 -4 -21 -4c-22 0 -33 8.33301 -33 25c0 12.667 7.66699 20.834 23 24.501s37.666 4.83398 66.999 3.50098c41.333 17.333 70.833 40 88.5 68s26.5 56 26.5 84c0 36 -12.667 64.833 -38 86.5s-59 32.5 -101 32.5
c-40.667 0 -77.834 -9.33301 -111.501 -28s-61.5 -46.334 -83.5 -83.001l-31 16c25.333 47.333 62 86.5 110 117.5z" />
    <glyph glyph-name="acute" unicode="&#xb4;" horiz-adv-x="457" 
d="M116 1370l75.001 140.999c29.333 56.667 53.666 97.667 72.999 123c23.333 30.667 49.333 46 78 46c16.667 0 31.667 -5 45 -15c18.667 -15.333 28 -34.333 28 -57c0 -22 -9.33301 -45.333 -28 -70c-20 -25.333 -49.667 -55.166 -89 -89.499l-113 -100.5
c-36 -32.667 -76.667 -73 -122 -121l-22 18c29.333 46 54.333 87.667 75 125z" />
    <glyph glyph-name="paragraph" unicode="&#xb6;" horiz-adv-x="1321" 
d="M266 178.5c-129.333 137 -193.995 323.166 -193.995 558.499c0 140 29.167 264 87.5 372s142.666 192.167 252.999 252.5s241.166 90.5 392.499 90.5c38.667 0 92.167 -1.16699 160.5 -3.5s117.833 -3.5 148.5 -3.5c48 0 89 1.66699 123 5v-39
c-43.333 -2 -76.333 -8.16699 -99 -18.5s-38.167 -25 -46.5 -44s-12.5 -44.5 -12.5 -76.5v-1426c0 -51.333 4.16699 -88.666 12.5 -111.999s23.666 -39.333 45.999 -48s58.166 -14 107.499 -16v-41c-62.667 4 -149.334 6 -260.001 6c-136 0 -237 -2 -303 -6v41
c58 2 101.5 9.16699 130.5 21.5s49 31.833 60 58.5s16.5 65.667 16.5 117v106c-286 0 -493.667 68.5 -623 205.5zM869.005 1256c-10 -58 -19.168 -132.331 -27.501 -222.998s-13.166 -185 -14.499 -283c-96 0 -187.667 -2 -275 -6s-158.833 -8.66699 -214.5 -14
s-83.5 -9 -83.5 -11c0 -2.66699 27.333 -6.33398 82 -11.001s125.834 -8.83398 213.501 -12.501s180.167 -5.5 277.5 -5.5c1.33301 -102 6.16602 -198 14.499 -288s17.5 -163.167 27.5 -219.5s17.333 -84.5 22 -84.5v1245c-4.66699 0 -12 -29 -22 -87z" />
    <glyph glyph-name="periodcentered" unicode="&#xb7;" horiz-adv-x="541" 
d="M335.5 661.5c20.333 -11.667 36.333 -27.667 48 -48s17.5 -42.166 17.5 -65.499s-5.83301 -45 -17.5 -65s-27.667 -36 -48 -48s-42.166 -18 -65.499 -18s-45.166 6 -65.499 18s-36.333 28 -48 48s-17.5 41.667 -17.5 65s5.83301 45.166 17.5 65.499s27.667 36.333 48 48
s42.166 17.5 65.499 17.5s45.166 -5.83301 65.499 -17.5z" />
    <glyph glyph-name="cedilla" unicode="&#xb8;" horiz-adv-x="467" 
d="M297 -133c38.667 0 69.167 -8.5 91.5 -25.5s33.5 -40.5 33.5 -70.5c0 -36 -11.833 -65.667 -35.5 -89s-53.167 -40.333 -88.5 -51s-71.333 -16 -108 -16c-70 0 -126.667 7.66699 -170 23l9 36c28 -4 53.667 -6 77 -6c49.333 0 92.5 7.16699 129.5 21.5
s55.5 37.833 55.5 70.5c0 38.667 -28.667 58 -86 58c-39.333 0 -73 -5 -101 -15l70 209h55l-53 -159c40.667 9.33301 81 14 121 14z" />
    <glyph glyph-name="onesuperior" unicode="&#xb9;" horiz-adv-x="539" 
d="M378.5 976.5c9 -14.333 23.167 -24.332 42.5 -29.999s46.333 -8.5 81 -8.5v-43c-52 2.66699 -118.333 4 -199 4c-88.667 0 -161.667 -1.33301 -219 -4v43c50.667 0 88.667 7.16699 114 21.5s38 40.5 38 78.5v265c0 39.333 -4.83301 68.333 -14.5 87s-25.667 31 -48 37
s-56.833 9 -103.5 9v43c70 1.33301 127.5 6.66602 172.5 15.999s85.833 25 122.5 47v-504c0 -26.667 4.5 -47.167 13.5 -61.5z" />
    <glyph glyph-name="ordmasculine" unicode="&#xba;" horiz-adv-x="930" 
d="M641 1436c55.333 -28.667 100.166 -71 134.499 -127s51.5 -123 51.5 -201s-17.167 -145 -51.5 -201s-79.166 -98.333 -134.499 -127s-114 -43 -176 -43s-120.833 14.333 -176.5 43s-100.667 71 -135 127s-51.5 123 -51.5 201s17.167 145 51.5 201s79.333 98.333 135 127
s114.5 43 176.5 43s120.667 -14.333 176 -43zM366.5 1407c-29 -23.333 -52 -60 -69 -110s-25.5 -113 -25.5 -189s8.5 -139 25.5 -189s40 -86.667 69 -110s61.833 -35 98.5 -35c36 0 68.5 11.667 97.5 35s52 60 69 110s25.5 113 25.5 189s-8.5 139 -25.5 189
s-40 86.667 -69 110s-61.5 35 -97.5 35c-36.667 0 -69.5 -11.667 -98.5 -35z" />
    <glyph glyph-name="guillemotright" unicode="&#xbb;" horiz-adv-x="1026" 
d="M333.5 749.5c75 -90.333 165.165 -164.832 270.498 -223.499v-2c-105.333 -58.667 -195.5 -133.167 -270.5 -223.5s-141.833 -200.833 -200.5 -331.5l-35 15c48 127.333 99.833 231.666 155.5 312.999s121.5 155 197.5 221c-73.333 64 -138.166 139 -194.499 225
s-109.166 194 -158.499 324l35 14c58.667 -130.667 125.5 -241.167 200.5 -331.5zM691.498 749.501c75 -90.333 165.499 -164.833 271.499 -223.5v-2c-106 -58.667 -196.5 -133.167 -271.5 -223.5s-141.5 -200.833 -199.5 -331.5l-35 15
c47.333 126.667 98.833 230.834 154.5 312.501s121.5 155.5 197.5 221.5c-73.333 64 -138.166 139.167 -194.499 225.5s-108.833 194.166 -157.5 323.499l35 14c58 -130.667 124.5 -241.167 199.5 -331.5z" />
    <glyph glyph-name="onequarter" unicode="&#xbc;" horiz-adv-x="1419" 
d="M170 -113l-39 27l1198 1774l39 -27zM411.5 976.5c9 -14.333 23.167 -24.332 42.5 -29.999s46.333 -8.5 81 -8.5v-43c-52 2.66699 -118.333 4 -199 4c-88.667 0 -161.667 -1.33301 -219 -4v43c50.667 0 88.667 7.16699 114 21.5s38 40.5 38 78.5v265
c0 39.333 -4.83301 68.333 -14.5 87s-25.667 31 -48 37s-56.833 9 -103.5 9v43c70 1.33301 127.5 6.66602 172.5 15.999s85.833 25 122.5 47v-504c0 -26.667 4.5 -47.167 13.5 -61.5zM1243 31.001c-16 4 -41.666 6 -76.999 6h-41v-240h-115v240h-397v43l469 541h43v-500h16
c21.333 0 37.833 2.5 49.5 7.5s20.5 12 26.5 21s12.667 22.5 20 40.5l35 -6c-16.667 -57.333 -26.334 -108.333 -29.001 -153zM1010 488.001l-316 -367h316v367z" />
    <glyph glyph-name="onehalf" unicode="&#xbd;" horiz-adv-x="1434" 
d="M137 -113l-39 27l1198 1774l39 -27zM427.5 976.5c9 -14.333 23.167 -24.332 42.5 -29.999s46.333 -8.5 81 -8.5v-43c-52 2.66699 -118.333 4 -199 4c-88.667 0 -161.667 -1.33301 -219 -4v43c50.667 0 88.667 7.16699 114 21.5s38 40.5 38 78.5v265
c0 39.333 -4.83301 68.333 -14.5 87s-25.667 31 -48 37s-56.833 9 -103.5 9v43c70 1.33301 127.5 6.66602 172.5 15.999s85.833 25 122.5 47v-504c0 -26.667 4.5 -47.167 13.5 -61.5zM906.5 604.501c47.667 31 105.167 46.5 172.5 46.5c62 0 111.667 -13 149 -39
s56 -64 56 -114c0 -52 -17.667 -98 -53 -138s-85.166 -84.667 -149.499 -134s-107.5 -85.666 -129.5 -108.999h271c20.667 0 37 2.5 49 7.5s21 12.167 27 21.5s12.667 22.666 20 39.999l35 -6c-18.667 -69.333 -29 -130.666 -31 -183.999c-16.667 4 -42.667 6 -78 6h-450v41
c15.333 13.333 58.666 46.666 129.999 99.999s127.5 106.833 168.5 160.5s61.5 109.5 61.5 167.5c0 74 -44.333 111 -133 111c-82.667 0 -147.667 -37 -195 -111l-30 16c25.333 47.333 61.833 86.5 109.5 117.5z" />
    <glyph glyph-name="threequarters" unicode="&#xbe;" horiz-adv-x="1524" 
d="M266 -113l-39 27l1198 1774l39 -27zM214 1501.5c48 31 107.001 46.498 177.001 46.498c62.667 0 112.834 -13 150.501 -39s56.5 -62.667 56.5 -110c0 -45.333 -17.5 -84.833 -52.5 -118.5s-81.167 -58.5 -138.5 -74.5c42.667 -0.666992 82.167 -8.16699 118.5 -22.5
s65.333 -35.333 87 -63s32.5 -60.5 32.5 -98.5c0 -60.667 -26.333 -114.5 -79 -161.5s-120.167 -83.333 -202.5 -109s-165.833 -38.5 -250.5 -38.5v35c70 2 136.333 15.5 199 40.5s113 58 151 99s57 85.833 57 134.5c0 46.667 -13.5 84.834 -40.5 114.501
s-63.167 45.5 -108.5 47.5l-26 -13c-10.667 -5.33301 -19.667 -9.33301 -27 -12s-14.333 -4 -21 -4c-22 0 -33 8.33301 -33 25c0 12.667 7.66699 20.834 23 24.501s37.666 4.83398 66.999 3.50098c41.333 17.333 70.833 40 88.5 68s26.5 56 26.5 84
c0 36 -12.667 64.833 -38 86.5s-59 32.5 -101 32.5c-40.667 0 -77.834 -9.33301 -111.501 -28s-61.5 -46.334 -83.5 -83.001l-31 16c25.333 47.333 62 86.5 110 117.5zM1339 30.998c-16 4 -41.666 6 -76.999 6h-41v-240h-115v240h-397v43l469 541h43v-500h16
c21.333 0 37.833 2.5 49.5 7.5s20.5 12 26.5 21s12.667 22.5 20 40.5l35 -6c-16.667 -57.333 -26.334 -108.333 -29.001 -153zM1106 487.998l-316 -367h316v367z" />
    <glyph glyph-name="questiondown" unicode="&#xbf;" horiz-adv-x="928" 
d="M608.5 1067.5c20.333 -11.667 36.333 -27.667 48 -48s17.5 -42.166 17.5 -65.499s-5.83301 -45 -17.5 -65s-27.667 -36 -48 -48s-42.166 -18 -65.499 -18s-45.166 6 -65.499 18s-36.333 28 -48 48s-17.5 41.667 -17.5 65s5.83301 45.166 17.5 65.499s27.667 36.333 48 48
s42.166 17.5 65.499 17.5s45.166 -5.83301 65.499 -17.5zM365 276.5c-46.667 -38.333 -78.165 -79.501 -94.498 -123.501s-24.5 -94.333 -24.5 -151c0 -117.333 25.333 -204.333 76 -261s120.667 -85 210 -85c95.333 0 162.333 17.667 201 53
c-26.667 5.33301 -47.667 16.833 -63 34.5s-23 41.167 -23 70.5c0 33.333 10.833 60 32.5 80s48.5 30 80.5 30c31.333 0 57.166 -10.167 77.499 -30.5s30.5 -46.166 30.5 -77.499c0 -56.667 -32 -104 -96 -142c-67.333 -39.333 -160 -59 -278 -59
c-85.333 0 -160.5 14 -225.5 42s-115.5 68.167 -151.5 120.5s-54 114.166 -54 185.499c0 107.333 41.5 198.333 124.5 273s195.167 128.334 336.5 161.001v258h41v-276c-86.667 -30 -153.334 -64.167 -200.001 -102.5z" />
    <glyph glyph-name="Agrave" unicode="&#xc0;" horiz-adv-x="1290" 
d="M1303 41l0.000976562 -40.998c-56 4 -129.333 6 -220 6c-116.667 0 -204 -2 -262 -6v41c52 2 89.167 8.33301 111.5 19s33.5 29.667 33.5 57c0 23.333 -8 55.333 -24 96l-126 336h-494l-84 -217c-27.333 -69.333 -41 -125.333 -41 -168c0 -43.333 14.5 -74.333 43.5 -93
s73.833 -28.667 134.5 -30v-41c-78 4 -156.667 6 -236 6c-61.333 0 -112.333 -2 -153 -6v41c68 15.333 121.667 74.666 161 177.999l482 1241h33l499 -1288c33.333 -84.667 80.666 -128.334 141.999 -131.001zM572.001 1201l-235 -611h464zM621.501 1644.5
c-39.667 17 -89 36.8301 -148 59.4971s-102.167 42.334 -129.5 59.001c-36 24 -54 51 -54 81c0 12.667 3.66699 25.334 11 38.001c15.333 22.667 36.333 34 63 34c20.667 0 41.334 -6.66699 62.001 -20c27.333 -17.333 60.166 -43.666 98.499 -78.999l112 -101
c36.333 -32 80.833 -68 133.5 -108l-14 -27c-50 25.333 -94.833 46.5 -134.5 63.5z" />
    <glyph glyph-name="Aacute" unicode="&#xc1;" horiz-adv-x="1290" 
d="M1303 41l0.000976562 -40.998c-56 4 -129.333 6 -220 6c-116.667 0 -204 -2 -262 -6v41c52 2 89.167 8.33301 111.5 19s33.5 29.667 33.5 57c0 23.333 -8 55.333 -24 96l-126 336h-494l-84 -217c-27.333 -69.333 -41 -125.333 -41 -168c0 -43.333 14.5 -74.333 43.5 -93
s73.833 -28.667 134.5 -30v-41c-78 4 -156.667 6 -236 6c-61.333 0 -112.333 -2 -153 -6v41c68 15.333 121.667 74.666 161 177.999l482 1241h33l499 -1288c33.333 -84.667 80.666 -128.334 141.999 -131.001zM572.001 1201l-235 -611h464zM621.501 1699.5l118.999 106.002
c47 43 84.167 73.167 111.5 90.5c20.667 13.333 41.334 20 62.001 20c26.667 0 47.667 -11.333 63 -34c7.33301 -12.667 11 -25.334 11 -38.001c0 -30 -18 -57 -54 -81c-27.333 -16.667 -65.166 -34.334 -113.499 -53.001l-141 -56c-45.667 -18.667 -98.167 -43 -157.5 -73
l-14 27c43.333 33.333 81.166 63.833 113.499 91.5z" />
    <glyph glyph-name="Acircumflex" unicode="&#xc2;" horiz-adv-x="1290" 
d="M1303 41l0.000976562 -40.998c-56 4 -129.333 6 -220 6c-116.667 0 -204 -2 -262 -6v41c52 2 89.167 8.33301 111.5 19s33.5 29.667 33.5 57c0 23.333 -8 55.333 -24 96l-126 336h-494l-84 -217c-27.333 -69.333 -41 -125.333 -41 -168c0 -43.333 14.5 -74.333 43.5 -93
s73.833 -28.667 134.5 -30v-41c-78 4 -156.667 6 -236 6c-61.333 0 -112.333 -2 -153 -6v41c68 15.333 121.667 74.666 161 177.999l482 1241h33l499 -1288c33.333 -84.667 80.666 -128.334 141.999 -131.001zM572.001 1201l-235 -611h464zM801.501 1723.5
c67.667 -48.333 145.499 -87.5 233.499 -117.5l-11 -29c-82.667 17.333 -163.667 39.166 -243 65.499s-142.333 52.166 -189 77.499c-38.667 -25.333 -90.167 -51.166 -154.5 -77.499s-129.5 -48.166 -195.5 -65.499l-10 29c87.333 30 164.833 69.167 232.5 117.5
s117.834 99.166 150.501 152.499h37c32 -53.333 81.833 -104.166 149.5 -152.499z" />
    <glyph glyph-name="Atilde" unicode="&#xc3;" horiz-adv-x="1290" 
d="M1303 41l0.000976562 -40.998c-56 4 -129.333 6 -220 6c-116.667 0 -204 -2 -262 -6v41c52 2 89.167 8.33301 111.5 19s33.5 29.667 33.5 57c0 23.333 -8 55.333 -24 96l-126 336h-494l-84 -217c-27.333 -69.333 -41 -125.333 -41 -168c0 -43.333 14.5 -74.333 43.5 -93
s73.833 -28.667 134.5 -30v-41c-78 4 -156.667 6 -236 6c-61.333 0 -112.333 -2 -153 -6v41c68 15.333 121.667 74.666 161 177.999l482 1241h33l499 -1288c33.333 -84.667 80.666 -128.334 141.999 -131.001zM572.001 1201l-235 -611h464zM278.001 1745
c21.333 32.667 48.668 57.834 82.001 75.501s69 26.5 107 26.5c34 0 66.167 -6.66699 96.5 -20s76.5 -39.5 138.5 -78.5s116.333 -58.5 163 -58.5c63.333 0 105.666 38 126.999 114l30 -6c-4 -44 -16.667 -82.333 -38 -115s-48.5 -57.834 -81.5 -75.501
s-68.833 -26.5 -107.5 -26.5c-34 0 -66 6.83301 -96 20.5s-76.167 40 -138.5 79s-116.5 58.5 -162.5 58.5c-64 0 -106.333 -38.333 -127 -115l-31 6c4 44 16.667 82.333 38 115z" />
    <glyph glyph-name="Adieresis" unicode="&#xc4;" horiz-adv-x="1290" 
d="M1303 41l0.000976562 -40.998c-56 4 -129.333 6 -220 6c-116.667 0 -204 -2 -262 -6v41c52 2 89.167 8.33301 111.5 19s33.5 29.667 33.5 57c0 23.333 -8 55.333 -24 96l-126 336h-494l-84 -217c-27.333 -69.333 -41 -125.333 -41 -168c0 -43.333 14.5 -74.333 43.5 -93
s73.833 -28.667 134.5 -30v-41c-78 4 -156.667 6 -236 6c-61.333 0 -112.333 -2 -153 -6v41c68 15.333 121.667 74.666 161 177.999l482 1241h33l499 -1288c33.333 -84.667 80.666 -128.334 141.999 -131.001zM572.001 1201l-235 -611h464zM474.501 1802.5
c18.333 -11 33.001 -25.668 44.001 -44.001s16.5 -37.833 16.5 -58.5c0 -21.333 -5.5 -41.166 -16.5 -59.499s-25.667 -32.833 -44 -43.5s-37.833 -16 -58.5 -16c-32.667 0 -60.667 11.667 -84 35s-35 51.333 -35 84c0 20.667 5.33301 40.167 16 58.5s25.167 33 43.5 44
s38.166 16.5 59.499 16.5c20.667 0 40.167 -5.5 58.5 -16.5zM908.502 1802.5c18.333 -11 33.001 -25.668 44.001 -44.001s16.5 -37.833 16.5 -58.5c0 -21.333 -5.5 -41.166 -16.5 -59.499s-25.5 -32.833 -43.5 -43.5s-37.667 -16 -59 -16c-32.667 0 -60.667 11.667 -84 35
s-35 51.333 -35 84c0 20.667 5.33301 40.167 16 58.5s25.167 33 43.5 44s38.166 16.5 59.499 16.5c20.667 0 40.167 -5.5 58.5 -16.5z" />
    <glyph glyph-name="Aring" unicode="&#xc5;" horiz-adv-x="1290" 
d="M1303 41l0.000976562 -40.998c-56 4 -129.333 6 -220 6c-116.667 0 -204 -2 -262 -6v41c52 2 89.167 8.33301 111.5 19s33.5 29.667 33.5 57c0 23.333 -8 55.333 -24 96l-126 336h-494l-84 -217c-27.333 -69.333 -41 -125.333 -41 -168c0 -43.333 14.5 -74.333 43.5 -93
s73.833 -28.667 134.5 -30v-41c-78 4 -156.667 6 -236 6c-61.333 0 -112.333 -2 -153 -6v41c68 15.333 121.667 74.666 161 177.999l482 1241h33l499 -1288c33.333 -84.667 80.666 -128.334 141.999 -131.001zM572.001 1201l-235 -611h464zM732.501 1871
c30.333 -15.333 54.5 -37 72.5 -65s27 -60.667 27 -98c0 -38 -9 -71.167 -27 -99.5s-42.167 -50.166 -72.5 -65.499s-63.5 -23 -99.5 -23c-35.333 0 -67.833 7.66699 -97.5 23s-53.5 37.166 -71.5 65.499s-27 61.5 -27 99.5c0 37.333 9 70 27 98s42 49.667 72 65
s62.333 23 97 23c36 0 69.167 -7.66699 99.5 -23zM567.001 1834c-21.333 -11.333 -38.834 -28 -52.501 -50s-20.5 -48 -20.5 -78c0 -30.667 6.83301 -56.667 20.5 -78s31.167 -37.5 52.5 -48.5s43.333 -16.5 66 -16.5c24 0 46.833 5.5 68.5 16.5s39.334 27.167 53.001 48.5
s20.5 47.333 20.5 78c0 30 -6.83301 56 -20.5 78s-31.5 38.667 -53.5 50s-44.667 17 -68 17c-22.667 0 -44.667 -5.66699 -66 -17z" />
    <glyph glyph-name="AE" unicode="&#xc6;" horiz-adv-x="1749" 
d="M1636 262c0 -80 5.00195 -167.337 15.002 -262.004c-84.667 4 -227.334 6 -428.001 6c-214.667 0 -378.667 -2 -492 -6v41c38 2 65.333 7.33301 82 16s28 24.5 34 47.5s9 60.5 9 112.5v492h-358l-299 -496c-25.333 -43.333 -38 -76.666 -38 -99.999
c0 -24 11.667 -41.5 35 -52.5s59 -17.5 107 -19.5v-41c-41.333 4 -103.333 6 -186 6c-57.333 0 -103 -2 -137 -6v41c22 0.666992 44 11 66 31s47 53.333 75 100l718 1184c-10 18.667 -26 31.667 -48 39s-55.667 12 -101 14v41c57.333 -2 125 -3.33301 203 -4l82 135h49
l-82 -136c55.333 -0.666992 106.833 -1 154.5 -1h126.5c181.333 0 310.333 2 387 6c-10 -87.333 -15 -168 -15 -242c0 -56 2.33301 -98.333 7 -127h-48c-7.33301 88 -16.833 153.833 -28.5 197.5s-31.334 75.334 -59.001 95.001s-69.5 29.5 -125.5 29.5h-129
c-49.333 0 -85 -4 -107 -12s-37.167 -23.5 -45.5 -46.5s-12.5 -60.167 -12.5 -111.5v-483h149c54 0 90 17.167 108 51.5s29 69.5 33 105.5s7 60 9 72h47c-5.33301 -69.333 -8 -126.333 -8 -171l1 -79c0 -49.333 4.33301 -132.666 13 -249.999h-47
c-0.666992 8 -3.66699 36 -9 84s-20.333 84.333 -45 109s-58.667 37 -102 37h-149v-492c0 -51.333 4.16699 -88.5 12.5 -111.5s23.5 -38.5 45.5 -46.5s57.667 -12 107 -12h150c66 0 114 11 144 33s50.167 56 60.5 102s19.833 122 28.5 228h47
c-4 -37.333 -6 -86.666 -6 -147.999zM856.002 1233c0 26 -1 47.667 -3 65l-330 -548h333v483z" />
    <glyph glyph-name="Ccedilla" unicode="&#xc7;" horiz-adv-x="1409" 
d="M1212.5 92.5c-7.66699 19 -18.835 28.501 -33.502 28.501c-10.667 0 -24.667 -5.66699 -42 -17c-40.667 -28.667 -78.167 -52.167 -112.5 -70.5s-73.5 -33.333 -117.5 -45s-93.667 -17.5 -149 -17.5c-130 0 -243.833 29.333 -341.5 88s-173.334 143.834 -227.001 255.501
s-80.5 244.5 -80.5 398.5c0 150.667 27.667 284 83 400s132.333 206 231 270s211 96 337 96c81.333 0 150.833 -11.667 208.5 -35s113.834 -56 168.501 -98c14.667 -12 28 -18 40 -18c28 0 45.333 40.667 52 122h47c-5.33301 -88.667 -8 -245.667 -8 -471h-47
c-10 61.333 -19.167 109 -27.5 143s-18.166 62.833 -29.499 86.5s-26.666 48.167 -45.999 73.5c-41.333 53.333 -93.666 93.333 -156.999 120s-131.666 40 -204.999 40c-88.667 0 -166.334 -29.333 -233.001 -88s-118.334 -142.334 -155.001 -251.001s-55 -236 -55 -382
c0 -148.667 20 -276.334 60 -383.001s95 -187.667 165 -243s149.333 -83 238 -83c68 0 134.333 13 199 39s115 65 151 117c28 37.333 48 77.833 60 121.5s23.667 111.167 35 202.5h47c0 -235.333 2.66699 -399.333 8 -492h-47c-3.33301 42.667 -8.83301 73.5 -16.5 92.5z
M855.999 -132.999c38.667 0 69.167 -8.5 91.5 -25.5s33.5 -40.5 33.5 -70.5c0 -36 -11.833 -65.667 -35.5 -89s-53.167 -40.333 -88.5 -51s-71 -16 -107 -16c-70 0 -126.667 7.66699 -170 23l8 36c28 -4 54 -6 78 -6c49.333 0 92.333 7.16699 129 21.5s55 37.833 55 70.5
c0 38.667 -28.667 58 -86 58c-38.667 0 -72 -5 -100 -15l69 207h56l-54 -157c40.667 9.33301 81 14 121 14z" />
    <glyph glyph-name="Egrave" unicode="&#xc8;" horiz-adv-x="1247" 
d="M1135 262c0 -77.333 4.66406 -164.668 13.9971 -262.001c-92.667 4 -249 6 -469 6c-262 0 -460 -2 -594 -6v41c49.333 2 85.166 7.33301 107.499 16s37.666 24.667 45.999 48s12.5 60.666 12.5 111.999v1016c0 51.333 -4.16699 88.666 -12.5 111.999
s-23.666 39.333 -45.999 48s-58.166 14 -107.499 16v41c134 -4 332 -6 594 -6c200.667 0 343.334 2 428.001 6c-9.33301 -89.333 -14 -170 -14 -242c0 -53.333 2 -95.666 6 -126.999h-47c-10 88.667 -22.5 154.667 -37.5 198s-40.333 74.833 -76 94.5
s-89.5 29.5 -161.5 29.5h-170c-49.333 0 -85.166 -4 -107.499 -12s-37.666 -23.5 -45.999 -46.5s-12.5 -60.167 -12.5 -111.5v-483h136c68.667 0 114.334 20.5 137.001 61.5s36.667 82.833 42 125.5s9 70.334 11 83.001h47c-4.66699 -67.333 -7 -131.666 -7 -192.999l1 -98
c0 -69.333 4 -166.333 12 -291h-47c-1.33301 9.33301 -5.16602 42.333 -11.499 99s-24.833 99.5 -55.5 128.5s-73.667 43.5 -129 43.5h-136v-492c0 -51.333 4.16699 -88.5 12.5 -111.5s23.666 -38.5 45.999 -46.5s58.166 -12 107.499 -12h150
c85.333 0 150.166 11.333 194.499 34s76.333 59 96 109s34.834 123.333 45.501 220h47c-4 -36.667 -6 -86 -6 -148zM615.497 1644.5c-39.667 17 -89 36.8301 -148 59.4971s-102.167 42.334 -129.5 59.001c-36 24 -54 51 -54 81c0 12.667 3.66699 25.334 11 38.001
c15.333 22.667 36.333 34 63 34c20.667 0 41.334 -6.66699 62.001 -20c27.333 -17.333 60.166 -43.666 98.499 -78.999l112 -101c36.333 -32 80.833 -68 133.5 -108l-14 -27c-50 25.333 -94.833 46.5 -134.5 63.5z" />
    <glyph glyph-name="Eacute" unicode="&#xc9;" horiz-adv-x="1247" 
d="M1135 262c0 -77.333 4.66406 -164.668 13.9971 -262.001c-92.667 4 -249 6 -469 6c-262 0 -460 -2 -594 -6v41c49.333 2 85.166 7.33301 107.499 16s37.666 24.667 45.999 48s12.5 60.666 12.5 111.999v1016c0 51.333 -4.16699 88.666 -12.5 111.999
s-23.666 39.333 -45.999 48s-58.166 14 -107.499 16v41c134 -4 332 -6 594 -6c200.667 0 343.334 2 428.001 6c-9.33301 -89.333 -14 -170 -14 -242c0 -53.333 2 -95.666 6 -126.999h-47c-10 88.667 -22.5 154.667 -37.5 198s-40.333 74.833 -76 94.5
s-89.5 29.5 -161.5 29.5h-170c-49.333 0 -85.166 -4 -107.499 -12s-37.666 -23.5 -45.999 -46.5s-12.5 -60.167 -12.5 -111.5v-483h136c68.667 0 114.334 20.5 137.001 61.5s36.667 82.833 42 125.5s9 70.334 11 83.001h47c-4.66699 -67.333 -7 -131.666 -7 -192.999l1 -98
c0 -69.333 4 -166.333 12 -291h-47c-1.33301 9.33301 -5.16602 42.333 -11.499 99s-24.833 99.5 -55.5 128.5s-73.667 43.5 -129 43.5h-136v-492c0 -51.333 4.16699 -88.5 12.5 -111.5s23.666 -38.5 45.999 -46.5s58.166 -12 107.499 -12h150
c85.333 0 150.166 11.333 194.499 34s76.333 59 96 109s34.834 123.333 45.501 220h47c-4 -36.667 -6 -86 -6 -148zM615.497 1699.5l118.999 106.002c47 43 84.167 73.167 111.5 90.5c20.667 13.333 41.334 20 62.001 20c26.667 0 47.667 -11.333 63 -34
c7.33301 -12.667 11 -25.334 11 -38.001c0 -30 -18 -57 -54 -81c-27.333 -16.667 -65.166 -34.334 -113.499 -53.001l-141 -56c-45.667 -18.667 -98.167 -43 -157.5 -73l-14 27c43.333 33.333 81.166 63.833 113.499 91.5z" />
    <glyph glyph-name="Ecircumflex" unicode="&#xca;" horiz-adv-x="1247" 
d="M1135 262c0 -77.333 4.66406 -164.668 13.9971 -262.001c-92.667 4 -249 6 -469 6c-262 0 -460 -2 -594 -6v41c49.333 2 85.166 7.33301 107.499 16s37.666 24.667 45.999 48s12.5 60.666 12.5 111.999v1016c0 51.333 -4.16699 88.666 -12.5 111.999
s-23.666 39.333 -45.999 48s-58.166 14 -107.499 16v41c134 -4 332 -6 594 -6c200.667 0 343.334 2 428.001 6c-9.33301 -89.333 -14 -170 -14 -242c0 -53.333 2 -95.666 6 -126.999h-47c-10 88.667 -22.5 154.667 -37.5 198s-40.333 74.833 -76 94.5
s-89.5 29.5 -161.5 29.5h-170c-49.333 0 -85.166 -4 -107.499 -12s-37.666 -23.5 -45.999 -46.5s-12.5 -60.167 -12.5 -111.5v-483h136c68.667 0 114.334 20.5 137.001 61.5s36.667 82.833 42 125.5s9 70.334 11 83.001h47c-4.66699 -67.333 -7 -131.666 -7 -192.999l1 -98
c0 -69.333 4 -166.333 12 -291h-47c-1.33301 9.33301 -5.16602 42.333 -11.499 99s-24.833 99.5 -55.5 128.5s-73.667 43.5 -129 43.5h-136v-492c0 -51.333 4.16699 -88.5 12.5 -111.5s23.666 -38.5 45.999 -46.5s58.166 -12 107.499 -12h150
c85.333 0 150.166 11.333 194.499 34s76.333 59 96 109s34.834 123.333 45.501 220h47c-4 -36.667 -6 -86 -6 -148zM795.497 1723.5c67.667 -48.333 145.499 -87.5 233.499 -117.5l-11 -29c-82.667 17.333 -163.667 39.166 -243 65.499s-142.333 52.166 -189 77.499
c-38.667 -25.333 -90.167 -51.166 -154.5 -77.499s-129.5 -48.166 -195.5 -65.499l-10 29c87.333 30 164.833 69.167 232.5 117.5s117.834 99.166 150.501 152.499h37c32 -53.333 81.833 -104.166 149.5 -152.499z" />
    <glyph glyph-name="Edieresis" unicode="&#xcb;" horiz-adv-x="1247" 
d="M1135 262c0 -77.333 4.66406 -164.668 13.9971 -262.001c-92.667 4 -249 6 -469 6c-262 0 -460 -2 -594 -6v41c49.333 2 85.166 7.33301 107.499 16s37.666 24.667 45.999 48s12.5 60.666 12.5 111.999v1016c0 51.333 -4.16699 88.666 -12.5 111.999
s-23.666 39.333 -45.999 48s-58.166 14 -107.499 16v41c134 -4 332 -6 594 -6c200.667 0 343.334 2 428.001 6c-9.33301 -89.333 -14 -170 -14 -242c0 -53.333 2 -95.666 6 -126.999h-47c-10 88.667 -22.5 154.667 -37.5 198s-40.333 74.833 -76 94.5
s-89.5 29.5 -161.5 29.5h-170c-49.333 0 -85.166 -4 -107.499 -12s-37.666 -23.5 -45.999 -46.5s-12.5 -60.167 -12.5 -111.5v-483h136c68.667 0 114.334 20.5 137.001 61.5s36.667 82.833 42 125.5s9 70.334 11 83.001h47c-4.66699 -67.333 -7 -131.666 -7 -192.999l1 -98
c0 -69.333 4 -166.333 12 -291h-47c-1.33301 9.33301 -5.16602 42.333 -11.499 99s-24.833 99.5 -55.5 128.5s-73.667 43.5 -129 43.5h-136v-492c0 -51.333 4.16699 -88.5 12.5 -111.5s23.666 -38.5 45.999 -46.5s58.166 -12 107.499 -12h150
c85.333 0 150.166 11.333 194.499 34s76.333 59 96 109s34.834 123.333 45.501 220h47c-4 -36.667 -6 -86 -6 -148zM468.497 1802.5c18.333 -11 33.001 -25.668 44.001 -44.001s16.5 -37.833 16.5 -58.5c0 -21.333 -5.5 -41.166 -16.5 -59.499s-25.667 -32.833 -44 -43.5
s-37.833 -16 -58.5 -16c-32.667 0 -60.667 11.667 -84 35s-35 51.333 -35 84c0 20.667 5.33301 40.167 16 58.5s25.167 33 43.5 44s38.166 16.5 59.499 16.5c20.667 0 40.167 -5.5 58.5 -16.5zM902.498 1802.5c18.333 -11 33.001 -25.668 44.001 -44.001
s16.5 -37.833 16.5 -58.5c0 -21.333 -5.5 -41.166 -16.5 -59.499s-25.5 -32.833 -43.5 -43.5s-37.667 -16 -59 -16c-32.667 0 -60.667 11.667 -84 35s-35 51.333 -35 84c0 20.667 5.33301 40.167 16 58.5s25.167 33 43.5 44s38.166 16.5 59.499 16.5
c20.667 0 40.167 -5.5 58.5 -16.5z" />
    <glyph glyph-name="Igrave" unicode="&#xcc;" 
d="M500.5 1393c-22.333 -8.66699 -37.667 -24.667 -46 -48s-12.5 -60.666 -12.5 -111.999v-1016c0 -51.333 4.16699 -88.666 12.5 -111.999s23.666 -39.333 45.999 -48s58.166 -14 107.499 -16v-41c-62.667 4 -149.334 6 -260.001 6c-117.333 0 -204.666 -2 -261.999 -6v41
c49.333 2 85.166 7.33301 107.499 16s37.666 24.667 45.999 48s12.5 60.666 12.5 111.999v1016c0 51.333 -4.16699 88.666 -12.5 111.999s-23.666 39.333 -45.999 48s-58.166 14 -107.499 16v41c56.667 -4 144 -6 262 -6c110.667 0 197.334 2 260.001 6v-41
c-49.333 -2 -85.166 -7.33301 -107.499 -16zM336.499 1644.5c-39.667 17 -89 36.8301 -148 59.4971s-102.167 42.334 -129.5 59.001c-36 24 -54 51 -54 81c0 12.667 3.66699 25.334 11 38.001c15.333 22.667 36.333 34 63 34c20.667 0 41.334 -6.66699 62.001 -20
c27.333 -17.333 60.166 -43.666 98.499 -78.999l112 -101c36.333 -32 80.833 -68 133.5 -108l-14 -27c-50 25.333 -94.833 46.5 -134.5 63.5z" />
    <glyph glyph-name="Iacute" unicode="&#xcd;" 
d="M500.5 1393c-22.333 -8.66699 -37.667 -24.667 -46 -48s-12.5 -60.666 -12.5 -111.999v-1016c0 -51.333 4.16699 -88.666 12.5 -111.999s23.666 -39.333 45.999 -48s58.166 -14 107.499 -16v-41c-62.667 4 -149.334 6 -260.001 6c-117.333 0 -204.666 -2 -261.999 -6v41
c49.333 2 85.166 7.33301 107.499 16s37.666 24.667 45.999 48s12.5 60.666 12.5 111.999v1016c0 51.333 -4.16699 88.666 -12.5 111.999s-23.666 39.333 -45.999 48s-58.166 14 -107.499 16v41c56.667 -4 144 -6 262 -6c110.667 0 197.334 2 260.001 6v-41
c-49.333 -2 -85.166 -7.33301 -107.499 -16zM336.499 1699.5l118.999 106.002c47 43 84.167 73.167 111.5 90.5c20.667 13.333 41.334 20 62.001 20c26.667 0 47.667 -11.333 63 -34c7.33301 -12.667 11 -25.334 11 -38.001c0 -30 -18 -57 -54 -81
c-27.333 -16.667 -65.166 -34.334 -113.499 -53.001l-141 -56c-45.667 -18.667 -98.167 -43 -157.5 -73l-14 27c43.333 33.333 81.166 63.833 113.499 91.5z" />
    <glyph glyph-name="Icircumflex" unicode="&#xce;" 
d="M500.5 1393c-22.333 -8.66699 -37.667 -24.667 -46 -48s-12.5 -60.666 -12.5 -111.999v-1016c0 -51.333 4.16699 -88.666 12.5 -111.999s23.666 -39.333 45.999 -48s58.166 -14 107.499 -16v-41c-62.667 4 -149.334 6 -260.001 6c-117.333 0 -204.666 -2 -261.999 -6v41
c49.333 2 85.166 7.33301 107.499 16s37.666 24.667 45.999 48s12.5 60.666 12.5 111.999v1016c0 51.333 -4.16699 88.666 -12.5 111.999s-23.666 39.333 -45.999 48s-58.166 14 -107.499 16v41c56.667 -4 144 -6 262 -6c110.667 0 197.334 2 260.001 6v-41
c-49.333 -2 -85.166 -7.33301 -107.499 -16zM516.499 1723.5c67.667 -48.333 145.499 -87.5 233.499 -117.5l-11 -29c-82.667 17.333 -163.667 39.166 -243 65.499s-142.333 52.166 -189 77.499c-38.667 -25.333 -90.167 -51.166 -154.5 -77.499
s-129.5 -48.166 -195.5 -65.499l-10 29c87.333 30 164.833 69.167 232.5 117.5s117.834 99.166 150.501 152.499h37c32 -53.333 81.833 -104.166 149.5 -152.499z" />
    <glyph glyph-name="Idieresis" unicode="&#xcf;" 
d="M500.5 1393c-22.333 -8.66699 -37.667 -24.667 -46 -48s-12.5 -60.666 -12.5 -111.999v-1016c0 -51.333 4.16699 -88.666 12.5 -111.999s23.666 -39.333 45.999 -48s58.166 -14 107.499 -16v-41c-62.667 4 -149.334 6 -260.001 6c-117.333 0 -204.666 -2 -261.999 -6v41
c49.333 2 85.166 7.33301 107.499 16s37.666 24.667 45.999 48s12.5 60.666 12.5 111.999v1016c0 51.333 -4.16699 88.666 -12.5 111.999s-23.666 39.333 -45.999 48s-58.166 14 -107.499 16v41c56.667 -4 144 -6 262 -6c110.667 0 197.334 2 260.001 6v-41
c-49.333 -2 -85.166 -7.33301 -107.499 -16zM189.499 1802.5c18.333 -11 33.001 -25.668 44.001 -44.001s16.5 -37.833 16.5 -58.5c0 -21.333 -5.5 -41.166 -16.5 -59.499s-25.667 -32.833 -44 -43.5s-37.833 -16 -58.5 -16c-32.667 0 -60.667 11.667 -84 35
s-35 51.333 -35 84c0 20.667 5.33301 40.167 16 58.5s25.167 33 43.5 44s38.166 16.5 59.499 16.5c20.667 0 40.167 -5.5 58.5 -16.5zM623.5 1802.5c18.333 -11 33.001 -25.668 44.001 -44.001s16.5 -37.833 16.5 -58.5c0 -21.333 -5.5 -41.166 -16.5 -59.499
s-25.5 -32.833 -43.5 -43.5s-37.667 -16 -59 -16c-32.667 0 -60.667 11.667 -84 35s-35 51.333 -35 84c0 20.667 5.33301 40.167 16 58.5s25.167 33 43.5 44s38.166 16.5 59.499 16.5c20.667 0 40.167 -5.5 58.5 -16.5z" />
    <glyph glyph-name="Eth" unicode="&#xd0;" horiz-adv-x="1483" 
d="M288 1443l50 1.00293c188 4 291 6 309 6c241.333 0 422.166 -60.333 542.499 -181s180.5 -296.667 180.5 -528c0 -148.667 -29.167 -278.834 -87.5 -390.501s-143.166 -198 -254.499 -259s-244.333 -91.5 -399 -91.5c-18.667 0 -63.167 1 -133.5 3s-121.5 3 -153.5 3
c-112 0 -196.667 -2 -254 -6v41c49.333 2 85.166 7.33301 107.499 16s37.666 24.667 45.999 48s12.5 60.666 12.5 111.999v492h-166v41h166v483c0 51.333 -4.16699 88.666 -12.5 111.999s-23.666 39.333 -45.999 48s-58.166 14 -107.499 16v41
c73.333 -4.66699 140 -7 200 -7zM456 102.503c8 -24.333 22.832 -41.332 44.499 -50.999s54.167 -14.5 97.5 -14.5c145.333 0 259.333 26.333 342 79s140.834 129.5 174.501 230.5s50.5 229.833 50.5 386.5c0 157.333 -18.333 285.5 -55 384.5s-96.5 173 -179.5 222
s-194.5 73.5 -334.5 73.5c-42.667 0 -74.667 -4.83301 -96 -14.5s-36 -26.834 -44 -51.501s-12 -61.334 -12 -110.001v-487h285v-41h-285v-496c0 -49.333 4 -86.166 12 -110.499z" />
    <glyph glyph-name="Ntilde" unicode="&#xd1;" horiz-adv-x="1446" 
d="M1266.5 1388.5c-23 -11.667 -38.834 -30.833 -47.501 -57.5s-13 -66.334 -13 -119.001v-1222h-47l-860 1329v-1081c0 -52.667 4.66699 -92.334 14 -119.001s26.833 -45.834 52.5 -57.501s65.5 -18.5 119.5 -20.5v-41c-48.667 4 -118.334 6 -209.001 6
c-81.333 0 -144.666 -2 -189.999 -6v41c47.333 2 82.5 8.83301 105.5 20.5s38.833 30.834 47.5 57.501s13 66.334 13 119.001v995c0 51.333 -4.16699 88.666 -12.5 111.999s-23.666 39.333 -45.999 48s-58.166 14 -107.499 16v41c44.667 -4 108 -6 190 -6
c61.333 0 114.666 2 159.999 6l723 -1114v876c0 52.667 -4.5 92.334 -13.5 119.001s-26.5 45.834 -52.5 57.501s-66 18.5 -120 20.5v41c48.667 -4 118.334 -6 209.001 -6c81.333 0 144.666 2 189.999 6v-41c-47.333 -2 -82.5 -8.83301 -105.5 -20.5zM410.999 1745
c21.333 32.667 48.668 57.834 82.001 75.501s69 26.5 107 26.5c34 0 66.167 -6.66699 96.5 -20s76.5 -39.5 138.5 -78.5s116.333 -58.5 163 -58.5c63.333 0 105.666 38 126.999 114l30 -6c-4 -44 -16.667 -82.333 -38 -115s-48.5 -57.834 -81.5 -75.501
s-68.833 -26.5 -107.5 -26.5c-34 0 -66 6.83301 -96 20.5s-76.167 40 -138.5 79s-116.5 58.5 -162.5 58.5c-64 0 -106.333 -38.333 -127 -115l-31 6c4 44 16.667 82.333 38 115z" />
    <glyph glyph-name="Ograve" unicode="&#xd2;" horiz-adv-x="1518" 
d="M1101.5 1391c97.667 -58.667 173.334 -143.834 227.001 -255.501s80.5 -244.5 80.5 -398.5c0 -150.667 -27.667 -284 -83 -400s-132.333 -206 -231 -270s-211 -96 -337 -96c-130 0 -243.833 29.333 -341.5 88s-173.334 143.834 -227.001 255.501s-80.5 244.5 -80.5 398.5
c0 150.667 27.667 284 83 400s132.333 206 231 270s211 96 337 96c130 0 243.833 -29.333 341.5 -88zM521 1350.5c-66.667 -61 -117.999 -146 -153.999 -255s-54 -233.833 -54 -374.5c0 -142 20 -267 60 -375s94.5 -191.333 163.5 -250s145.5 -88 229.5 -88
c87.333 0 164.166 30.5 230.499 91.5s117.5 146 153.5 255s54 233.833 54 374.5c0 142 -20 267 -60 375s-94.333 191.333 -163 250s-145 88 -229 88c-87.333 0 -164.333 -30.5 -231 -91.5zM744.501 1644.5c-39.667 17 -89 36.8301 -148 59.4971
s-102.167 42.334 -129.5 59.001c-36 24 -54 51 -54 81c0 12.667 3.66699 25.334 11 38.001c15.333 22.667 36.333 34 63 34c20.667 0 41.334 -6.66699 62.001 -20c27.333 -17.333 60.166 -43.666 98.499 -78.999l112 -101c36.333 -32 80.833 -68 133.5 -108l-14 -27
c-50 25.333 -94.833 46.5 -134.5 63.5z" />
    <glyph glyph-name="Oacute" unicode="&#xd3;" horiz-adv-x="1518" 
d="M1101.5 1391c97.667 -58.667 173.334 -143.834 227.001 -255.501s80.5 -244.5 80.5 -398.5c0 -150.667 -27.667 -284 -83 -400s-132.333 -206 -231 -270s-211 -96 -337 -96c-130 0 -243.833 29.333 -341.5 88s-173.334 143.834 -227.001 255.501s-80.5 244.5 -80.5 398.5
c0 150.667 27.667 284 83 400s132.333 206 231 270s211 96 337 96c130 0 243.833 -29.333 341.5 -88zM521 1350.5c-66.667 -61 -117.999 -146 -153.999 -255s-54 -233.833 -54 -374.5c0 -142 20 -267 60 -375s94.5 -191.333 163.5 -250s145.5 -88 229.5 -88
c87.333 0 164.166 30.5 230.499 91.5s117.5 146 153.5 255s54 233.833 54 374.5c0 142 -20 267 -60 375s-94.333 191.333 -163 250s-145 88 -229 88c-87.333 0 -164.333 -30.5 -231 -91.5zM744.501 1699.5l118.999 106.002c47 43 84.167 73.167 111.5 90.5
c20.667 13.333 41.334 20 62.001 20c26.667 0 47.667 -11.333 63 -34c7.33301 -12.667 11 -25.334 11 -38.001c0 -30 -18 -57 -54 -81c-27.333 -16.667 -65.166 -34.334 -113.499 -53.001l-141 -56c-45.667 -18.667 -98.167 -43 -157.5 -73l-14 27
c43.333 33.333 81.166 63.833 113.499 91.5z" />
    <glyph glyph-name="Ocircumflex" unicode="&#xd4;" horiz-adv-x="1518" 
d="M1101.5 1391c97.667 -58.667 173.334 -143.834 227.001 -255.501s80.5 -244.5 80.5 -398.5c0 -150.667 -27.667 -284 -83 -400s-132.333 -206 -231 -270s-211 -96 -337 -96c-130 0 -243.833 29.333 -341.5 88s-173.334 143.834 -227.001 255.501s-80.5 244.5 -80.5 398.5
c0 150.667 27.667 284 83 400s132.333 206 231 270s211 96 337 96c130 0 243.833 -29.333 341.5 -88zM521 1350.5c-66.667 -61 -117.999 -146 -153.999 -255s-54 -233.833 -54 -374.5c0 -142 20 -267 60 -375s94.5 -191.333 163.5 -250s145.5 -88 229.5 -88
c87.333 0 164.166 30.5 230.499 91.5s117.5 146 153.5 255s54 233.833 54 374.5c0 142 -20 267 -60 375s-94.333 191.333 -163 250s-145 88 -229 88c-87.333 0 -164.333 -30.5 -231 -91.5zM924.501 1723.5c67.667 -48.333 145.499 -87.5 233.499 -117.5l-11 -29
c-82.667 17.333 -163.667 39.166 -243 65.499s-142.333 52.166 -189 77.499c-38.667 -25.333 -90.167 -51.166 -154.5 -77.499s-129.5 -48.166 -195.5 -65.499l-10 29c87.333 30 164.833 69.167 232.5 117.5s117.834 99.166 150.501 152.499h37
c32 -53.333 81.833 -104.166 149.5 -152.499z" />
    <glyph glyph-name="Otilde" unicode="&#xd5;" horiz-adv-x="1518" 
d="M1101.5 1391c97.667 -58.667 173.334 -143.834 227.001 -255.501s80.5 -244.5 80.5 -398.5c0 -150.667 -27.667 -284 -83 -400s-132.333 -206 -231 -270s-211 -96 -337 -96c-130 0 -243.833 29.333 -341.5 88s-173.334 143.834 -227.001 255.501s-80.5 244.5 -80.5 398.5
c0 150.667 27.667 284 83 400s132.333 206 231 270s211 96 337 96c130 0 243.833 -29.333 341.5 -88zM521 1350.5c-66.667 -61 -117.999 -146 -153.999 -255s-54 -233.833 -54 -374.5c0 -142 20 -267 60 -375s94.5 -191.333 163.5 -250s145.5 -88 229.5 -88
c87.333 0 164.166 30.5 230.499 91.5s117.5 146 153.5 255s54 233.833 54 374.5c0 142 -20 267 -60 375s-94.333 191.333 -163 250s-145 88 -229 88c-87.333 0 -164.333 -30.5 -231 -91.5zM401.001 1745c21.333 32.667 48.668 57.834 82.001 75.501s69 26.5 107 26.5
c34 0 66.167 -6.66699 96.5 -20s76.5 -39.5 138.5 -78.5s116.333 -58.5 163 -58.5c63.333 0 105.666 38 126.999 114l30 -6c-4 -44 -16.667 -82.333 -38 -115s-48.5 -57.834 -81.5 -75.501s-68.833 -26.5 -107.5 -26.5c-34 0 -66 6.83301 -96 20.5s-76.167 40 -138.5 79
s-116.5 58.5 -162.5 58.5c-64 0 -106.333 -38.333 -127 -115l-31 6c4 44 16.667 82.333 38 115z" />
    <glyph glyph-name="Odieresis" unicode="&#xd6;" horiz-adv-x="1518" 
d="M1101.5 1391c97.667 -58.667 173.334 -143.834 227.001 -255.501s80.5 -244.5 80.5 -398.5c0 -150.667 -27.667 -284 -83 -400s-132.333 -206 -231 -270s-211 -96 -337 -96c-130 0 -243.833 29.333 -341.5 88s-173.334 143.834 -227.001 255.501s-80.5 244.5 -80.5 398.5
c0 150.667 27.667 284 83 400s132.333 206 231 270s211 96 337 96c130 0 243.833 -29.333 341.5 -88zM521 1350.5c-66.667 -61 -117.999 -146 -153.999 -255s-54 -233.833 -54 -374.5c0 -142 20 -267 60 -375s94.5 -191.333 163.5 -250s145.5 -88 229.5 -88
c87.333 0 164.166 30.5 230.499 91.5s117.5 146 153.5 255s54 233.833 54 374.5c0 142 -20 267 -60 375s-94.333 191.333 -163 250s-145 88 -229 88c-87.333 0 -164.333 -30.5 -231 -91.5zM597.501 1802.5c18.333 -11 33.001 -25.668 44.001 -44.001
s16.5 -37.833 16.5 -58.5c0 -21.333 -5.5 -41.166 -16.5 -59.499s-25.667 -32.833 -44 -43.5s-37.833 -16 -58.5 -16c-32.667 0 -60.667 11.667 -84 35s-35 51.333 -35 84c0 20.667 5.33301 40.167 16 58.5s25.167 33 43.5 44s38.166 16.5 59.499 16.5
c20.667 0 40.167 -5.5 58.5 -16.5zM1031.5 1802.5c18.333 -11 33.001 -25.668 44.001 -44.001s16.5 -37.833 16.5 -58.5c0 -21.333 -5.5 -41.166 -16.5 -59.499s-25.5 -32.833 -43.5 -43.5s-37.667 -16 -59 -16c-32.667 0 -60.667 11.667 -84 35s-35 51.333 -35 84
c0 20.667 5.33301 40.167 16 58.5s25.167 33 43.5 44s38.166 16.5 59.499 16.5c20.667 0 40.167 -5.5 58.5 -16.5z" />
    <glyph glyph-name="multiply" unicode="&#xd7;" horiz-adv-x="1044" 
d="M879 1126l45 -45l-355 -352l355 -354l-45 -45l-355 354l-356 -356l-45 45l356 354l-358 358l45 45l358 -358z" />
    <glyph glyph-name="Oslash" unicode="&#xd8;" horiz-adv-x="1518" 
d="M1353.5 1076c37 -98.667 55.501 -211.667 55.501 -339c0 -150.667 -27.667 -284 -83 -400s-132.333 -206 -231 -270s-211 -96 -337 -96c-156.667 0 -289.334 42.333 -398.001 127l-167 -248l-43 29l172 252c-68.667 64.667 -121.334 146.167 -158.001 244.5
s-55 210.833 -55 337.5c0 150.667 27.667 284 83 400s132.333 206 231 270s211 96 337 96c156.667 0 289.334 -42.333 398.001 -127l159 231l39 -27l-161 -236c68.667 -64 121.5 -145.333 158.5 -244zM929.501 1391.5c-55 33.667 -114.167 50.5 -177.5 50.5
c-87.333 0 -164.333 -30.5 -231 -91.5s-118 -146 -154 -255s-54 -233.833 -54 -374.5c0 -186.667 34.333 -344 103 -472l657 999c-40.667 62 -88.5 109.833 -143.5 143.5zM589.501 57.5c55 -33 113.834 -49.5 176.501 -49.5c87.333 0 164.166 30.5 230.499 91.5
s117.5 146 153.5 255s54 233.833 54 374.5c0 186.667 -34.333 344 -103 472l-655 -1001c40.667 -62 88.5 -109.5 143.5 -142.5z" />
    <glyph glyph-name="Ugrave" unicode="&#xd9;" horiz-adv-x="1397" 
d="M1235.5 1388.5c-23 -11.667 -38.6699 -30.832 -47.0029 -57.499s-12.5 -66.334 -12.5 -119.001v-616c0 -98 -6.5 -182.167 -19.5 -252.5s-34.5 -130.833 -64.5 -181.5c-34.667 -58.667 -85.167 -105.167 -151.5 -139.5s-140.833 -51.5 -223.5 -51.5
c-150 0 -264.667 37 -344 111c-40.667 38 -71.834 78.167 -93.501 120.5s-36.834 93.5 -45.501 153.5s-13 138 -13 234v643c0 51.333 -4.16699 88.666 -12.5 111.999s-23.666 39.333 -45.999 48s-58.166 14 -107.499 16v41c58 -4 145.333 -6 262 -6c110 0 197 2 261 6v-41
c-49.333 -2 -85.166 -7.33301 -107.499 -16s-37.666 -24.667 -45.999 -48s-12.5 -60.666 -12.5 -111.999v-678c0 -109.333 7.33301 -200 22 -272s45.5 -130 92.5 -174s116.5 -66 208.5 -66c144.667 0 246.334 46.333 305.001 139s88 223 88 391v639
c0 50.667 -5.83301 89.667 -17.5 117s-30.667 47 -57 59s-63.5 19 -111.5 21v41c49.333 -4 119 -6 209 -6c82 0 145.333 2 190 6v-41c-47.333 -2 -82.5 -8.83301 -105.5 -20.5zM709.497 1644.5c-39.667 17 -89 36.8301 -148 59.4971s-102.167 42.334 -129.5 59.001
c-36 24 -54 51 -54 81c0 12.667 3.66699 25.334 11 38.001c15.333 22.667 36.333 34 63 34c20.667 0 41.334 -6.66699 62.001 -20c27.333 -17.333 60.166 -43.666 98.499 -78.999l112 -101c36.333 -32 80.833 -68 133.5 -108l-14 -27c-50 25.333 -94.833 46.5 -134.5 63.5z
" />
    <glyph glyph-name="Uacute" unicode="&#xda;" horiz-adv-x="1397" 
d="M1235.5 1388.5c-23 -11.667 -38.6699 -30.832 -47.0029 -57.499s-12.5 -66.334 -12.5 -119.001v-616c0 -98 -6.5 -182.167 -19.5 -252.5s-34.5 -130.833 -64.5 -181.5c-34.667 -58.667 -85.167 -105.167 -151.5 -139.5s-140.833 -51.5 -223.5 -51.5
c-150 0 -264.667 37 -344 111c-40.667 38 -71.834 78.167 -93.501 120.5s-36.834 93.5 -45.501 153.5s-13 138 -13 234v643c0 51.333 -4.16699 88.666 -12.5 111.999s-23.666 39.333 -45.999 48s-58.166 14 -107.499 16v41c58 -4 145.333 -6 262 -6c110 0 197 2 261 6v-41
c-49.333 -2 -85.166 -7.33301 -107.499 -16s-37.666 -24.667 -45.999 -48s-12.5 -60.666 -12.5 -111.999v-678c0 -109.333 7.33301 -200 22 -272s45.5 -130 92.5 -174s116.5 -66 208.5 -66c144.667 0 246.334 46.333 305.001 139s88 223 88 391v639
c0 50.667 -5.83301 89.667 -17.5 117s-30.667 47 -57 59s-63.5 19 -111.5 21v41c49.333 -4 119 -6 209 -6c82 0 145.333 2 190 6v-41c-47.333 -2 -82.5 -8.83301 -105.5 -20.5zM709.497 1699.5l118.999 106.002c47 43 84.167 73.167 111.5 90.5
c20.667 13.333 41.334 20 62.001 20c26.667 0 47.667 -11.333 63 -34c7.33301 -12.667 11 -25.334 11 -38.001c0 -30 -18 -57 -54 -81c-27.333 -16.667 -65.166 -34.334 -113.499 -53.001l-141 -56c-45.667 -18.667 -98.167 -43 -157.5 -73l-14 27
c43.333 33.333 81.166 63.833 113.499 91.5z" />
    <glyph glyph-name="Ucircumflex" unicode="&#xdb;" horiz-adv-x="1397" 
d="M1235.5 1388.5c-23 -11.667 -38.6699 -30.832 -47.0029 -57.499s-12.5 -66.334 -12.5 -119.001v-616c0 -98 -6.5 -182.167 -19.5 -252.5s-34.5 -130.833 -64.5 -181.5c-34.667 -58.667 -85.167 -105.167 -151.5 -139.5s-140.833 -51.5 -223.5 -51.5
c-150 0 -264.667 37 -344 111c-40.667 38 -71.834 78.167 -93.501 120.5s-36.834 93.5 -45.501 153.5s-13 138 -13 234v643c0 51.333 -4.16699 88.666 -12.5 111.999s-23.666 39.333 -45.999 48s-58.166 14 -107.499 16v41c58 -4 145.333 -6 262 -6c110 0 197 2 261 6v-41
c-49.333 -2 -85.166 -7.33301 -107.499 -16s-37.666 -24.667 -45.999 -48s-12.5 -60.666 -12.5 -111.999v-678c0 -109.333 7.33301 -200 22 -272s45.5 -130 92.5 -174s116.5 -66 208.5 -66c144.667 0 246.334 46.333 305.001 139s88 223 88 391v639
c0 50.667 -5.83301 89.667 -17.5 117s-30.667 47 -57 59s-63.5 19 -111.5 21v41c49.333 -4 119 -6 209 -6c82 0 145.333 2 190 6v-41c-47.333 -2 -82.5 -8.83301 -105.5 -20.5zM889.497 1723.5c67.667 -48.333 145.499 -87.5 233.499 -117.5l-11 -29
c-82.667 17.333 -163.667 39.166 -243 65.499s-142.333 52.166 -189 77.499c-38.667 -25.333 -90.167 -51.166 -154.5 -77.499s-129.5 -48.166 -195.5 -65.499l-10 29c87.333 30 164.833 69.167 232.5 117.5s117.834 99.166 150.501 152.499h37
c32 -53.333 81.833 -104.166 149.5 -152.499z" />
    <glyph glyph-name="Udieresis" unicode="&#xdc;" horiz-adv-x="1397" 
d="M1235.5 1388.5c-23 -11.667 -38.6699 -30.832 -47.0029 -57.499s-12.5 -66.334 -12.5 -119.001v-616c0 -98 -6.5 -182.167 -19.5 -252.5s-34.5 -130.833 -64.5 -181.5c-34.667 -58.667 -85.167 -105.167 -151.5 -139.5s-140.833 -51.5 -223.5 -51.5
c-150 0 -264.667 37 -344 111c-40.667 38 -71.834 78.167 -93.501 120.5s-36.834 93.5 -45.501 153.5s-13 138 -13 234v643c0 51.333 -4.16699 88.666 -12.5 111.999s-23.666 39.333 -45.999 48s-58.166 14 -107.499 16v41c58 -4 145.333 -6 262 -6c110 0 197 2 261 6v-41
c-49.333 -2 -85.166 -7.33301 -107.499 -16s-37.666 -24.667 -45.999 -48s-12.5 -60.666 -12.5 -111.999v-678c0 -109.333 7.33301 -200 22 -272s45.5 -130 92.5 -174s116.5 -66 208.5 -66c144.667 0 246.334 46.333 305.001 139s88 223 88 391v639
c0 50.667 -5.83301 89.667 -17.5 117s-30.667 47 -57 59s-63.5 19 -111.5 21v41c49.333 -4 119 -6 209 -6c82 0 145.333 2 190 6v-41c-47.333 -2 -82.5 -8.83301 -105.5 -20.5zM562.497 1802.5c18.333 -11 33.001 -25.668 44.001 -44.001s16.5 -37.833 16.5 -58.5
c0 -21.333 -5.5 -41.166 -16.5 -59.499s-25.667 -32.833 -44 -43.5s-37.833 -16 -58.5 -16c-32.667 0 -60.667 11.667 -84 35s-35 51.333 -35 84c0 20.667 5.33301 40.167 16 58.5s25.167 33 43.5 44s38.166 16.5 59.499 16.5c20.667 0 40.167 -5.5 58.5 -16.5z
M996.498 1802.5c18.333 -11 33.001 -25.668 44.001 -44.001s16.5 -37.833 16.5 -58.5c0 -21.333 -5.5 -41.166 -16.5 -59.499s-25.5 -32.833 -43.5 -43.5s-37.667 -16 -59 -16c-32.667 0 -60.667 11.667 -84 35s-35 51.333 -35 84c0 20.667 5.33301 40.167 16 58.5
s25.167 33 43.5 44s38.166 16.5 59.499 16.5c20.667 0 40.167 -5.5 58.5 -16.5z" />
    <glyph glyph-name="Yacute" unicode="&#xdd;" horiz-adv-x="1210" 
d="M1051 1444c61.333 0 112.334 2.00098 153.001 6.00098v-41c-27.333 -6 -54 -23.167 -80 -51.5s-54 -71.833 -84 -130.5l-321 -637v-373c0 -51.333 4.16699 -88.666 12.5 -111.999s23.666 -39.333 45.999 -48s58.166 -14 107.499 -16v-41c-64 4 -150.667 6 -260 6
c-117.333 0 -205 -2 -263 -6v41c49.333 2 85.166 7.33301 107.499 16s37.666 24.667 45.999 48s12.5 60.666 12.5 111.999v309l-415 766c-25.333 46 -47.166 76.667 -65.499 92s-36.166 23 -53.499 23v43c53.333 -4 113.333 -6 180 -6c132.667 0 228.334 2 287.001 6v-43
c-96 0 -144 -26.333 -144 -79c0 -20 7 -43.667 21 -71l341 -653l261 520c37.333 75.333 56 134 56 176c0 38.667 -15 66.167 -45 82.5s-75.333 25.166 -136 26.499v41c78 -4 156.667 -6 236 -6zM611.501 1699.5l118.999 106.002c47 43 84.167 73.167 111.5 90.5
c20.667 13.333 41.334 20 62.001 20c26.667 0 47.667 -11.333 63 -34c7.33301 -12.667 11 -25.334 11 -38.001c0 -30 -18 -57 -54 -81c-27.333 -16.667 -65.166 -34.334 -113.499 -53.001l-141 -56c-45.667 -18.667 -98.167 -43 -157.5 -73l-14 27
c43.333 33.333 81.166 63.833 113.499 91.5z" />
    <glyph glyph-name="Thorn" unicode="&#xde;" horiz-adv-x="1188" 
d="M442 217c0 -51.333 4.16699 -88.665 12.5 -111.998s23.666 -39.333 45.999 -48s58.166 -14 107.499 -16v-41c-62.667 4 -149.334 6 -260.001 6c-117.333 0 -204.666 -2 -261.999 -6v41c49.333 2 85.166 7.33301 107.499 16s37.666 24.667 45.999 48
s12.5 60.666 12.5 111.999v1016c0 51.333 -4.16699 88.666 -12.5 111.999s-23.666 39.333 -45.999 48s-58.166 14 -107.499 16v41c57.333 -4 144.666 -6 261.999 -6c110.667 0 197.334 2 260.001 6v-41c-49.333 -2 -85.166 -7.33301 -107.499 -16
s-37.666 -24.667 -45.999 -48s-12.5 -60.666 -12.5 -111.999v-91c144 2 207 3 189 3c106.667 0 197 -17.333 271 -52s129.5 -82.167 166.5 -142.5s55.5 -128.833 55.5 -205.5c0 -77.333 -16.5 -150.833 -49.5 -220.5s-89.667 -127.334 -170 -173.001
s-186.5 -68.5 -318.5 -68.5h-144v-66zM843 434.001c51.333 73.333 77 173 77 299c0 125.333 -26.5 218.833 -79.5 280.5s-139.833 92.5 -260.5 92.5c-31.333 0 -77.333 -0.666992 -138 -2v-780h123c134 0 226.667 36.667 278 110z" />
    <glyph glyph-name="germandbls" unicode="&#xdf;" horiz-adv-x="1196" 
d="M306 1483c71.333 79.333 169.994 119.004 295.994 119.004c116.667 0 206.334 -26 269.001 -78s94 -123.667 94 -215c0 -65.333 -19.833 -127.166 -59.5 -185.499s-86.667 -107.833 -141 -148.5s-103.833 -70 -148.5 -88c89.333 -20.667 171.5 -55.667 246.5 -105
s135 -110.5 180 -183.5s67.5 -153.167 67.5 -240.5c0 -77.333 -17 -145.333 -51 -204s-79.333 -103.834 -136 -135.501s-118 -47.5 -184 -47.5c-39.333 0 -78.166 6.5 -116.499 19.5s-70.166 32.833 -95.499 59.5s-38 59 -38 97c0 33.333 9.5 60.166 28.5 80.499
s45.167 30.5 78.5 30.5c31.333 0 57.333 -9 78 -27s31 -42.333 31 -73c0 -52.667 -29.667 -88.334 -89 -107.001c4.66699 -12.667 17.334 -24 38.001 -34s43.667 -15 69 -15c34.667 0 67.5 10.5 98.5 31.5s56.5 55.167 76.5 102.5s30 108.333 30 183
c0 80 -12.333 157.5 -37 232.5s-62.667 140.667 -114 197s-114.333 96.166 -189 119.499c-32.667 -20 -58 -30 -76 -30c-10.667 0 -20.167 3 -28.5 9s-12.5 14.333 -12.5 25c0 12 4 21.5 12 28.5s19.667 10.5 35 10.5c20.667 0 45.334 -5.33301 74.001 -16
c67.333 52 115.5 110 144.5 174s43.5 141 43.5 231c0 87.333 -17 154.333 -51 201s-83.667 70 -149 70c-52 0 -97.833 -20.667 -137.5 -62s-59.5 -118.333 -59.5 -231v-1301c-54 19.333 -125 29 -213 29c-41.333 0 -83.666 -2 -126.999 -6v43c58 0 98.5 14.167 121.5 42.5
s34.5 74.166 34.5 137.499v879c0 174.667 35.667 301.667 107 381z" />
    <glyph glyph-name="agrave" unicode="&#xe0;" horiz-adv-x="1020" 
d="M605.5 998.5c-33 29 -79.8311 43.5029 -140.498 43.5029c-96.667 0 -164.334 -24.333 -203.001 -73c27.333 -6.66699 50.166 -21.167 68.499 -43.5s27.5 -49.5 27.5 -81.5c0 -34.667 -10.833 -61.834 -32.5 -81.501s-50.834 -29.5 -87.501 -29.5
c-34.667 0 -61.834 11.667 -81.501 35s-29.5 54 -29.5 92c0 53.333 32 102 96 146c33.333 22 74.5 40.333 123.5 55s103.5 22 163.5 22c56 0 105.333 -6.83301 148 -20.5s76 -32.5 100 -56.5c31.333 -32 52.833 -69.167 64.5 -111.5s17.5 -100.833 17.5 -175.5v-569
c0 -34 4.83301 -58.667 14.5 -74s25.834 -23 48.501 -23c16.667 0 32 3.66699 46 11s29.333 18 46 32l23 -35c-24 -18 -44 -32 -60 -42s-34.333 -18 -55 -24s-44.667 -9 -72 -9c-66 0 -111.833 16.5 -137.5 49.5s-38.5 77.167 -38.5 132.5c-40 -66 -88 -112.833 -144 -140.5
s-113 -41.5 -171 -41.5c-47.333 0 -90.666 8.16699 -129.999 24.5s-70.833 41.666 -94.5 75.999s-35.5 77.166 -35.5 128.499c0 52 12.667 96.333 38 133s61 68.834 107 96.501s107.667 57.834 185 90.501l98 40c52 21.333 89.5 42.666 112.5 63.999
s34.5 44.666 34.5 69.999v127c0 79.333 -16.5 133.5 -49.5 162.5zM605.002 582.003c-23.333 -13.333 -72.002 -38.001 -146.002 -74.001c-39.333 -18.667 -72.666 -37.834 -99.999 -57.501s-50.666 -46.167 -69.999 -79.5s-29 -74.333 -29 -123
c0 -59.333 15 -104.166 45 -134.499s69.667 -45.5 119 -45.5c90.667 0 167.667 51.667 231 155v402c-10 -15.333 -26.667 -29.666 -50 -42.999zM472.5 1329.5l-118.5 107c-48 42.333 -82 76.166 -102 101.499c-18.667 24.667 -28 48 -28 70c0 22.667 9.33301 41.667 28 57
c12.667 10 27.334 15 44.001 15c29.333 0 55.666 -15.333 78.999 -46c19.333 -25.333 41 -61.166 65 -107.499l70.5 -134c23 -43 52.167 -92.167 87.5 -147.5l-23 -18c-37.333 39.333 -71.5 73.5 -102.5 102.5z" />
    <glyph glyph-name="aacute" unicode="&#xe1;" horiz-adv-x="1020" 
d="M605.5 998.5c-33 29 -79.8311 43.5029 -140.498 43.5029c-96.667 0 -164.334 -24.333 -203.001 -73c27.333 -6.66699 50.166 -21.167 68.499 -43.5s27.5 -49.5 27.5 -81.5c0 -34.667 -10.833 -61.834 -32.5 -81.501s-50.834 -29.5 -87.501 -29.5
c-34.667 0 -61.834 11.667 -81.501 35s-29.5 54 -29.5 92c0 53.333 32 102 96 146c33.333 22 74.5 40.333 123.5 55s103.5 22 163.5 22c56 0 105.333 -6.83301 148 -20.5s76 -32.5 100 -56.5c31.333 -32 52.833 -69.167 64.5 -111.5s17.5 -100.833 17.5 -175.5v-569
c0 -34 4.83301 -58.667 14.5 -74s25.834 -23 48.501 -23c16.667 0 32 3.66699 46 11s29.333 18 46 32l23 -35c-24 -18 -44 -32 -60 -42s-34.333 -18 -55 -24s-44.667 -9 -72 -9c-66 0 -111.833 16.5 -137.5 49.5s-38.5 77.167 -38.5 132.5c-40 -66 -88 -112.833 -144 -140.5
s-113 -41.5 -171 -41.5c-47.333 0 -90.666 8.16699 -129.999 24.5s-70.833 41.666 -94.5 75.999s-35.5 77.166 -35.5 128.499c0 52 12.667 96.333 38 133s61 68.834 107 96.501s107.667 57.834 185 90.501l98 40c52 21.333 89.5 42.666 112.5 63.999
s34.5 44.666 34.5 69.999v127c0 79.333 -16.5 133.5 -49.5 162.5zM605.002 582.003c-23.333 -13.333 -72.002 -38.001 -146.002 -74.001c-39.333 -18.667 -72.666 -37.834 -99.999 -57.501s-50.666 -46.167 -69.999 -79.5s-29 -74.333 -29 -123
c0 -59.333 15 -104.166 45 -134.499s69.667 -45.5 119 -45.5c90.667 0 167.667 51.667 231 155v402c-10 -15.333 -26.667 -29.666 -50 -42.999zM452 1370l75.001 140.999c29.333 56.667 53.666 97.667 72.999 123c23.333 30.667 49.333 46 78 46c16.667 0 31.667 -5 45 -15
c18.667 -15.333 28 -34.333 28 -57c0 -22 -9.33301 -45.333 -28 -70c-20 -25.333 -49.667 -55.166 -89 -89.499l-113 -100.5c-36 -32.667 -76.667 -73 -122 -121l-22 18c29.333 46 54.333 87.667 75 125z" />
    <glyph glyph-name="acircumflex" unicode="&#xe2;" horiz-adv-x="1020" 
d="M605.5 998.5c-33 29 -79.8311 43.5029 -140.498 43.5029c-96.667 0 -164.334 -24.333 -203.001 -73c27.333 -6.66699 50.166 -21.167 68.499 -43.5s27.5 -49.5 27.5 -81.5c0 -34.667 -10.833 -61.834 -32.5 -81.501s-50.834 -29.5 -87.501 -29.5
c-34.667 0 -61.834 11.667 -81.501 35s-29.5 54 -29.5 92c0 53.333 32 102 96 146c33.333 22 74.5 40.333 123.5 55s103.5 22 163.5 22c56 0 105.333 -6.83301 148 -20.5s76 -32.5 100 -56.5c31.333 -32 52.833 -69.167 64.5 -111.5s17.5 -100.833 17.5 -175.5v-569
c0 -34 4.83301 -58.667 14.5 -74s25.834 -23 48.501 -23c16.667 0 32 3.66699 46 11s29.333 18 46 32l23 -35c-24 -18 -44 -32 -60 -42s-34.333 -18 -55 -24s-44.667 -9 -72 -9c-66 0 -111.833 16.5 -137.5 49.5s-38.5 77.167 -38.5 132.5c-40 -66 -88 -112.833 -144 -140.5
s-113 -41.5 -171 -41.5c-47.333 0 -90.666 8.16699 -129.999 24.5s-70.833 41.666 -94.5 75.999s-35.5 77.166 -35.5 128.499c0 52 12.667 96.333 38 133s61 68.834 107 96.501s107.667 57.834 185 90.501l98 40c52 21.333 89.5 42.666 112.5 63.999
s34.5 44.666 34.5 69.999v127c0 79.333 -16.5 133.5 -49.5 162.5zM605.002 582.003c-23.333 -13.333 -72.002 -38.001 -146.002 -74.001c-39.333 -18.667 -72.666 -37.834 -99.999 -57.501s-50.666 -46.167 -69.999 -79.5s-29 -74.333 -29 -123
c0 -59.333 15 -104.166 45 -134.499s69.667 -45.5 119 -45.5c90.667 0 167.667 51.667 231 155v402c-10 -15.333 -26.667 -29.666 -50 -42.999zM655.5 1443c61 -63.333 130.5 -114.333 208.5 -153l-16 -28c-74 25.333 -146 56.5 -216 93.5s-126.333 73.833 -169 110.5
c-34.667 -36.667 -79.5 -73.5 -134.5 -110.5s-111.167 -68.167 -168.5 -93.5l-17 28c78 38.667 147.5 89.667 208.5 153s105.5 129.666 133.5 198.999h37c28 -69.333 72.5 -135.666 133.5 -198.999z" />
    <glyph glyph-name="atilde" unicode="&#xe3;" horiz-adv-x="1020" 
d="M605.5 998.5c-33 29 -79.8311 43.5029 -140.498 43.5029c-96.667 0 -164.334 -24.333 -203.001 -73c27.333 -6.66699 50.166 -21.167 68.499 -43.5s27.5 -49.5 27.5 -81.5c0 -34.667 -10.833 -61.834 -32.5 -81.501s-50.834 -29.5 -87.501 -29.5
c-34.667 0 -61.834 11.667 -81.501 35s-29.5 54 -29.5 92c0 53.333 32 102 96 146c33.333 22 74.5 40.333 123.5 55s103.5 22 163.5 22c56 0 105.333 -6.83301 148 -20.5s76 -32.5 100 -56.5c31.333 -32 52.833 -69.167 64.5 -111.5s17.5 -100.833 17.5 -175.5v-569
c0 -34 4.83301 -58.667 14.5 -74s25.834 -23 48.501 -23c16.667 0 32 3.66699 46 11s29.333 18 46 32l23 -35c-24 -18 -44 -32 -60 -42s-34.333 -18 -55 -24s-44.667 -9 -72 -9c-66 0 -111.833 16.5 -137.5 49.5s-38.5 77.167 -38.5 132.5c-40 -66 -88 -112.833 -144 -140.5
s-113 -41.5 -171 -41.5c-47.333 0 -90.666 8.16699 -129.999 24.5s-70.833 41.666 -94.5 75.999s-35.5 77.166 -35.5 128.499c0 52 12.667 96.333 38 133s61 68.834 107 96.501s107.667 57.834 185 90.501l98 40c52 21.333 89.5 42.666 112.5 63.999
s34.5 44.666 34.5 69.999v127c0 79.333 -16.5 133.5 -49.5 162.5zM605.002 582.003c-23.333 -13.333 -72.002 -38.001 -146.002 -74.001c-39.333 -18.667 -72.666 -37.834 -99.999 -57.501s-50.666 -46.167 -69.999 -79.5s-29 -74.333 -29 -123
c0 -59.333 15 -104.166 45 -134.499s69.667 -45.5 119 -45.5c90.667 0 167.667 51.667 231 155v402c-10 -15.333 -26.667 -29.666 -50 -42.999zM204.5 1521.5c43 34.333 92.501 51.5 148.501 51.5c34 0 63.333 -6.16699 88 -18.5s58.334 -34.833 101.001 -67.5
s82.667 -49 120 -49c62 0 114.667 36 158 108l29 -14c-20.667 -72 -52.5 -125.167 -95.5 -159.5s-91.833 -51.5 -146.5 -51.5c-35.333 0 -65.5 6.33301 -90.5 19s-58.833 35.5 -101.5 68.5s-82.334 49.5 -119.001 49.5c-60.667 0 -113.334 -36.667 -158.001 -110l-29 14
c20.667 72 52.5 125.167 95.5 159.5z" />
    <glyph glyph-name="adieresis" unicode="&#xe4;" horiz-adv-x="1020" 
d="M605.5 998.5c-33 29 -79.8311 43.5029 -140.498 43.5029c-96.667 0 -164.334 -24.333 -203.001 -73c27.333 -6.66699 50.166 -21.167 68.499 -43.5s27.5 -49.5 27.5 -81.5c0 -34.667 -10.833 -61.834 -32.5 -81.501s-50.834 -29.5 -87.501 -29.5
c-34.667 0 -61.834 11.667 -81.501 35s-29.5 54 -29.5 92c0 53.333 32 102 96 146c33.333 22 74.5 40.333 123.5 55s103.5 22 163.5 22c56 0 105.333 -6.83301 148 -20.5s76 -32.5 100 -56.5c31.333 -32 52.833 -69.167 64.5 -111.5s17.5 -100.833 17.5 -175.5v-569
c0 -34 4.83301 -58.667 14.5 -74s25.834 -23 48.501 -23c16.667 0 32 3.66699 46 11s29.333 18 46 32l23 -35c-24 -18 -44 -32 -60 -42s-34.333 -18 -55 -24s-44.667 -9 -72 -9c-66 0 -111.833 16.5 -137.5 49.5s-38.5 77.167 -38.5 132.5c-40 -66 -88 -112.833 -144 -140.5
s-113 -41.5 -171 -41.5c-47.333 0 -90.666 8.16699 -129.999 24.5s-70.833 41.666 -94.5 75.999s-35.5 77.166 -35.5 128.499c0 52 12.667 96.333 38 133s61 68.834 107 96.501s107.667 57.834 185 90.501l98 40c52 21.333 89.5 42.666 112.5 63.999
s34.5 44.666 34.5 69.999v127c0 79.333 -16.5 133.5 -49.5 162.5zM605.002 582.003c-23.333 -13.333 -72.002 -38.001 -146.002 -74.001c-39.333 -18.667 -72.666 -37.834 -99.999 -57.501s-50.666 -46.167 -69.999 -79.5s-29 -74.333 -29 -123
c0 -59.333 15 -104.166 45 -134.499s69.667 -45.5 119 -45.5c90.667 0 167.667 51.667 231 155v402c-10 -15.333 -26.667 -29.666 -50 -42.999zM347.5 1505.5c18.333 -11 33.001 -25.668 44.001 -44.001s16.5 -37.833 16.5 -58.5c0 -21.333 -5.5 -41.166 -16.5 -59.499
s-25.5 -32.833 -43.5 -43.5s-37.667 -16 -59 -16c-32.667 0 -60.667 11.667 -84 35s-35 51.333 -35 84c0 20.667 5.33301 40.167 16 58.5s25.167 33 43.5 44s38.166 16.5 59.499 16.5c20.667 0 40.167 -5.5 58.5 -16.5zM781.501 1505.5c18.333 -11 33 -25.668 44 -44.001
s16.5 -37.833 16.5 -58.5c0 -21.333 -5.5 -41.166 -16.5 -59.499s-25.5 -32.833 -43.5 -43.5s-37.667 -16 -59 -16c-32.667 0 -60.5 11.667 -83.5 35s-34.5 51.333 -34.5 84c0 20.667 5.33301 40.167 16 58.5s25 33 43 44s37.667 16.5 59 16.5
c20.667 0 40.167 -5.5 58.5 -16.5z" />
    <glyph glyph-name="aring" unicode="&#xe5;" horiz-adv-x="1020" 
d="M605.5 998.5c-33 29 -79.8311 43.5029 -140.498 43.5029c-96.667 0 -164.334 -24.333 -203.001 -73c27.333 -6.66699 50.166 -21.167 68.499 -43.5s27.5 -49.5 27.5 -81.5c0 -34.667 -10.833 -61.834 -32.5 -81.501s-50.834 -29.5 -87.501 -29.5
c-34.667 0 -61.834 11.667 -81.501 35s-29.5 54 -29.5 92c0 53.333 32 102 96 146c33.333 22 74.5 40.333 123.5 55s103.5 22 163.5 22c56 0 105.333 -6.83301 148 -20.5s76 -32.5 100 -56.5c31.333 -32 52.833 -69.167 64.5 -111.5s17.5 -100.833 17.5 -175.5v-569
c0 -34 4.83301 -58.667 14.5 -74s25.834 -23 48.501 -23c16.667 0 32 3.66699 46 11s29.333 18 46 32l23 -35c-24 -18 -44 -32 -60 -42s-34.333 -18 -55 -24s-44.667 -9 -72 -9c-66 0 -111.833 16.5 -137.5 49.5s-38.5 77.167 -38.5 132.5c-40 -66 -88 -112.833 -144 -140.5
s-113 -41.5 -171 -41.5c-47.333 0 -90.666 8.16699 -129.999 24.5s-70.833 41.666 -94.5 75.999s-35.5 77.166 -35.5 128.499c0 52 12.667 96.333 38 133s61 68.834 107 96.501s107.667 57.834 185 90.501l98 40c52 21.333 89.5 42.666 112.5 63.999
s34.5 44.666 34.5 69.999v127c0 79.333 -16.5 133.5 -49.5 162.5zM605.002 582.003c-23.333 -13.333 -72.002 -38.001 -146.002 -74.001c-39.333 -18.667 -72.666 -37.834 -99.999 -57.501s-50.666 -46.167 -69.999 -79.5s-29 -74.333 -29 -123
c0 -59.333 15 -104.166 45 -134.499s69.667 -45.5 119 -45.5c90.667 0 167.667 51.667 231 155v402c-10 -15.333 -26.667 -29.666 -50 -42.999zM603.5 1597c30.333 -15.333 54.5 -37.166 72.5 -65.499s27 -60.833 27 -97.5c0 -38 -9 -71.333 -27 -100
s-42.167 -50.667 -72.5 -66s-63.5 -23 -99.5 -23c-35.333 0 -67.833 7.66699 -97.5 23s-53.5 37.333 -71.5 66s-27 62 -27 100c0 36.667 9 69.167 27 97.5s42 50.166 72 65.499s62.333 23 97 23c36 0 69.167 -7.66699 99.5 -23zM438 1560
c-21.333 -11.333 -38.834 -28 -52.501 -50s-20.5 -48 -20.5 -78c0 -30.667 6.83301 -56.834 20.5 -78.501s31.167 -38 52.5 -49s43.333 -16.5 66 -16.5c24 0 46.833 5.5 68.5 16.5s39.334 27.333 53.001 49s20.5 47.834 20.5 78.501c0 30 -6.83301 56 -20.5 78
s-31.5 38.667 -53.5 50s-44.667 17 -68 17c-22.667 0 -44.667 -5.66699 -66 -17z" />
    <glyph glyph-name="ae" unicode="&#xe6;" horiz-adv-x="1520" 
d="M829 502c0 -90 13.499 -168.67 40.499 -236.003s62.667 -119 107 -155s91.5 -54 141.5 -54c56.667 0 106.667 15.833 150 47.5s80 84.167 110 157.5l41 -16c-14.667 -48 -37.5 -92.833 -68.5 -134.5s-69.833 -75.5 -116.5 -101.5s-99 -39 -157 -39
c-93.333 0 -172.166 22.5 -236.499 67.5s-112.166 109.833 -143.499 194.5c-76.667 -174.667 -193.667 -262 -351 -262c-46 0 -88.833 7.83301 -128.5 23.5s-71.834 40.334 -96.501 74.001s-37 76.5 -37 128.5c0 55.333 12.667 102.833 38 142.5s60.5 73.834 105.5 102.501
s103.5 58.667 175.5 90l100.5 43.5c53 23 90.5 44.833 112.5 65.5s33 43.334 33 68.001v127c0 137.333 -66.667 206 -200 206c-38 0 -75 -5.5 -111 -16.5s-64.667 -29.833 -86 -56.5c26.667 -6 47.667 -18 63 -36s23 -41 23 -69c0 -33.333 -10.833 -60 -32.5 -80
s-48.5 -30 -80.5 -30c-31.333 0 -57.166 10.167 -77.499 30.5s-30.5 46.166 -30.5 77.499c0 54.667 32 104 96 148c71.333 48.667 165 73 281 73c68 0 125.833 -9.83301 173.5 -29.5s85.167 -53.167 112.5 -100.5c71.333 86.667 167.666 130 288.999 130
c116 0 205.5 -37.167 268.5 -111.5s94.5 -187.166 94.5 -338.499h-596c-4.66699 -34 -7 -77.667 -7 -131zM1219.5 859.497c-12.333 56.333 -31.999 101.168 -58.999 134.501s-60.167 50 -99.5 50c-38.667 0 -74 -13.333 -106 -40s-58.833 -67.834 -80.5 -123.501
s-35.834 -125.167 -42.501 -208.5h403c2 68.667 -3.16699 131.167 -15.5 187.5zM483 519.999c-71.333 -34.667 -125.667 -74.168 -163 -118.501s-56 -101.166 -56 -170.499c0 -62.667 15.333 -108 46 -136s68.667 -42 114 -42c94.667 0 169.667 56.667 225 170v402
c-24 -28 -79.333 -63 -166 -105z" />
    <glyph glyph-name="ccedilla" unicode="&#xe7;" horiz-adv-x="995" 
d="M853 118.5c-32 -43 -73.833 -78.334 -125.5 -106.001s-111.834 -41.5 -180.501 -41.5c-85.333 0 -162.333 22 -231 66s-122.834 107 -162.501 189s-59.5 178 -59.5 288c0 110.667 20.167 209.167 60.5 295.5s96.833 153.5 169.5 201.5s155 72 247 72
s171.333 -21.667 238 -65c64 -43.333 96 -96 96 -158c0 -36 -10.167 -64.167 -30.5 -84.5s-46.166 -30.5 -77.499 -30.5c-32 0 -58.833 9.16699 -80.5 27.5s-32.5 43.5 -32.5 75.5c0 29.333 8.16699 53.833 24.5 73.5s36.833 32.834 61.5 39.501
c-13.333 24.667 -37.666 45.167 -72.999 61.5s-72.333 24.5 -111 24.5c-50 0 -97 -16 -141 -48s-80.333 -85.333 -109 -160s-43 -172.667 -43 -294c0 -170 27.333 -293.5 82 -370.5s125.667 -115.5 213 -115.5c58 0 113.5 17 166.5 51s96.5 87.333 130.5 160l39 -14
c-15.333 -48.667 -39 -94.5 -71 -137.5zM610 -133.001c38.667 0 69.167 -8.5 91.5 -25.5s33.5 -40.5 33.5 -70.5c0 -36 -11.833 -65.667 -35.5 -89s-53.167 -40.333 -88.5 -51s-71.333 -16 -108 -16c-70 0 -126.667 7.66699 -170 23l9 36c28 -4 53.667 -6 77 -6
c49.333 0 92.5 7.16699 129.5 21.5s55.5 37.833 55.5 70.5c0 38.667 -28.667 58 -86 58c-39.333 0 -73 -5 -101 -15l70 209h55l-53 -159c40.667 9.33301 81 14 121 14z" />
    <glyph glyph-name="egrave" unicode="&#xe8;" horiz-adv-x="1036" 
d="M871.5 111.5c-35 -41.667 -78.666 -75.5 -130.999 -101.5s-110.833 -39 -175.5 -39c-97.333 0 -181.5 22.167 -252.5 66.5s-125.167 106.666 -162.5 186.999s-56 172.833 -56 277.5c0 118.667 19 221.667 57 309s91.833 154.5 161.5 201.5s151.167 70.5 244.5 70.5
c122.667 0 217.167 -37.167 283.5 -111.5s99.5 -187.166 99.5 -338.499h-640c-4.66699 -35.333 -7 -79 -7 -131c0 -90 14.833 -168.667 44.5 -236s68.5 -119 116.5 -155s98.667 -54 152 -54c137.333 0 237.666 68.333 300.999 205l41 -16
c-16 -48 -41.5 -92.833 -76.5 -134.5zM726.001 859c-14 56.667 -36.001 101.668 -66.001 135.001s-67 50 -111 50c-42 0 -80.667 -13.5 -116 -40.5s-65.166 -68.333 -89.499 -124s-39.833 -124.834 -46.5 -207.501h446c2.66699 68 -3 130.333 -17 187zM523.5 1329.5
l-118.5 107c-48 42.333 -82 76.166 -102 101.499c-18.667 24.667 -28 48 -28 70c0 22.667 9.33301 41.667 28 57c12.667 10 27.334 15 44.001 15c29.333 0 55.666 -15.333 78.999 -46c19.333 -25.333 41 -61.166 65 -107.499l70.5 -134c23 -43 52.167 -92.167 87.5 -147.5
l-23 -18c-37.333 39.333 -71.5 73.5 -102.5 102.5z" />
    <glyph glyph-name="eacute" unicode="&#xe9;" horiz-adv-x="1036" 
d="M871.5 111.5c-35 -41.667 -78.666 -75.5 -130.999 -101.5s-110.833 -39 -175.5 -39c-97.333 0 -181.5 22.167 -252.5 66.5s-125.167 106.666 -162.5 186.999s-56 172.833 -56 277.5c0 118.667 19 221.667 57 309s91.833 154.5 161.5 201.5s151.167 70.5 244.5 70.5
c122.667 0 217.167 -37.167 283.5 -111.5s99.5 -187.166 99.5 -338.499h-640c-4.66699 -35.333 -7 -79 -7 -131c0 -90 14.833 -168.667 44.5 -236s68.5 -119 116.5 -155s98.667 -54 152 -54c137.333 0 237.666 68.333 300.999 205l41 -16
c-16 -48 -41.5 -92.833 -76.5 -134.5zM726.001 859c-14 56.667 -36.001 101.668 -66.001 135.001s-67 50 -111 50c-42 0 -80.667 -13.5 -116 -40.5s-65.166 -68.333 -89.499 -124s-39.833 -124.834 -46.5 -207.501h446c2.66699 68 -3 130.333 -17 187zM503 1370
l75.001 140.999c29.333 56.667 53.666 97.667 72.999 123c23.333 30.667 49.333 46 78 46c16.667 0 31.667 -5 45 -15c18.667 -15.333 28 -34.333 28 -57c0 -22 -9.33301 -45.333 -28 -70c-20 -25.333 -49.667 -55.166 -89 -89.499l-113 -100.5
c-36 -32.667 -76.667 -73 -122 -121l-22 18c29.333 46 54.333 87.667 75 125z" />
    <glyph glyph-name="ecircumflex" unicode="&#xea;" horiz-adv-x="1036" 
d="M871.5 111.5c-35 -41.667 -78.666 -75.5 -130.999 -101.5s-110.833 -39 -175.5 -39c-97.333 0 -181.5 22.167 -252.5 66.5s-125.167 106.666 -162.5 186.999s-56 172.833 -56 277.5c0 118.667 19 221.667 57 309s91.833 154.5 161.5 201.5s151.167 70.5 244.5 70.5
c122.667 0 217.167 -37.167 283.5 -111.5s99.5 -187.166 99.5 -338.499h-640c-4.66699 -35.333 -7 -79 -7 -131c0 -90 14.833 -168.667 44.5 -236s68.5 -119 116.5 -155s98.667 -54 152 -54c137.333 0 237.666 68.333 300.999 205l41 -16
c-16 -48 -41.5 -92.833 -76.5 -134.5zM726.001 859c-14 56.667 -36.001 101.668 -66.001 135.001s-67 50 -111 50c-42 0 -80.667 -13.5 -116 -40.5s-65.166 -68.333 -89.499 -124s-39.833 -124.834 -46.5 -207.501h446c2.66699 68 -3 130.333 -17 187zM706.5 1443
c61 -63.333 130.5 -114.333 208.5 -153l-16 -28c-74 25.333 -146 56.5 -216 93.5s-126.333 73.833 -169 110.5c-34.667 -36.667 -79.5 -73.5 -134.5 -110.5s-111.167 -68.167 -168.5 -93.5l-17 28c78 38.667 147.5 89.667 208.5 153s105.5 129.666 133.5 198.999h37
c28 -69.333 72.5 -135.666 133.5 -198.999z" />
    <glyph glyph-name="edieresis" unicode="&#xeb;" horiz-adv-x="1036" 
d="M871.5 111.5c-35 -41.667 -78.666 -75.5 -130.999 -101.5s-110.833 -39 -175.5 -39c-97.333 0 -181.5 22.167 -252.5 66.5s-125.167 106.666 -162.5 186.999s-56 172.833 -56 277.5c0 118.667 19 221.667 57 309s91.833 154.5 161.5 201.5s151.167 70.5 244.5 70.5
c122.667 0 217.167 -37.167 283.5 -111.5s99.5 -187.166 99.5 -338.499h-640c-4.66699 -35.333 -7 -79 -7 -131c0 -90 14.833 -168.667 44.5 -236s68.5 -119 116.5 -155s98.667 -54 152 -54c137.333 0 237.666 68.333 300.999 205l41 -16
c-16 -48 -41.5 -92.833 -76.5 -134.5zM726.001 859c-14 56.667 -36.001 101.668 -66.001 135.001s-67 50 -111 50c-42 0 -80.667 -13.5 -116 -40.5s-65.166 -68.333 -89.499 -124s-39.833 -124.834 -46.5 -207.501h446c2.66699 68 -3 130.333 -17 187zM398.5 1505.5
c18.333 -11 33.001 -25.668 44.001 -44.001s16.5 -37.833 16.5 -58.5c0 -21.333 -5.5 -41.166 -16.5 -59.499s-25.5 -32.833 -43.5 -43.5s-37.667 -16 -59 -16c-32.667 0 -60.667 11.667 -84 35s-35 51.333 -35 84c0 20.667 5.33301 40.167 16 58.5s25.167 33 43.5 44
s38.166 16.5 59.499 16.5c20.667 0 40.167 -5.5 58.5 -16.5zM832.501 1505.5c18.333 -11 33 -25.668 44 -44.001s16.5 -37.833 16.5 -58.5c0 -21.333 -5.5 -41.166 -16.5 -59.499s-25.5 -32.833 -43.5 -43.5s-37.667 -16 -59 -16c-32.667 0 -60.5 11.667 -83.5 35
s-34.5 51.333 -34.5 84c0 20.667 5.33301 40.167 16 58.5s25 33 43 44s37.667 16.5 59 16.5c20.667 0 40.167 -5.5 58.5 -16.5z" />
    <glyph glyph-name="igrave" unicode="&#xec;" horiz-adv-x="600" 
d="M414.5 101c10.333 -21.333 26.668 -36.333 49.001 -45s52.833 -13 91.5 -13v-43c-125.333 5.33301 -208 8 -248 8s-122.667 -2.66699 -248 -8v43c38.667 0 69.167 4.33301 91.5 13s38.666 23.667 48.999 45s15.5 51 15.5 89v641c0 63.333 -11.5 109.333 -34.5 138
s-63.5 43 -121.5 43v43c42.667 -4 85 -6 127 -6c86.667 0 157.667 9.33301 213 28v-887c0 -38 5.16699 -67.667 15.5 -89zM257.502 1329.5l-118.5 107c-48 42.333 -82 76.166 -102 101.499c-18.667 24.667 -28 48 -28 70c0 22.667 9.33301 41.667 28 57
c12.667 10 27.334 15 44.001 15c29.333 0 55.666 -15.333 78.999 -46c19.333 -25.333 41 -61.166 65 -107.499l70.5 -134c23 -43 52.167 -92.167 87.5 -147.5l-23 -18c-37.333 39.333 -71.5 73.5 -102.5 102.5z" />
    <glyph glyph-name="iacute" unicode="&#xed;" horiz-adv-x="600" 
d="M414.5 101c10.333 -21.333 26.668 -36.333 49.001 -45s52.833 -13 91.5 -13v-43c-125.333 5.33301 -208 8 -248 8s-122.667 -2.66699 -248 -8v43c38.667 0 69.167 4.33301 91.5 13s38.666 23.667 48.999 45s15.5 51 15.5 89v641c0 63.333 -11.5 109.333 -34.5 138
s-63.5 43 -121.5 43v43c42.667 -4 85 -6 127 -6c86.667 0 157.667 9.33301 213 28v-887c0 -38 5.16699 -67.667 15.5 -89zM237.002 1370l75.001 140.999c29.333 56.667 53.666 97.667 72.999 123c23.333 30.667 49.333 46 78 46c16.667 0 31.667 -5 45 -15
c18.667 -15.333 28 -34.333 28 -57c0 -22 -9.33301 -45.333 -28 -70c-20 -25.333 -49.667 -55.166 -89 -89.499l-113 -100.5c-36 -32.667 -76.667 -73 -122 -121l-22 18c29.333 46 54.333 87.667 75 125z" />
    <glyph glyph-name="icircumflex" unicode="&#xee;" horiz-adv-x="600" 
d="M414.5 101c10.333 -21.333 26.668 -36.333 49.001 -45s52.833 -13 91.5 -13v-43c-125.333 5.33301 -208 8 -248 8s-122.667 -2.66699 -248 -8v43c38.667 0 69.167 4.33301 91.5 13s38.666 23.667 48.999 45s15.5 51 15.5 89v641c0 63.333 -11.5 109.333 -34.5 138
s-63.5 43 -121.5 43v43c42.667 -4 85 -6 127 -6c86.667 0 157.667 9.33301 213 28v-887c0 -38 5.16699 -67.667 15.5 -89zM440.502 1443c61 -63.333 130.5 -114.333 208.5 -153l-16 -28c-74 25.333 -146 56.5 -216 93.5s-126.333 73.833 -169 110.5
c-34.667 -36.667 -79.5 -73.5 -134.5 -110.5s-111.167 -68.167 -168.5 -93.5l-17 28c78 38.667 147.5 89.667 208.5 153s105.5 129.666 133.5 198.999h37c28 -69.333 72.5 -135.666 133.5 -198.999z" />
    <glyph glyph-name="idieresis" unicode="&#xef;" horiz-adv-x="600" 
d="M414.5 101c10.333 -21.333 26.668 -36.333 49.001 -45s52.833 -13 91.5 -13v-43c-125.333 5.33301 -208 8 -248 8s-122.667 -2.66699 -248 -8v43c38.667 0 69.167 4.33301 91.5 13s38.666 23.667 48.999 45s15.5 51 15.5 89v641c0 63.333 -11.5 109.333 -34.5 138
s-63.5 43 -121.5 43v43c42.667 -4 85 -6 127 -6c86.667 0 157.667 9.33301 213 28v-887c0 -38 5.16699 -67.667 15.5 -89zM132.502 1505.5c18.333 -11 33.001 -25.668 44.001 -44.001s16.5 -37.833 16.5 -58.5c0 -21.333 -5.5 -41.166 -16.5 -59.499
s-25.5 -32.833 -43.5 -43.5s-37.667 -16 -59 -16c-32.667 0 -60.667 11.667 -84 35s-35 51.333 -35 84c0 20.667 5.33301 40.167 16 58.5s25.167 33 43.5 44s38.166 16.5 59.499 16.5c20.667 0 40.167 -5.5 58.5 -16.5zM566.503 1505.5c18.333 -11 33 -25.668 44 -44.001
s16.5 -37.833 16.5 -58.5c0 -21.333 -5.5 -41.166 -16.5 -59.499s-25.5 -32.833 -43.5 -43.5s-37.667 -16 -59 -16c-32.667 0 -60.5 11.667 -83.5 35s-34.5 51.333 -34.5 84c0 20.667 5.33301 40.167 16 58.5s25 33 43 44s37.667 16.5 59 16.5
c20.667 0 40.167 -5.5 58.5 -16.5z" />
    <glyph glyph-name="eth" unicode="&#xf0;" horiz-adv-x="1135" 
d="M1020 618c0 -140.667 -21.668 -259.666 -65.001 -356.999s-100.333 -170 -171 -218s-147.667 -72 -231 -72c-90.667 0 -170.5 20.833 -239.5 62.5s-122.833 103.667 -161.5 186s-58 183.166 -58 302.499c0 94 17.333 184 52 270s85.667 156 153 210s148 81 242 81
c110.667 0 192.334 -35.333 245.001 -106c-39.333 162 -112 294 -218 396l-369 -181l-19 37l356 173c-66.667 57.333 -156.667 112.333 -270 165l17 35c122 -48 228.333 -104 319 -168l289 141l18 -37l-270 -131c254 -192.667 381 -455.667 381 -789zM745.499 152.001
c53 93.333 79.5 248.667 79.5 466c0 45.333 -1.33301 89 -4 131c-13.333 112 -44.333 188.5 -93 229.5s-106.334 61.5 -173.001 61.5c-79.333 0 -142.833 -41.333 -190.5 -124s-71.5 -215.334 -71.5 -398.001c0 -117.333 11.167 -213.666 33.5 -288.999
s52.333 -130.333 90 -165s79.834 -52 126.501 -52c82 0 149.5 46.667 202.5 140z" />
    <glyph glyph-name="ntilde" unicode="&#xf1;" horiz-adv-x="1223" 
d="M541.5 1024.5c61 39 129.837 58.501 206.504 58.501c95.333 0 167.666 -25.667 216.999 -77c25.333 -28 43.5 -62.5 54.5 -103.5s16.5 -96.167 16.5 -165.5v-547c0 -38 5.16699 -67.667 15.5 -89s26.666 -36.333 48.999 -45s52.833 -13 91.5 -13v-43
c-125.333 5.33301 -207.333 8 -246 8c-38 0 -114.333 -2.66699 -229 -8v43c34 0 60.5 4.33301 79.5 13s33 23.667 42 45s13.5 51 13.5 89v592c0 49.333 -3.83301 90.666 -11.5 123.999s-23.667 60.333 -48 81s-59.833 31 -106.5 31c-56 0 -105.833 -16.333 -149.5 -49
s-77.5 -77.5 -101.5 -134.5s-36 -120.167 -36 -189.5v-455c0 -38 4.5 -67.667 13.5 -89s23.167 -36.333 42.5 -45s46 -13 80 -13v-43c-114.667 5.33301 -191.334 8 -230.001 8s-120.667 -2.66699 -246 -8v43c38.667 0 69.167 4.33301 91.5 13s38.666 23.667 48.999 45
s15.5 51 15.5 89v641c0 63.333 -11.5 109.333 -34.5 138s-63.5 43 -121.5 43v43c42.667 -4 85 -6 127 -6c86.667 0 157.667 9.33301 213 28v-241c34 86.667 81.5 149.5 142.5 188.5zM327.504 1521.5c43 34.333 92.501 51.5 148.501 51.5c34 0 63.333 -6.16699 88 -18.5
s58.334 -34.833 101.001 -67.5s82.667 -49 120 -49c62 0 114.667 36 158 108l29 -14c-20.667 -72 -52.5 -125.167 -95.5 -159.5s-91.833 -51.5 -146.5 -51.5c-35.333 0 -65.5 6.33301 -90.5 19s-58.833 35.5 -101.5 68.5s-82.334 49.5 -119.001 49.5
c-60.667 0 -113.334 -36.667 -158.001 -110l-29 14c20.667 72 52.5 125.167 95.5 159.5z" />
    <glyph glyph-name="ograve" unicode="&#xf2;" horiz-adv-x="1122" 
d="M800.5 1024c69.667 -39.333 124.667 -100.5 165 -183.5s60.5 -187.833 60.5 -314.5s-20.167 -231.334 -60.5 -314.001s-95.333 -143.5 -165 -182.5s-149.5 -58.5 -239.5 -58.5s-169.833 19.5 -239.5 58.5s-124.667 99.833 -165 182.5s-60.5 187.334 -60.5 314.001
s20.167 231.5 60.5 314.5s95.333 144.167 165 183.5s149.5 59 239.5 59s169.833 -19.667 239.5 -59zM366.5 916c-47.667 -84 -71.5 -214 -71.5 -390c0 -175.333 23.833 -304.833 71.5 -388.5s112.5 -125.5 194.5 -125.5s146.833 41.833 194.5 125.5s71.5 213.167 71.5 388.5
c0 176 -23.833 306 -71.5 390s-112.5 126 -194.5 126s-146.833 -42 -194.5 -126zM535.5 1329.5l-118.5 107c-48 42.333 -82 76.166 -102 101.499c-18.667 24.667 -28 48 -28 70c0 22.667 9.33301 41.667 28 57c12.667 10 27.334 15 44.001 15
c29.333 0 55.666 -15.333 78.999 -46c19.333 -25.333 41 -61.166 65 -107.499l70.5 -134c23 -43 52.167 -92.167 87.5 -147.5l-23 -18c-37.333 39.333 -71.5 73.5 -102.5 102.5z" />
    <glyph glyph-name="oacute" unicode="&#xf3;" horiz-adv-x="1122" 
d="M800.5 1024c69.667 -39.333 124.667 -100.5 165 -183.5s60.5 -187.833 60.5 -314.5s-20.167 -231.334 -60.5 -314.001s-95.333 -143.5 -165 -182.5s-149.5 -58.5 -239.5 -58.5s-169.833 19.5 -239.5 58.5s-124.667 99.833 -165 182.5s-60.5 187.334 -60.5 314.001
s20.167 231.5 60.5 314.5s95.333 144.167 165 183.5s149.5 59 239.5 59s169.833 -19.667 239.5 -59zM366.5 916c-47.667 -84 -71.5 -214 -71.5 -390c0 -175.333 23.833 -304.833 71.5 -388.5s112.5 -125.5 194.5 -125.5s146.833 41.833 194.5 125.5s71.5 213.167 71.5 388.5
c0 176 -23.833 306 -71.5 390s-112.5 126 -194.5 126s-146.833 -42 -194.5 -126zM515 1370l75.001 140.999c29.333 56.667 53.666 97.667 72.999 123c23.333 30.667 49.333 46 78 46c16.667 0 31.667 -5 45 -15c18.667 -15.333 28 -34.333 28 -57
c0 -22 -9.33301 -45.333 -28 -70c-20 -25.333 -49.667 -55.166 -89 -89.499l-113 -100.5c-36 -32.667 -76.667 -73 -122 -121l-22 18c29.333 46 54.333 87.667 75 125z" />
    <glyph glyph-name="ocircumflex" unicode="&#xf4;" horiz-adv-x="1122" 
d="M800.5 1024c69.667 -39.333 124.667 -100.5 165 -183.5s60.5 -187.833 60.5 -314.5s-20.167 -231.334 -60.5 -314.001s-95.333 -143.5 -165 -182.5s-149.5 -58.5 -239.5 -58.5s-169.833 19.5 -239.5 58.5s-124.667 99.833 -165 182.5s-60.5 187.334 -60.5 314.001
s20.167 231.5 60.5 314.5s95.333 144.167 165 183.5s149.5 59 239.5 59s169.833 -19.667 239.5 -59zM366.5 916c-47.667 -84 -71.5 -214 -71.5 -390c0 -175.333 23.833 -304.833 71.5 -388.5s112.5 -125.5 194.5 -125.5s146.833 41.833 194.5 125.5s71.5 213.167 71.5 388.5
c0 176 -23.833 306 -71.5 390s-112.5 126 -194.5 126s-146.833 -42 -194.5 -126zM718.5 1443c61 -63.333 130.5 -114.333 208.5 -153l-16 -28c-74 25.333 -146 56.5 -216 93.5s-126.333 73.833 -169 110.5c-34.667 -36.667 -79.5 -73.5 -134.5 -110.5
s-111.167 -68.167 -168.5 -93.5l-17 28c78 38.667 147.5 89.667 208.5 153s105.5 129.666 133.5 198.999h37c28 -69.333 72.5 -135.666 133.5 -198.999z" />
    <glyph glyph-name="otilde" unicode="&#xf5;" horiz-adv-x="1122" 
d="M800.5 1024c69.667 -39.333 124.667 -100.5 165 -183.5s60.5 -187.833 60.5 -314.5s-20.167 -231.334 -60.5 -314.001s-95.333 -143.5 -165 -182.5s-149.5 -58.5 -239.5 -58.5s-169.833 19.5 -239.5 58.5s-124.667 99.833 -165 182.5s-60.5 187.334 -60.5 314.001
s20.167 231.5 60.5 314.5s95.333 144.167 165 183.5s149.5 59 239.5 59s169.833 -19.667 239.5 -59zM366.5 916c-47.667 -84 -71.5 -214 -71.5 -390c0 -175.333 23.833 -304.833 71.5 -388.5s112.5 -125.5 194.5 -125.5s146.833 41.833 194.5 125.5s71.5 213.167 71.5 388.5
c0 176 -23.833 306 -71.5 390s-112.5 126 -194.5 126s-146.833 -42 -194.5 -126zM267.5 1521.5c43 34.333 92.501 51.5 148.501 51.5c34 0 63.333 -6.16699 88 -18.5s58.334 -34.833 101.001 -67.5s82.667 -49 120 -49c62 0 114.667 36 158 108l29 -14
c-20.667 -72 -52.5 -125.167 -95.5 -159.5s-91.833 -51.5 -146.5 -51.5c-35.333 0 -65.5 6.33301 -90.5 19s-58.833 35.5 -101.5 68.5s-82.334 49.5 -119.001 49.5c-60.667 0 -113.334 -36.667 -158.001 -110l-29 14c20.667 72 52.5 125.167 95.5 159.5z" />
    <glyph glyph-name="odieresis" unicode="&#xf6;" horiz-adv-x="1122" 
d="M800.5 1024c69.667 -39.333 124.667 -100.5 165 -183.5s60.5 -187.833 60.5 -314.5s-20.167 -231.334 -60.5 -314.001s-95.333 -143.5 -165 -182.5s-149.5 -58.5 -239.5 -58.5s-169.833 19.5 -239.5 58.5s-124.667 99.833 -165 182.5s-60.5 187.334 -60.5 314.001
s20.167 231.5 60.5 314.5s95.333 144.167 165 183.5s149.5 59 239.5 59s169.833 -19.667 239.5 -59zM366.5 916c-47.667 -84 -71.5 -214 -71.5 -390c0 -175.333 23.833 -304.833 71.5 -388.5s112.5 -125.5 194.5 -125.5s146.833 41.833 194.5 125.5s71.5 213.167 71.5 388.5
c0 176 -23.833 306 -71.5 390s-112.5 126 -194.5 126s-146.833 -42 -194.5 -126zM410.5 1505.5c18.333 -11 33.001 -25.668 44.001 -44.001s16.5 -37.833 16.5 -58.5c0 -21.333 -5.5 -41.166 -16.5 -59.499s-25.5 -32.833 -43.5 -43.5s-37.667 -16 -59 -16
c-32.667 0 -60.667 11.667 -84 35s-35 51.333 -35 84c0 20.667 5.33301 40.167 16 58.5s25.167 33 43.5 44s38.166 16.5 59.499 16.5c20.667 0 40.167 -5.5 58.5 -16.5zM844.501 1505.5c18.333 -11 33 -25.668 44 -44.001s16.5 -37.833 16.5 -58.5
c0 -21.333 -5.5 -41.166 -16.5 -59.499s-25.5 -32.833 -43.5 -43.5s-37.667 -16 -59 -16c-32.667 0 -60.5 11.667 -83.5 35s-34.5 51.333 -34.5 84c0 20.667 5.33301 40.167 16 58.5s25 33 43 44s37.667 16.5 59 16.5c20.667 0 40.167 -5.5 58.5 -16.5z" />
    <glyph glyph-name="divide" unicode="&#xf7;" horiz-adv-x="1329" 
d="M744.5 1101.5c22.333 -22.333 33.501 -48.833 33.501 -79.5c0 -32 -11 -58.833 -33 -80.5s-49 -32.5 -81 -32.5c-31.333 0 -58 10.833 -80 32.5s-33 48.5 -33 80.5c0 30.667 11.167 57.167 33.5 79.5s48.833 33.5 79.5 33.5c31.333 0 58.166 -11.167 80.499 -33.5z
M150.001 696v62h1026v-62h-1026zM744.501 512c22.333 -22 33.5 -48.667 33.5 -80s-11.167 -58.333 -33.5 -81s-49.166 -34 -80.499 -34c-30.667 0 -57.167 11.333 -79.5 34s-33.5 49.667 -33.5 81s11.167 58 33.5 80s48.833 33 79.5 33c31.333 0 58.166 -11 80.499 -33z" />
    <glyph glyph-name="oslash" unicode="&#xf8;" horiz-adv-x="1120" 
d="M1026 526c0 -126.667 -20.167 -231.332 -60.5 -313.999s-95.333 -143.5 -165 -182.5s-149.5 -58.5 -239.5 -58.5c-113.333 0 -208.333 29.667 -285 89l-143 -210l-43 29l148 215c-94.667 96.667 -142 240.667 -142 432c0 126.667 20.167 231.5 60.5 314.5
s95.333 144.167 165 183.5s149.5 59 239.5 59c116 0 212.333 -31 289 -93l145 212l39 -26l-148 -219c93.333 -96.667 140 -240.334 140 -431.001zM561 1042c-82 0 -146.833 -42 -194.5 -126s-71.5 -214 -71.5 -390c0 -128 13.667 -233 41 -315l431 683
c-45.333 98.667 -114 148 -206 148zM561 12.002c82 0 146.834 41.833 194.501 125.5s71.5 213.167 71.5 388.5c0 126 -13 229.667 -39 311l-429 -684c45.333 -94 112.666 -141 201.999 -141z" />
    <glyph glyph-name="ugrave" unicode="&#xf9;" horiz-adv-x="1190" 
d="M1023.5 83.5c23 -28.333 63.5 -42.5049 121.5 -42.5049v-43c-42.667 4 -85 6 -127 6c-88 0 -159 -9.66699 -213 -29v242c-33.333 -84 -79.833 -146 -139.5 -186s-125.167 -60 -196.5 -60c-92 0 -163 26 -213 78c-24.667 26.667 -42.167 61.334 -52.5 104.001
s-15.5 97.334 -15.5 164.001v514c0 63.333 -11.333 109.333 -34 138s-63 43 -121 43v43c42.667 -4 85 -6 127 -6c86 0 157 9.33301 213 28v-805c0 -52 3 -94 9 -126s20.333 -58.167 43 -78.5s57 -30.5 103 -30.5c52.667 0 100 16.333 142 49s75 77.334 99 134.001
s36 119.334 36 188.001v423c0 63.333 -11.5 109.333 -34.5 138s-63.5 43 -121.5 43v43c42.667 -4 85 -6 127 -6c86.667 0 157.667 9.33301 213 28v-856c0 -63.333 11.5 -109.166 34.5 -137.499zM541.5 1329.5l-118.5 107c-48 42.333 -82 76.166 -102 101.499
c-18.667 24.667 -28 48 -28 70c0 22.667 9.33301 41.667 28 57c12.667 10 27.334 15 44.001 15c29.333 0 55.666 -15.333 78.999 -46c19.333 -25.333 41 -61.166 65 -107.499l70.5 -134c23 -43 52.167 -92.167 87.5 -147.5l-23 -18c-37.333 39.333 -71.5 73.5 -102.5 102.5z
" />
    <glyph glyph-name="uacute" unicode="&#xfa;" horiz-adv-x="1190" 
d="M1023.5 83.5c23 -28.333 63.5 -42.5049 121.5 -42.5049v-43c-42.667 4 -85 6 -127 6c-88 0 -159 -9.66699 -213 -29v242c-33.333 -84 -79.833 -146 -139.5 -186s-125.167 -60 -196.5 -60c-92 0 -163 26 -213 78c-24.667 26.667 -42.167 61.334 -52.5 104.001
s-15.5 97.334 -15.5 164.001v514c0 63.333 -11.333 109.333 -34 138s-63 43 -121 43v43c42.667 -4 85 -6 127 -6c86 0 157 9.33301 213 28v-805c0 -52 3 -94 9 -126s20.333 -58.167 43 -78.5s57 -30.5 103 -30.5c52.667 0 100 16.333 142 49s75 77.334 99 134.001
s36 119.334 36 188.001v423c0 63.333 -11.5 109.333 -34.5 138s-63.5 43 -121.5 43v43c42.667 -4 85 -6 127 -6c86.667 0 157.667 9.33301 213 28v-856c0 -63.333 11.5 -109.166 34.5 -137.499zM521 1370l75.001 140.999c29.333 56.667 53.666 97.667 72.999 123
c23.333 30.667 49.333 46 78 46c16.667 0 31.667 -5 45 -15c18.667 -15.333 28 -34.333 28 -57c0 -22 -9.33301 -45.333 -28 -70c-20 -25.333 -49.667 -55.166 -89 -89.499l-113 -100.5c-36 -32.667 -76.667 -73 -122 -121l-22 18c29.333 46 54.333 87.667 75 125z" />
    <glyph glyph-name="ucircumflex" unicode="&#xfb;" horiz-adv-x="1190" 
d="M1023.5 83.5c23 -28.333 63.5 -42.5049 121.5 -42.5049v-43c-42.667 4 -85 6 -127 6c-88 0 -159 -9.66699 -213 -29v242c-33.333 -84 -79.833 -146 -139.5 -186s-125.167 -60 -196.5 -60c-92 0 -163 26 -213 78c-24.667 26.667 -42.167 61.334 -52.5 104.001
s-15.5 97.334 -15.5 164.001v514c0 63.333 -11.333 109.333 -34 138s-63 43 -121 43v43c42.667 -4 85 -6 127 -6c86 0 157 9.33301 213 28v-805c0 -52 3 -94 9 -126s20.333 -58.167 43 -78.5s57 -30.5 103 -30.5c52.667 0 100 16.333 142 49s75 77.334 99 134.001
s36 119.334 36 188.001v423c0 63.333 -11.5 109.333 -34.5 138s-63.5 43 -121.5 43v43c42.667 -4 85 -6 127 -6c86.667 0 157.667 9.33301 213 28v-856c0 -63.333 11.5 -109.166 34.5 -137.499zM724.5 1443c61 -63.333 130.5 -114.333 208.5 -153l-16 -28
c-74 25.333 -146 56.5 -216 93.5s-126.333 73.833 -169 110.5c-34.667 -36.667 -79.5 -73.5 -134.5 -110.5s-111.167 -68.167 -168.5 -93.5l-17 28c78 38.667 147.5 89.667 208.5 153s105.5 129.666 133.5 198.999h37c28 -69.333 72.5 -135.666 133.5 -198.999z" />
    <glyph glyph-name="udieresis" unicode="&#xfc;" horiz-adv-x="1190" 
d="M1023.5 83.5c23 -28.333 63.5 -42.5049 121.5 -42.5049v-43c-42.667 4 -85 6 -127 6c-88 0 -159 -9.66699 -213 -29v242c-33.333 -84 -79.833 -146 -139.5 -186s-125.167 -60 -196.5 -60c-92 0 -163 26 -213 78c-24.667 26.667 -42.167 61.334 -52.5 104.001
s-15.5 97.334 -15.5 164.001v514c0 63.333 -11.333 109.333 -34 138s-63 43 -121 43v43c42.667 -4 85 -6 127 -6c86 0 157 9.33301 213 28v-805c0 -52 3 -94 9 -126s20.333 -58.167 43 -78.5s57 -30.5 103 -30.5c52.667 0 100 16.333 142 49s75 77.334 99 134.001
s36 119.334 36 188.001v423c0 63.333 -11.5 109.333 -34.5 138s-63.5 43 -121.5 43v43c42.667 -4 85 -6 127 -6c86.667 0 157.667 9.33301 213 28v-856c0 -63.333 11.5 -109.166 34.5 -137.499zM416.5 1505.5c18.333 -11 33.001 -25.668 44.001 -44.001
s16.5 -37.833 16.5 -58.5c0 -21.333 -5.5 -41.166 -16.5 -59.499s-25.5 -32.833 -43.5 -43.5s-37.667 -16 -59 -16c-32.667 0 -60.667 11.667 -84 35s-35 51.333 -35 84c0 20.667 5.33301 40.167 16 58.5s25.167 33 43.5 44s38.166 16.5 59.499 16.5
c20.667 0 40.167 -5.5 58.5 -16.5zM850.501 1505.49c18.333 -11 33 -25.668 44 -44.001s16.5 -37.833 16.5 -58.5c0 -21.333 -5.5 -41.166 -16.5 -59.499s-25.5 -32.833 -43.5 -43.5s-37.667 -16 -59 -16c-32.667 0 -60.5 11.667 -83.5 35s-34.5 51.333 -34.5 84
c0 20.667 5.33301 40.167 16 58.5s25 33 43 44s37.667 16.5 59 16.5c20.667 0 40.167 -5.5 58.5 -16.5z" />
    <glyph glyph-name="yacute" unicode="&#xfd;" horiz-adv-x="1032" 
d="M856 1049c60.667 0 112.664 2 155.997 6v-41c-27.333 -3.33301 -51.666 -15.666 -72.999 -36.999s-41.333 -57 -60 -107l-336 -880l-70 -178c-26 -67.333 -55.333 -115.333 -88 -144c-38.667 -35.333 -92 -53 -160 -53c-40.667 0 -74 10.833 -100 32.5
s-39 51.834 -39 90.501c0 32.667 9.66699 58.834 29 78.501s46 29.5 80 29.5c30 0 54.833 -8.33301 74.5 -25s29.5 -40.334 29.5 -71.001c0 -40.667 -18.333 -71.334 -55 -92.001c2.66699 -1.33301 6.66699 -2 12 -2c75.333 0 133.333 53.333 174 160l73 187l-372 894
c-23.333 47.333 -46.5 78.333 -69.5 93s-46.167 22 -69.5 22v43c64 -8.66699 131 -13 201 -13c58.667 0 147.334 4.33301 266.001 13v-43c-33.333 0 -59.333 -1.16699 -78 -3.5s-34.167 -8.66602 -46.5 -18.999s-18.5 -26.5 -18.5 -48.5
c0 -24.667 8.66699 -58.334 26 -101.001l247 -612l226 593c14.667 40 22 71.333 22 94c0 32 -12.167 55.667 -36.5 71s-63.166 24.666 -116.499 27.999v41c72 -4 129.333 -6 172 -6zM467.997 1370l75.001 140.999c29.333 56.667 53.666 97.667 72.999 123
c23.333 30.667 49.333 46 78 46c16.667 0 31.667 -5 45 -15c18.667 -15.333 28 -34.333 28 -57c0 -22 -9.33301 -45.333 -28 -70c-20 -25.333 -49.667 -55.166 -89 -89.499l-113 -100.5c-36 -32.667 -76.667 -73 -122 -121l-22 18c29.333 46 54.333 87.667 75 125z" />
    <glyph glyph-name="thorn" unicode="&#xfe;" horiz-adv-x="1145" 
d="M472 1025c57.333 38.667 122.663 58.002 195.996 58.002c72.667 0 137.834 -19.667 195.501 -59s103 -97.333 136 -174s49.5 -168.334 49.5 -275.001c0 -104.667 -16.667 -202.834 -50 -294.501s-85.166 -166.167 -155.499 -223.5s-158.166 -86 -263.499 -86
c-52 0 -99.167 10.167 -141.5 30.5s-75.166 47.166 -98.499 80.499v-262c0 -55.333 16.333 -93.833 49 -115.5s82 -32.5 148 -32.5v-43c-17.333 0.666992 -56.333 2.33398 -117 5.00098s-120 4 -178 4c-43.333 0 -88.166 -1.33301 -134.499 -4l-87.5 -5v43
c34 0 60.667 3.83301 80 11.5s33.5 20.667 42.5 39s13.5 43.833 13.5 76.5v1559c0 63.333 -11.5 109.166 -34.5 137.499s-63.5 42.5 -121.5 42.5v43c43.333 -4 85.666 -6 126.999 -6c88 0 159 9.66699 213 29v-743c30.667 70.667 74.667 125.334 132 164.001z
M424.497 53.502c36.333 -23.667 80.5 -35.499 132.5 -35.499c195.333 0 293 176.333 293 529c0 316.667 -79.333 475 -238 475c-62 0 -117.5 -22.167 -166.5 -66.5s-84.167 -108.5 -105.5 -192.5v-613c20 -40.667 48.167 -72.834 84.5 -96.501z" />
    <glyph glyph-name="ydieresis" unicode="&#xff;" horiz-adv-x="1032" 
d="M856 1049c60.667 0 112.664 2 155.997 6v-41c-27.333 -3.33301 -51.666 -15.666 -72.999 -36.999s-41.333 -57 -60 -107l-336 -880l-70 -178c-26 -67.333 -55.333 -115.333 -88 -144c-38.667 -35.333 -92 -53 -160 -53c-40.667 0 -74 10.833 -100 32.5
s-39 51.834 -39 90.501c0 32.667 9.66699 58.834 29 78.501s46 29.5 80 29.5c30 0 54.833 -8.33301 74.5 -25s29.5 -40.334 29.5 -71.001c0 -40.667 -18.333 -71.334 -55 -92.001c2.66699 -1.33301 6.66699 -2 12 -2c75.333 0 133.333 53.333 174 160l73 187l-372 894
c-23.333 47.333 -46.5 78.333 -69.5 93s-46.167 22 -69.5 22v43c64 -8.66699 131 -13 201 -13c58.667 0 147.334 4.33301 266.001 13v-43c-33.333 0 -59.333 -1.16699 -78 -3.5s-34.167 -8.66602 -46.5 -18.999s-18.5 -26.5 -18.5 -48.5
c0 -24.667 8.66699 -58.334 26 -101.001l247 -612l226 593c14.667 40 22 71.333 22 94c0 32 -12.167 55.667 -36.5 71s-63.166 24.666 -116.499 27.999v41c72 -4 129.333 -6 172 -6zM363.497 1505.5c18.333 -11 33.001 -25.668 44.001 -44.001s16.5 -37.833 16.5 -58.5
c0 -21.333 -5.5 -41.166 -16.5 -59.499s-25.5 -32.833 -43.5 -43.5s-37.667 -16 -59 -16c-32.667 0 -60.667 11.667 -84 35s-35 51.333 -35 84c0 20.667 5.33301 40.167 16 58.5s25.167 33 43.5 44s38.166 16.5 59.499 16.5c20.667 0 40.167 -5.5 58.5 -16.5z
M797.498 1505.5c18.333 -11 33 -25.668 44 -44.001s16.5 -37.833 16.5 -58.5c0 -21.333 -5.5 -41.166 -16.5 -59.499s-25.5 -32.833 -43.5 -43.5s-37.667 -16 -59 -16c-32.667 0 -60.5 11.667 -83.5 35s-34.5 51.333 -34.5 84c0 20.667 5.33301 40.167 16 58.5s25 33 43 44
s37.667 16.5 59 16.5c20.667 0 40.167 -5.5 58.5 -16.5z" />
    <glyph glyph-name="Amacron" unicode="&#x100;" horiz-adv-x="1290" 
d="M1303 41l0.000976562 -40.998c-56 4 -129.333 6 -220 6c-116.667 0 -204 -2 -262 -6v41c52 2 89.167 8.33301 111.5 19s33.5 29.667 33.5 57c0 23.333 -8 55.333 -24 96l-126 336h-494l-84 -217c-27.333 -69.333 -41 -125.333 -41 -168c0 -43.333 14.5 -74.333 43.5 -93
s73.833 -28.667 134.5 -30v-41c-78 4 -156.667 6 -236 6c-61.333 0 -112.333 -2 -153 -6v41c68 15.333 121.667 74.666 161 177.999l482 1241h33l499 -1288c33.333 -84.667 80.666 -128.334 141.999 -131.001zM572.001 1201l-235 -611h464zM272.001 1677v52h721v-52h-721z
" />
    <glyph glyph-name="amacron" unicode="&#x101;" horiz-adv-x="1020" 
d="M605.5 998.5c-33 29 -79.8311 43.5029 -140.498 43.5029c-96.667 0 -164.334 -24.333 -203.001 -73c27.333 -6.66699 50.166 -21.167 68.499 -43.5s27.5 -49.5 27.5 -81.5c0 -34.667 -10.833 -61.834 -32.5 -81.501s-50.834 -29.5 -87.501 -29.5
c-34.667 0 -61.834 11.667 -81.501 35s-29.5 54 -29.5 92c0 53.333 32 102 96 146c33.333 22 74.5 40.333 123.5 55s103.5 22 163.5 22c56 0 105.333 -6.83301 148 -20.5s76 -32.5 100 -56.5c31.333 -32 52.833 -69.167 64.5 -111.5s17.5 -100.833 17.5 -175.5v-569
c0 -34 4.83301 -58.667 14.5 -74s25.834 -23 48.501 -23c16.667 0 32 3.66699 46 11s29.333 18 46 32l23 -35c-24 -18 -44 -32 -60 -42s-34.333 -18 -55 -24s-44.667 -9 -72 -9c-66 0 -111.833 16.5 -137.5 49.5s-38.5 77.167 -38.5 132.5c-40 -66 -88 -112.833 -144 -140.5
s-113 -41.5 -171 -41.5c-47.333 0 -90.666 8.16699 -129.999 24.5s-70.833 41.666 -94.5 75.999s-35.5 77.166 -35.5 128.499c0 52 12.667 96.333 38 133s61 68.834 107 96.501s107.667 57.834 185 90.501l98 40c52 21.333 89.5 42.666 112.5 63.999
s34.5 44.666 34.5 69.999v127c0 79.333 -16.5 133.5 -49.5 162.5zM605.002 582.003c-23.333 -13.333 -72.002 -38.001 -146.002 -74.001c-39.333 -18.667 -72.666 -37.834 -99.999 -57.501s-50.666 -46.167 -69.999 -79.5s-29 -74.333 -29 -123
c0 -59.333 15 -104.166 45 -134.499s69.667 -45.5 119 -45.5c90.667 0 167.667 51.667 231 155v402c-10 -15.333 -26.667 -29.666 -50 -42.999zM178 1407v51h639v-51h-639z" />
    <glyph glyph-name="Abreve" unicode="&#x102;" horiz-adv-x="1290" 
d="M1303 41l0.000976562 -40.998c-56 4 -129.333 6 -220 6c-116.667 0 -204 -2 -262 -6v41c52 2 89.167 8.33301 111.5 19s33.5 29.667 33.5 57c0 23.333 -8 55.333 -24 96l-126 336h-494l-84 -217c-27.333 -69.333 -41 -125.333 -41 -168c0 -43.333 14.5 -74.333 43.5 -93
s73.833 -28.667 134.5 -30v-41c-78 4 -156.667 6 -236 6c-61.333 0 -112.333 -2 -153 -6v41c68 15.333 121.667 74.666 161 177.999l482 1241h33l499 -1288c33.333 -84.667 80.666 -128.334 141.999 -131.001zM572.001 1201l-235 -611h464zM878.001 1672
c-68.667 -46.667 -150.331 -70 -244.998 -70s-176.334 23.333 -245.001 70s-123 102.334 -163 167.001l27 21c37.333 -36.667 87.666 -67.667 150.999 -93s140 -38 230 -38c89.333 0 166 12.833 230 38.5s115 57.167 153 94.5l24 -23
c-39.333 -64.667 -93.333 -120.334 -162 -167.001z" />
    </font>
</defs>
</svg>
